NimbusMonL-Bold.ufo
<glyph name="exclam" format="1">
  <advance width="600"/>
  <unicode hex="0021"/>
  <outline>
    <contour>
      <point x="379" y="525" type="line" smooth="yes"/>
      <point x="380" y="538"/>
      <point x="381" y="552"/>
      <point x="381" y="558" type="curve" smooth="yes"/>
      <point x="381" y="604"/>
      <point x="347" y="638"/>
      <point x="301" y="638" type="curve" smooth="yes"/>
      <point x="254" y="638"/>
      <point x="220" y="604"/>
      <point x="220" y="558" type="curve" smooth="yes"/>
      <point x="220" y="551"/>
      <point x="221" y="537"/>
      <point x="222" y="525" type="curve" smooth="yes"/>
      <point x="251" y="228" type="line" smooth="yes"/>
      <point x="254" y="198"/>
      <point x="273" y="179"/>
      <point x="301" y="179" type="curve" smooth="yes"/>
      <point x="329" y="179"/>
      <point x="347" y="197"/>
      <point x="350" y="228" type="curve" smooth="yes"/>
    </contour>
    <contour>
      <point x="309" y="-15" type="line" smooth="yes"/>
      <point x="346" y="-15"/>
      <point x="375" y="14"/>
      <point x="375" y="51" type="curve" smooth="yes"/>
      <point x="375" y="88"/>
      <point x="346" y="117"/>
      <point x="309" y="117" type="curve" smooth="yes"/>
      <point x="292" y="117" type="line" smooth="yes"/>
      <point x="255" y="117"/>
      <point x="225" y="87"/>
      <point x="225" y="51" type="curve" smooth="yes"/>
      <point x="225" y="15"/>
      <point x="255" y="-15"/>
      <point x="292" y="-15" type="curve" smooth="yes"/>
    </contour>
  </outline>
</glyph>
<glyph name="quotedbl" format="1">
  <advance width="600"/>
  <unicode hex="0022"/>
  <outline>
    <contour>
      <point x="136" y="602" type="line"/>
      <point x="170" y="347" type="line" smooth="yes"/>
      <point x="173" y="322"/>
      <point x="182" y="312"/>
      <point x="201" y="312" type="curve" smooth="yes"/>
      <point x="221" y="312"/>
      <point x="229" y="322"/>
      <point x="233" y="348" type="curve" smooth="yes"/>
      <point x="264" y="602" type="line"/>
    </contour>
    <contour>
      <point x="336" y="602" type="line"/>
      <point x="370" y="347" type="line" smooth="yes"/>
      <point x="373" y="322"/>
      <point x="382" y="312"/>
      <point x="401" y="312" type="curve" smooth="yes"/>
      <point x="421" y="312"/>
      <point x="429" y="322"/>
      <point x="433" y="348" type="curve" smooth="yes"/>
      <point x="464" y="602" type="line"/>
    </contour>
  </outline>
</glyph>
<glyph name="numbersign" format="1">
  <advance width="600"/>
  <unicode hex="0023"/>
  <outline>
    <contour>
      <point x="447" y="444" type="line"/>
      <point x="458" y="605" type="line"/>
      <point x="460" y="627" type="line" smooth="yes"/>
      <point x="462" y="650"/>
      <point x="436" y="675"/>
      <point x="410" y="675" type="curve" smooth="yes"/>
      <point x="395" y="675"/>
      <point x="380" y="668"/>
      <point x="370" y="656" type="curve" smooth="yes"/>
      <point x="362" y="646"/>
      <point x="360" y="640"/>
      <point x="359" y="612" type="curve" smooth="yes"/>
      <point x="347" y="444" type="line"/>
      <point x="276" y="444" type="line"/>
      <point x="287" y="605" type="line"/>
      <point x="288" y="623" type="line" smooth="yes"/>
      <point x="289" y="651"/>
      <point x="267" y="675"/>
      <point x="238" y="675" type="curve" smooth="yes"/>
      <point x="223" y="675"/>
      <point x="208" y="668"/>
      <point x="198" y="656" type="curve"/>
      <point x="190" y="645"/>
      <point x="188" y="638"/>
      <point x="187" y="612" type="curve" smooth="yes"/>
      <point x="175" y="444" type="line"/>
      <point x="149" y="444" type="line" smooth="yes"/>
      <point x="122" y="444"/>
      <point x="115" y="443"/>
      <point x="106" y="437" type="curve" smooth="yes"/>
      <point x="91" y="428"/>
      <point x="82" y="411"/>
      <point x="82" y="394" type="curve" smooth="yes"/>
      <point x="82" y="379"/>
      <point x="90" y="363"/>
      <point x="103" y="353" type="curve" smooth="yes"/>
      <point x="113" y="346"/>
      <point x="122" y="344"/>
      <point x="149" y="344" type="curve" smooth="yes"/>
      <point x="168" y="344" type="line"/>
      <point x="161" y="238" type="line"/>
      <point x="128" y="238" type="line" smooth="yes"/>
      <point x="102" y="238"/>
      <point x="95" y="237"/>
      <point x="86" y="231" type="curve" smooth="yes"/>
      <point x="71" y="222"/>
      <point x="62" y="205"/>
      <point x="62" y="189" type="curve" smooth="yes"/>
      <point x="62" y="173"/>
      <point x="70" y="158"/>
      <point x="83" y="148" type="curve" smooth="yes"/>
      <point x="93" y="141"/>
      <point x="103" y="139"/>
      <point x="128" y="139" type="curve" smooth="yes"/>
      <point x="154" y="139" type="line"/>
      <point x="143" y="-22" type="line"/>
      <point x="142" y="-29"/>
      <point x="142" y="-36"/>
      <point x="142" y="-40" type="curve" smooth="yes"/>
      <point x="142" y="-70"/>
      <point x="163" y="-92"/>
      <point x="192" y="-92" type="curve" smooth="yes"/>
      <point x="225" y="-92"/>
      <point x="242" y="-70"/>
      <point x="242" y="-29" type="curve"/>
      <point x="254" y="139" type="line"/>
      <point x="326" y="139" type="line"/>
      <point x="315" y="-22" type="line"/>
      <point x="313" y="-41" type="line" smooth="yes"/>
      <point x="311" y="-67"/>
      <point x="335" y="-92"/>
      <point x="362" y="-92" type="curve" smooth="yes"/>
      <point x="376" y="-92"/>
      <point x="391" y="-85"/>
      <point x="401" y="-73" type="curve" smooth="yes"/>
      <point x="406" y="-67"/>
      <point x="413" y="-44"/>
      <point x="414" y="-29" type="curve" smooth="yes"/>
      <point x="425" y="139" type="line"/>
      <point x="452" y="139" type="line" smooth="yes"/>
      <point x="475" y="139"/>
      <point x="485" y="141"/>
      <point x="494" y="146" type="curve" smooth="yes"/>
      <point x="509" y="155"/>
      <point x="518" y="171"/>
      <point x="518" y="188" type="curve" smooth="yes"/>
      <point x="518" y="204"/>
      <point x="510" y="219"/>
      <point x="497" y="229" type="curve" smooth="yes"/>
      <point x="488" y="236"/>
      <point x="478" y="238"/>
      <point x="451" y="238" type="curve" smooth="yes"/>
      <point x="432" y="238" type="line"/>
      <point x="440" y="344" type="line"/>
      <point x="472" y="344" type="line" smooth="yes"/>
      <point x="496" y="344"/>
      <point x="505" y="346"/>
      <point x="514" y="351" type="curve" smooth="yes"/>
      <point x="529" y="360"/>
      <point x="538" y="377"/>
      <point x="538" y="394" type="curve" smooth="yes"/>
      <point x="538" y="410"/>
      <point x="530" y="425"/>
      <point x="517" y="435" type="curve" smooth="yes"/>
      <point x="507" y="442"/>
      <point x="499" y="444"/>
      <point x="472" y="444" type="curve" smooth="yes"/>
    </contour>
    <contour>
      <point x="340" y="344" type="line"/>
      <point x="333" y="238" type="line"/>
      <point x="261" y="238" type="line"/>
      <point x="269" y="344" type="line"/>
    </contour>
  </outline>
</glyph>
<glyph name="dollar" format="1">
  <advance width="600"/>
  <unicode hex="0024"/>
  <outline>
    <contour>
      <point x="351" y="618" type="line" smooth="yes"/>
      <point x="351" y="644"/>
      <point x="350" y="651"/>
      <point x="344" y="660" type="curve" smooth="yes"/>
      <point x="335" y="675"/>
      <point x="319" y="684"/>
      <point x="302" y="684" type="curve" smooth="yes"/>
      <point x="286" y="684"/>
      <point x="271" y="676"/>
      <point x="261" y="664" type="curve"/>
      <point x="254" y="653"/>
      <point x="252" y="645"/>
      <point x="252" y="618" type="curve" smooth="yes"/>
      <point x="252" y="592" type="line"/>
      <point x="166" y="577"/>
      <point x="107" y="513"/>
      <point x="107" y="435" type="curve" smooth="yes"/>
      <point x="107" y="354"/>
      <point x="160" y="300"/>
      <point x="259" y="280" type="curve" smooth="yes"/>
      <point x="333" y="265" type="line" smooth="yes"/>
      <point x="389" y="254"/>
      <point x="413" y="235"/>
      <point x="413" y="200" type="curve" smooth="yes"/>
      <point x="413" y="157"/>
      <point x="365" y="124"/>
      <point x="300" y="124" type="curve" smooth="yes"/>
      <point x="245" y="124"/>
      <point x="192" y="149"/>
      <point x="184" y="180" type="curve" smooth="yes"/>
      <point x="176" y="207"/>
      <point x="176" y="207"/>
      <point x="169" y="215" type="curve"/>
      <point x="160" y="223"/>
      <point x="146" y="229"/>
      <point x="133" y="229" type="curve" smooth="yes"/>
      <point x="117" y="229"/>
      <point x="102" y="221"/>
      <point x="92" y="208" type="curve" smooth="yes"/>
      <point x="85" y="198"/>
      <point x="83" y="189"/>
      <point x="83" y="162" type="curve" smooth="yes"/>
      <point x="83" y="101" type="line" smooth="yes"/>
      <point x="83" y="76"/>
      <point x="85" y="67"/>
      <point x="90" y="58" type="curve"/>
      <point x="100" y="43"/>
      <point x="116" y="34"/>
      <point x="134" y="34" type="curve" smooth="yes"/>
      <point x="148" y="34"/>
      <point x="157" y="38"/>
      <point x="173" y="52" type="curve"/>
      <point x="205" y="38"/>
      <point x="210" y="36"/>
      <point x="252" y="27" type="curve"/>
      <point x="252" y="-56" type="line" smooth="yes"/>
      <point x="252" y="-81"/>
      <point x="253" y="-90"/>
      <point x="259" y="-99" type="curve" smooth="yes"/>
      <point x="268" y="-114"/>
      <point x="285" y="-123"/>
      <point x="302" y="-123" type="curve" smooth="yes"/>
      <point x="317" y="-123"/>
      <point x="332" y="-115"/>
      <point x="342" y="-102" type="curve" smooth="yes"/>
      <point x="350" y="-92"/>
      <point x="351" y="-84"/>
      <point x="351" y="-56" type="curve" smooth="yes"/>
      <point x="351" y="27" type="line"/>
      <point x="455" y="47"/>
      <point x="517" y="112"/>
      <point x="517" y="199" type="curve" smooth="yes"/>
      <point x="517" y="242"/>
      <point x="502" y="281"/>
      <point x="475" y="308" type="curve" smooth="yes"/>
      <point x="449" y="334"/>
      <point x="413" y="350"/>
      <point x="351" y="363" type="curve" smooth="yes"/>
      <point x="286" y="377" type="line" smooth="yes"/>
      <point x="235" y="387"/>
      <point x="211" y="406"/>
      <point x="211" y="433" type="curve" smooth="yes"/>
      <point x="211" y="470"/>
      <point x="250" y="495"/>
      <point x="310" y="495" type="curve" smooth="yes"/>
      <point x="351" y="495"/>
      <point x="391" y="478"/>
      <point x="394" y="459" type="curve"/>
      <point x="400" y="432"/>
      <point x="419" y="417"/>
      <point x="446" y="417" type="curve" smooth="yes"/>
      <point x="462" y="417"/>
      <point x="477" y="424"/>
      <point x="487" y="438" type="curve" smooth="yes"/>
      <point x="494" y="447"/>
      <point x="496" y="457"/>
      <point x="496" y="483" type="curve" smooth="yes"/>
      <point x="496" y="515" type="line" smooth="yes"/>
      <point x="496" y="524"/>
      <point x="496" y="528"/>
      <point x="495" y="536" type="curve" smooth="yes"/>
      <point x="492" y="563"/>
      <point x="473" y="581"/>
      <point x="446" y="581" type="curve" smooth="yes"/>
      <point x="437" y="581"/>
      <point x="429" y="579"/>
      <point x="418" y="574" type="curve"/>
      <point x="414" y="575"/>
      <point x="410" y="576"/>
      <point x="409" y="577" type="curve"/>
      <point x="395" y="582" type="line" smooth="yes"/>
      <point x="386" y="585"/>
      <point x="380" y="587"/>
      <point x="375" y="588" type="curve" smooth="yes"/>
      <point x="367" y="590"/>
      <point x="362" y="590"/>
      <point x="351" y="592" type="curve"/>
    </contour>
  </outline>
</glyph>
<glyph name="percent" format="1">
  <advance width="600"/>
  <unicode hex="0025"/>
  <outline>
    <contour>
      <point x="228" y="617" type="curve" smooth="yes"/>
      <point x="152" y="617"/>
      <point x="89" y="554"/>
      <point x="89" y="478" type="curve" smooth="yes"/>
      <point x="89" y="401"/>
      <point x="152" y="338"/>
      <point x="229" y="338" type="curve" smooth="yes"/>
      <point x="305" y="338"/>
      <point x="368" y="401"/>
      <point x="368" y="476" type="curve" smooth="yes"/>
      <point x="368" y="555"/>
      <point x="307" y="617"/>
    </contour>
    <contour>
      <point x="228" y="552" type="curve" smooth="yes"/>
      <point x="270" y="552"/>
      <point x="303" y="519"/>
      <point x="303" y="477" type="curve" smooth="yes"/>
      <point x="303" y="437"/>
      <point x="269" y="403"/>
      <point x="228" y="403" type="curve" smooth="yes"/>
      <point x="188" y="403"/>
      <point x="154" y="437"/>
      <point x="154" y="478" type="curve" smooth="yes"/>
      <point x="154" y="518"/>
      <point x="188" y="552"/>
    </contour>
    <contour>
      <point x="491" y="331" type="line" smooth="yes"/>
      <point x="513" y="337"/>
      <point x="521" y="346"/>
      <point x="521" y="362" type="curve" smooth="yes"/>
      <point x="521" y="379"/>
      <point x="507" y="394"/>
      <point x="492" y="394" type="curve" smooth="yes"/>
      <point x="486" y="394"/>
      <point x="484" y="394"/>
      <point x="472" y="390" type="curve" smooth="yes"/>
      <point x="110" y="272" type="line" smooth="yes"/>
      <point x="88" y="265"/>
      <point x="80" y="257"/>
      <point x="80" y="241" type="curve" smooth="yes"/>
      <point x="80" y="224"/>
      <point x="94" y="209"/>
      <point x="109" y="209" type="curve" smooth="yes"/>
      <point x="113" y="209"/>
      <point x="122" y="211"/>
      <point x="129" y="213" type="curve" smooth="yes"/>
    </contour>
    <contour>
      <point x="368" y="264" type="curve" smooth="yes"/>
      <point x="292" y="264"/>
      <point x="229" y="201"/>
      <point x="229" y="125" type="curve" smooth="yes"/>
      <point x="229" y="48"/>
      <point x="292" y="-15"/>
      <point x="368" y="-15" type="curve" smooth="yes"/>
      <point x="445" y="-15"/>
      <point x="508" y="48"/>
      <point x="508" y="123" type="curve" smooth="yes"/>
      <point x="508" y="202"/>
      <point x="447" y="264"/>
    </contour>
    <contour>
      <point x="368" y="199" type="curve" smooth="yes"/>
      <point x="410" y="199"/>
      <point x="443" y="166"/>
      <point x="443" y="124" type="curve" smooth="yes"/>
      <point x="443" y="84"/>
      <point x="409" y="50"/>
      <point x="369" y="50" type="curve" smooth="yes"/>
      <point x="328" y="50"/>
      <point x="294" y="84"/>
      <point x="294" y="125" type="curve" smooth="yes"/>
      <point x="294" y="165"/>
      <point x="328" y="199"/>
    </contour>
  </outline>
</glyph>
<glyph name="ampersand" format="1">
  <advance width="600"/>
  <unicode hex="0026"/>
  <outline>
    <contour>
      <point x="365" y="198" type="line"/>
      <point x="265" y="343" type="line" smooth="yes"/>
      <point x="246" y="370"/>
      <point x="237" y="389"/>
      <point x="237" y="400" type="curve" smooth="yes"/>
      <point x="237" y="428"/>
      <point x="261" y="450"/>
      <point x="290" y="450" type="curve" smooth="yes"/>
      <point x="310" y="450"/>
      <point x="324" y="442"/>
      <point x="353" y="416" type="curve"/>
      <point x="394" y="438" type="line" smooth="yes"/>
      <point x="426" y="456"/>
      <point x="435" y="467"/>
      <point x="435" y="490" type="curve" smooth="yes"/>
      <point x="435" y="515"/>
      <point x="412" y="540"/>
      <point x="387" y="540" type="curve" smooth="yes"/>
      <point x="380" y="540"/>
      <point x="371" y="537"/>
      <point x="359" y="533" type="curve"/>
      <point x="333" y="545"/>
      <point x="313" y="550"/>
      <point x="289" y="550" type="curve" smooth="yes"/>
      <point x="208" y="550"/>
      <point x="137" y="480"/>
      <point x="137" y="399" type="curve" smooth="yes"/>
      <point x="137" y="368"/>
      <point x="144" y="349"/>
      <point x="171" y="303" type="curve"/>
      <point x="109" y="267"/>
      <point x="75" y="211"/>
      <point x="75" y="144" type="curve" smooth="yes"/>
      <point x="75" y="48"/>
      <point x="147" y="-14"/>
      <point x="257" y="-14" type="curve" smooth="yes"/>
      <point x="310" y="-14"/>
      <point x="340" y="-6"/>
      <point x="370" y="15" type="curve"/>
      <point x="381" y="0" type="line"/>
      <point x="442" y="0" type="line" smooth="yes"/>
      <point x="463" y="0"/>
      <point x="476" y="2"/>
      <point x="484" y="7" type="curve" smooth="yes"/>
      <point x="499" y="16"/>
      <point x="508" y="33"/>
      <point x="508" y="50" type="curve" smooth="yes"/>
      <point x="508" y="66"/>
      <point x="500" y="81"/>
      <point x="487" y="91" type="curve" smooth="yes"/>
      <point x="477" y="98"/>
      <point x="469" y="100"/>
      <point x="442" y="100" type="curve" smooth="yes"/>
      <point x="434" y="100" type="line"/>
      <point x="446" y="121"/>
      <point x="453" y="139"/>
      <point x="464" y="180" type="curve"/>
      <point x="488" y="182"/>
      <point x="507" y="203"/>
      <point x="507" y="229" type="curve" smooth="yes"/>
      <point x="507" y="246"/>
      <point x="500" y="260"/>
      <point x="487" y="270" type="curve" smooth="yes"/>
      <point x="477" y="278"/>
      <point x="468" y="280"/>
      <point x="441" y="280" type="curve" smooth="yes"/>
      <point x="388" y="280" type="line"/>
    </contour>
    <contour>
      <point x="312" y="100" type="line"/>
      <point x="293" y="89"/>
      <point x="282" y="86"/>
      <point x="257" y="86" type="curve" smooth="yes"/>
      <point x="202" y="86"/>
      <point x="175" y="105"/>
      <point x="175" y="144" type="curve" smooth="yes"/>
      <point x="175" y="177"/>
      <point x="193" y="204"/>
      <point x="228" y="220" type="curve"/>
    </contour>
  </outline>
</glyph>
<glyph name="quotesingle" format="1">
  <advance width="600"/>
  <unicode hex="0027"/>
  <outline>
    <contour>
      <point x="236" y="602" type="line"/>
      <point x="270" y="347" type="line" smooth="yes"/>
      <point x="273" y="322"/>
      <point x="282" y="312"/>
      <point x="301" y="312" type="curve" smooth="yes"/>
      <point x="321" y="312"/>
      <point x="329" y="322"/>
      <point x="333" y="348" type="curve" smooth="yes"/>
      <point x="364" y="602" type="line"/>
    </contour>
  </outline>
</glyph>
<glyph name="parenleft" format="1">
  <advance width="600"/>
  <unicode hex="0028"/>
  <outline>
    <contour>
      <point x="437" y="632" type="curve" smooth="yes"/>
      <point x="415" y="632"/>
      <point x="403" y="623"/>
      <point x="380" y="587" type="curve" smooth="yes"/>
      <point x="307" y="478"/>
      <point x="264" y="350"/>
      <point x="264" y="243" type="curve" smooth="yes"/>
      <point x="264" y="133"/>
      <point x="300" y="18"/>
      <point x="371" y="-95" type="curve" smooth="yes"/>
      <point x="400" y="-142"/>
      <point x="413" y="-153"/>
      <point x="437" y="-153" type="curve" smooth="yes"/>
      <point x="466" y="-153"/>
      <point x="488" y="-131"/>
      <point x="488" y="-104" type="curve" smooth="yes"/>
      <point x="488" y="-92"/>
      <point x="486" y="-86"/>
      <point x="476" y="-70" type="curve" smooth="yes"/>
      <point x="407" y="42"/>
      <point x="375" y="138"/>
      <point x="375" y="240" type="curve" smooth="yes"/>
      <point x="375" y="341"/>
      <point x="406" y="437"/>
      <point x="476" y="549" type="curve" smooth="yes"/>
      <point x="486" y="565"/>
      <point x="488" y="571"/>
      <point x="488" y="583" type="curve" smooth="yes"/>
      <point x="488" y="610"/>
      <point x="466" y="632"/>
    </contour>
  </outline>
</glyph>
<glyph name="parenright" format="1">
  <advance width="600"/>
  <unicode hex="0029"/>
  <outline>
    <contour>
      <point x="168" y="632" type="curve" smooth="yes"/>
      <point x="139" y="632"/>
      <point x="117" y="610"/>
      <point x="117" y="583" type="curve" smooth="yes"/>
      <point x="117" y="571"/>
      <point x="119" y="565"/>
      <point x="129" y="549" type="curve" smooth="yes"/>
      <point x="198" y="437"/>
      <point x="230" y="341"/>
      <point x="230" y="239" type="curve" smooth="yes"/>
      <point x="230" y="138"/>
      <point x="199" y="42"/>
      <point x="129" y="-70" type="curve" smooth="yes"/>
      <point x="119" y="-86"/>
      <point x="117" y="-92"/>
      <point x="117" y="-104" type="curve" smooth="yes"/>
      <point x="117" y="-131"/>
      <point x="139" y="-153"/>
      <point x="168" y="-153" type="curve" smooth="yes"/>
      <point x="190" y="-153"/>
      <point x="202" y="-144"/>
      <point x="225" y="-109" type="curve" smooth="yes"/>
      <point x="298" y="1"/>
      <point x="341" y="129"/>
      <point x="341" y="236" type="curve" smooth="yes"/>
      <point x="341" y="346"/>
      <point x="305" y="461"/>
      <point x="234" y="574" type="curve" smooth="yes"/>
      <point x="205" y="621"/>
      <point x="192" y="632"/>
    </contour>
  </outline>
</glyph>
<glyph name="asterisk" format="1">
  <advance width="600"/>
  <unicode hex="002A"/>
  <outline>
    <contour>
      <point x="219" y="372" type="line"/>
      <point x="167" y="301" type="line" smooth="yes"/>
      <point x="152" y="279"/>
      <point x="148" y="271"/>
      <point x="148" y="258" type="curve" smooth="yes"/>
      <point x="148" y="231"/>
      <point x="171" y="208"/>
      <point x="198" y="208" type="curve" smooth="yes"/>
      <point x="218" y="208"/>
      <point x="228" y="214"/>
      <point x="248" y="242" type="curve" smooth="yes"/>
      <point x="300" y="314" type="line"/>
      <point x="352" y="242" type="line" smooth="yes"/>
      <point x="373" y="214"/>
      <point x="381" y="208"/>
      <point x="402" y="208" type="curve" smooth="yes"/>
      <point x="429" y="208"/>
      <point x="452" y="231"/>
      <point x="452" y="258" type="curve" smooth="yes"/>
      <point x="452" y="271"/>
      <point x="448" y="280"/>
      <point x="433" y="301" type="curve" smooth="yes"/>
      <point x="381" y="372" type="line"/>
      <point x="467" y="400" type="line" smooth="yes"/>
      <point x="503" y="411"/>
      <point x="517" y="426"/>
      <point x="517" y="452" type="curve" smooth="yes"/>
      <point x="517" y="478"/>
      <point x="494" y="502"/>
      <point x="469" y="502" type="curve" smooth="yes"/>
      <point x="460" y="502"/>
      <point x="457" y="501"/>
      <point x="436" y="495" type="curve" smooth="yes"/>
      <point x="350" y="467" type="line"/>
      <point x="350" y="556" type="line" smooth="yes"/>
      <point x="350" y="580"/>
      <point x="348" y="589"/>
      <point x="343" y="598" type="curve" smooth="yes"/>
      <point x="334" y="613"/>
      <point x="317" y="622"/>
      <point x="300" y="622" type="curve" smooth="yes"/>
      <point x="284" y="622"/>
      <point x="269" y="614"/>
      <point x="259" y="601" type="curve" smooth="yes"/>
      <point x="252" y="592"/>
      <point x="250" y="581"/>
      <point x="250" y="556" type="curve" smooth="yes"/>
      <point x="250" y="467" type="line"/>
      <point x="164" y="495" type="line" smooth="yes"/>
      <point x="143" y="501"/>
      <point x="140" y="502"/>
      <point x="130" y="502" type="curve" smooth="yes"/>
      <point x="105" y="502"/>
      <point x="83" y="479"/>
      <point x="83" y="452" type="curve" smooth="yes"/>
      <point x="83" y="425"/>
      <point x="96" y="411"/>
      <point x="133" y="400" type="curve" smooth="yes"/>
    </contour>
  </outline>
</glyph>
<glyph name="plus" format="1">
  <advance width="600"/>
  <unicode hex="002B"/>
  <outline>
    <contour>
      <point x="350" y="230" type="line"/>
      <point x="491" y="230" type="line" smooth="yes"/>
      <point x="514" y="230"/>
      <point x="526" y="232"/>
      <point x="534" y="237" type="curve" smooth="yes"/>
      <point x="549" y="246"/>
      <point x="558" y="263"/>
      <point x="558" y="280" type="curve" smooth="yes"/>
      <point x="558" y="296"/>
      <point x="550" y="311"/>
      <point x="537" y="321" type="curve" smooth="yes"/>
      <point x="527" y="328"/>
      <point x="519" y="330"/>
      <point x="491" y="330" type="curve" smooth="yes"/>
      <point x="350" y="330" type="line"/>
      <point x="350" y="494" type="line" smooth="yes"/>
      <point x="350" y="520"/>
      <point x="349" y="527"/>
      <point x="343" y="536" type="curve" smooth="yes"/>
      <point x="334" y="551"/>
      <point x="317" y="560"/>
      <point x="300" y="560" type="curve" smooth="yes"/>
      <point x="284" y="560"/>
      <point x="269" y="553"/>
      <point x="260" y="539" type="curve"/>
      <point x="252" y="530"/>
      <point x="250" y="520"/>
      <point x="250" y="494" type="curve" smooth="yes"/>
      <point x="250" y="330" type="line"/>
      <point x="108" y="330" type="line" smooth="yes"/>
      <point x="83" y="330"/>
      <point x="75" y="329"/>
      <point x="66" y="323" type="curve" smooth="yes"/>
      <point x="51" y="314"/>
      <point x="42" y="297"/>
      <point x="42" y="280" type="curve" smooth="yes"/>
      <point x="42" y="264"/>
      <point x="50" y="249"/>
      <point x="63" y="239" type="curve" smooth="yes"/>
      <point x="72" y="232"/>
      <point x="84" y="230"/>
      <point x="108" y="230" type="curve" smooth="yes"/>
      <point x="250" y="230" type="line"/>
      <point x="250" y="66" type="line" smooth="yes"/>
      <point x="250" y="43"/>
      <point x="252" y="33"/>
      <point x="257" y="24" type="curve" smooth="yes"/>
      <point x="266" y="9"/>
      <point x="283" y="0"/>
      <point x="300" y="0" type="curve" smooth="yes"/>
      <point x="316" y="0"/>
      <point x="331" y="8"/>
      <point x="341" y="21" type="curve" smooth="yes"/>
      <point x="348" y="31"/>
      <point x="350" y="39"/>
      <point x="350" y="66" type="curve" smooth="yes"/>
    </contour>
  </outline>
</glyph>
<glyph name="hyphen" format="1">
  <advance width="600"/>
  <unicode hex="002D"/>
  <outline>
    <contour>
      <point x="492" y="229" type="line" smooth="yes"/>
      <point x="514" y="229"/>
      <point x="526" y="231"/>
      <point x="534" y="236" type="curve" smooth="yes"/>
      <point x="549" y="245"/>
      <point x="558" y="262"/>
      <point x="558" y="279" type="curve" smooth="yes"/>
      <point x="558" y="295"/>
      <point x="551" y="310"/>
      <point x="538" y="320" type="curve" smooth="yes"/>
      <point x="528" y="327"/>
      <point x="518" y="329"/>
      <point x="492" y="329" type="curve" smooth="yes"/>
      <point x="108" y="329" type="line" smooth="yes"/>
      <point x="83" y="329"/>
      <point x="75" y="328"/>
      <point x="66" y="322" type="curve" smooth="yes"/>
      <point x="51" y="312"/>
      <point x="42" y="296"/>
      <point x="42" y="279" type="curve" smooth="yes"/>
      <point x="42" y="263"/>
      <point x="50" y="248"/>
      <point x="63" y="238" type="curve" smooth="yes"/>
      <point x="72" y="231"/>
      <point x="83" y="229"/>
      <point x="108" y="229" type="curve" smooth="yes"/>
    </contour>
  </outline>
</glyph>
<glyph name="period" format="1">
  <advance width="600"/>
  <unicode hex="002E"/>
  <outline>
    <contour>
      <point x="309" y="-15" type="line" smooth="yes"/>
      <point x="346" y="-15"/>
      <point x="375" y="14"/>
      <point x="375" y="51" type="curve" smooth="yes"/>
      <point x="375" y="88"/>
      <point x="346" y="117"/>
      <point x="309" y="117" type="curve" smooth="yes"/>
      <point x="291" y="117" type="line" smooth="yes"/>
      <point x="255" y="117"/>
      <point x="225" y="87"/>
      <point x="225" y="51" type="curve" smooth="yes"/>
      <point x="225" y="15"/>
      <point x="255" y="-15"/>
      <point x="291" y="-15" type="curve" smooth="yes"/>
    </contour>
  </outline>
</glyph>
<glyph name="slash" format="1">
  <advance width="600"/>
  <unicode hex="002F"/>
  <outline>
    <contour>
      <point x="505" y="610" type="line" smooth="yes"/>
      <point x="515" y="630"/>
      <point x="517" y="636"/>
      <point x="517" y="647" type="curve" smooth="yes"/>
      <point x="517" y="672"/>
      <point x="494" y="695"/>
      <point x="467" y="695" type="curve" smooth="yes"/>
      <point x="444" y="695"/>
      <point x="431" y="685"/>
      <point x="416" y="651" type="curve" smooth="yes"/>
      <point x="95" y="-27" type="line" smooth="yes"/>
      <point x="86" y="-45"/>
      <point x="83" y="-55"/>
      <point x="83" y="-65" type="curve" smooth="yes"/>
      <point x="83" y="-90"/>
      <point x="107" y="-113"/>
      <point x="133" y="-113" type="curve" smooth="yes"/>
      <point x="157" y="-113"/>
      <point x="170" y="-103"/>
      <point x="185" y="-69" type="curve" smooth="yes"/>
    </contour>
  </outline>
</glyph>
<glyph name="zero" format="1">
  <advance width="600"/>
  <unicode hex="0030"/>
  <outline>
    <contour>
      <point x="517" y="359" type="line" smooth="yes"/>
      <point x="517" y="450"/>
      <point x="489" y="531"/>
      <point x="439" y="583" type="curve" smooth="yes"/>
      <point x="405" y="619"/>
      <point x="357" y="638"/>
      <point x="300" y="638" type="curve" smooth="yes"/>
      <point x="243" y="638"/>
      <point x="195" y="619"/>
      <point x="161" y="583" type="curve" smooth="yes"/>
      <point x="111" y="531"/>
      <point x="83" y="450"/>
      <point x="83" y="359" type="curve" smooth="yes"/>
      <point x="83" y="264" type="line" smooth="yes"/>
      <point x="83" y="173"/>
      <point x="111" y="92"/>
      <point x="161" y="40" type="curve" smooth="yes"/>
      <point x="195" y="4"/>
      <point x="243" y="-15"/>
      <point x="300" y="-15" type="curve" smooth="yes"/>
      <point x="357" y="-15"/>
      <point x="405" y="4"/>
      <point x="439" y="40" type="curve" smooth="yes"/>
      <point x="489" y="92"/>
      <point x="517" y="173"/>
      <point x="517" y="264" type="curve" smooth="yes"/>
    </contour>
    <contour>
      <point x="183" y="366" type="line" smooth="yes"/>
      <point x="183" y="470"/>
      <point x="229" y="538"/>
      <point x="300" y="538" type="curve" smooth="yes"/>
      <point x="371" y="538"/>
      <point x="417" y="470"/>
      <point x="417" y="366" type="curve" smooth="yes"/>
      <point x="417" y="257" type="line" smooth="yes"/>
      <point x="417" y="153"/>
      <point x="371" y="85"/>
      <point x="300" y="85" type="curve" smooth="yes"/>
      <point x="229" y="85"/>
      <point x="183" y="153"/>
      <point x="183" y="257" type="curve" smooth="yes"/>
    </contour>
  </outline>
</glyph>
<glyph name="one" format="1">
  <advance width="600"/>
  <unicode hex="0031"/>
  <outline>
    <contour>
      <point x="350" y="638" type="line"/>
      <point x="138" y="583" type="line" smooth="yes"/>
      <point x="98" y="573"/>
      <point x="85" y="561"/>
      <point x="85" y="532" type="curve" smooth="yes"/>
      <point x="85" y="503"/>
      <point x="105" y="480"/>
      <point x="131" y="480" type="curve" smooth="yes"/>
      <point x="141" y="480"/>
      <point x="144" y="481"/>
      <point x="163" y="486" type="curve" smooth="yes"/>
      <point x="250" y="509" type="line"/>
      <point x="250" y="100" type="line"/>
      <point x="149" y="100" type="line" smooth="yes"/>
      <point x="123" y="100"/>
      <point x="116" y="99"/>
      <point x="107" y="93" type="curve" smooth="yes"/>
      <point x="92" y="84"/>
      <point x="83" y="67"/>
      <point x="83" y="50" type="curve" smooth="yes"/>
      <point x="83" y="35"/>
      <point x="91" y="19"/>
      <point x="104" y="10" type="curve"/>
      <point x="112" y="3"/>
      <point x="126" y="0"/>
      <point x="149" y="0" type="curve" smooth="yes"/>
      <point x="451" y="0" type="line" smooth="yes"/>
      <point x="471" y="0"/>
      <point x="486" y="3"/>
      <point x="493" y="7" type="curve"/>
      <point x="508" y="17"/>
      <point x="517" y="33"/>
      <point x="517" y="50" type="curve" smooth="yes"/>
      <point x="517" y="66"/>
      <point x="509" y="81"/>
      <point x="496" y="91" type="curve" smooth="yes"/>
      <point x="486" y="98"/>
      <point x="478" y="100"/>
      <point x="451" y="100" type="curve" smooth="yes"/>
      <point x="350" y="100" type="line"/>
    </contour>
  </outline>
</glyph>
<glyph name="two" format="1">
  <advance width="600"/>
  <unicode hex="0032"/>
  <outline>
    <contour>
      <point x="207" y="100" type="line"/>
      <point x="295" y="176"/>
      <point x="353" y="226"/>
      <point x="380" y="251" type="curve" smooth="yes"/>
      <point x="479" y="341"/>
      <point x="503" y="379"/>
      <point x="503" y="444" type="curve" smooth="yes"/>
      <point x="503" y="555"/>
      <point x="412" y="638"/>
      <point x="290" y="638" type="curve" smooth="yes"/>
      <point x="231" y="638"/>
      <point x="174" y="618"/>
      <point x="134" y="582" type="curve" smooth="yes"/>
      <point x="100" y="551"/>
      <point x="74" y="502"/>
      <point x="74" y="470" type="curve" smooth="yes"/>
      <point x="74" y="444"/>
      <point x="97" y="422"/>
      <point x="124" y="422" type="curve" smooth="yes"/>
      <point x="145" y="422"/>
      <point x="164" y="434"/>
      <point x="169" y="451" type="curve" smooth="yes"/>
      <point x="180" y="483"/>
      <point x="181" y="485"/>
      <point x="191" y="497" type="curve" smooth="yes"/>
      <point x="213" y="523"/>
      <point x="248" y="538"/>
      <point x="288" y="538" type="curve" smooth="yes"/>
      <point x="353" y="538"/>
      <point x="403" y="499"/>
      <point x="403" y="448" type="curve" smooth="yes"/>
      <point x="403" y="414"/>
      <point x="386" y="392"/>
      <point x="286" y="301" type="curve" smooth="yes"/>
      <point x="241" y="260"/>
      <point x="222" y="244"/>
      <point x="54" y="105" type="curve"/>
      <point x="54" y="0" type="line"/>
      <point x="508" y="0" type="line"/>
      <point x="508" y="88" type="line" smooth="yes"/>
      <point x="508" y="112"/>
      <point x="506" y="121"/>
      <point x="501" y="130" type="curve" smooth="yes"/>
      <point x="492" y="145"/>
      <point x="475" y="154"/>
      <point x="458" y="154" type="curve" smooth="yes"/>
      <point x="427" y="154"/>
      <point x="411" y="136"/>
      <point x="408" y="100" type="curve"/>
    </contour>
  </outline>
</glyph>
<glyph name="three" format="1">
  <advance width="600"/>
  <unicode hex="0033"/>
  <outline>
    <contour>
      <point x="276" y="383" type="line" smooth="yes"/>
      <point x="246" y="383"/>
      <point x="224" y="362"/>
      <point x="224" y="333" type="curve" smooth="yes"/>
      <point x="224" y="306"/>
      <point x="243" y="289"/>
      <point x="276" y="287" type="curve" smooth="yes"/>
      <point x="319" y="285"/>
      <point x="332" y="283"/>
      <point x="353" y="274" type="curve" smooth="yes"/>
      <point x="400" y="255"/>
      <point x="429" y="220"/>
      <point x="429" y="183" type="curve" smooth="yes"/>
      <point x="429" y="160"/>
      <point x="418" y="135"/>
      <point x="401" y="119" type="curve" smooth="yes"/>
      <point x="374" y="95"/>
      <point x="337" y="85"/>
      <point x="268" y="85" type="curve" smooth="yes"/>
      <point x="204" y="85"/>
      <point x="174" y="91"/>
      <point x="148" y="108" type="curve" smooth="yes"/>
      <point x="132" y="118"/>
      <point x="128" y="120"/>
      <point x="116" y="120" type="curve" smooth="yes"/>
      <point x="88" y="120"/>
      <point x="66" y="98"/>
      <point x="66" y="70" type="curve" smooth="yes"/>
      <point x="66" y="19"/>
      <point x="148" y="-15"/>
      <point x="271" y="-15" type="curve" smooth="yes"/>
      <point x="358" y="-15"/>
      <point x="411" y="-1"/>
      <point x="455" y="32" type="curve" smooth="yes"/>
      <point x="501" y="68"/>
      <point x="529" y="124"/>
      <point x="529" y="182" type="curve" smooth="yes"/>
      <point x="529" y="246"/>
      <point x="492" y="296"/>
      <point x="416" y="333" type="curve"/>
      <point x="481" y="372"/>
      <point x="507" y="409"/>
      <point x="507" y="464" type="curve" smooth="yes"/>
      <point x="507" y="505"/>
      <point x="489" y="549"/>
      <point x="457" y="580" type="curve" smooth="yes"/>
      <point x="419" y="619"/>
      <point x="367" y="638"/>
      <point x="301" y="638" type="curve" smooth="yes"/>
      <point x="194" y="638"/>
      <point x="95" y="585"/>
      <point x="95" y="527" type="curve" smooth="yes"/>
      <point x="95" y="500"/>
      <point x="117" y="477"/>
      <point x="144" y="477" type="curve" smooth="yes"/>
      <point x="158" y="477"/>
      <point x="171" y="483"/>
      <point x="180" y="492" type="curve" smooth="yes"/>
      <point x="212" y="527"/>
      <point x="240" y="538"/>
      <point x="295" y="538" type="curve" smooth="yes"/>
      <point x="364" y="538"/>
      <point x="407" y="509"/>
      <point x="407" y="462" type="curve" smooth="yes"/>
      <point x="407" y="420"/>
      <point x="365" y="383"/>
      <point x="316" y="383" type="curve" smooth="yes"/>
    </contour>
  </outline>
</glyph>
<glyph name="four" format="1">
  <advance width="600"/>
  <unicode hex="0034"/>
  <outline>
    <contour>
      <point x="447" y="622" type="line"/>
      <point x="316" y="622" type="line"/>
      <point x="75" y="221" type="line"/>
      <point x="75" y="138" type="line"/>
      <point x="347" y="138" type="line"/>
      <point x="347" y="100" type="line"/>
      <point x="309" y="100" type="line" smooth="yes"/>
      <point x="285" y="100"/>
      <point x="276" y="99"/>
      <point x="267" y="93" type="curve" smooth="yes"/>
      <point x="252" y="84"/>
      <point x="243" y="67"/>
      <point x="243" y="50" type="curve" smooth="yes"/>
      <point x="243" y="35"/>
      <point x="251" y="19"/>
      <point x="264" y="10" type="curve"/>
      <point x="272" y="3"/>
      <point x="286" y="0"/>
      <point x="309" y="0" type="curve" smooth="yes"/>
      <point x="441" y="0" type="line" smooth="yes"/>
      <point x="462" y="0"/>
      <point x="477" y="3"/>
      <point x="484" y="7" type="curve"/>
      <point x="499" y="17"/>
      <point x="508" y="33"/>
      <point x="508" y="50" type="curve" smooth="yes"/>
      <point x="508" y="82"/>
      <point x="486" y="100"/>
      <point x="447" y="100" type="curve"/>
      <point x="447" y="138" type="line"/>
      <point x="487" y="139"/>
      <point x="508" y="156"/>
      <point x="508" y="188" type="curve" smooth="yes"/>
      <point x="508" y="220"/>
      <point x="486" y="238"/>
      <point x="447" y="238" type="curve"/>
    </contour>
    <contour>
      <point x="347" y="238" type="line"/>
      <point x="197" y="238" type="line"/>
      <point x="347" y="480" type="line"/>
    </contour>
  </outline>
</glyph>
<glyph name="five" format="1">
  <advance width="600"/>
  <unicode hex="0035"/>
  <outline>
    <contour>
      <point x="219" y="522" type="line"/>
      <point x="421" y="522" type="line" smooth="yes"/>
      <point x="442" y="522"/>
      <point x="456" y="524"/>
      <point x="463" y="529" type="curve"/>
      <point x="478" y="538"/>
      <point x="487" y="555"/>
      <point x="487" y="572" type="curve" smooth="yes"/>
      <point x="487" y="588"/>
      <point x="479" y="603"/>
      <point x="467" y="613" type="curve"/>
      <point x="456" y="620"/>
      <point x="448" y="622"/>
      <point x="421" y="622" type="curve" smooth="yes"/>
      <point x="119" y="622" type="line"/>
      <point x="119" y="338" type="line" smooth="yes"/>
      <point x="119" y="306"/>
      <point x="140" y="282"/>
      <point x="169" y="282" type="curve" smooth="yes"/>
      <point x="178" y="282"/>
      <point x="184" y="284"/>
      <point x="197" y="290" type="curve" smooth="yes"/>
      <point x="240" y="312"/>
      <point x="284" y="324"/>
      <point x="317" y="324" type="curve" smooth="yes"/>
      <point x="384" y="324"/>
      <point x="429" y="275"/>
      <point x="429" y="201" type="curve" smooth="yes"/>
      <point x="429" y="122"/>
      <point x="381" y="85"/>
      <point x="277" y="85" type="curve" smooth="yes"/>
      <point x="212" y="85"/>
      <point x="182" y="93"/>
      <point x="152" y="118" type="curve" smooth="yes"/>
      <point x="137" y="130"/>
      <point x="130" y="133"/>
      <point x="116" y="133" type="curve" smooth="yes"/>
      <point x="89" y="133"/>
      <point x="66" y="111"/>
      <point x="66" y="84" type="curve" smooth="yes"/>
      <point x="66" y="28"/>
      <point x="158" y="-15"/>
      <point x="278" y="-15" type="curve" smooth="yes"/>
      <point x="372" y="-15"/>
      <point x="430" y="5"/>
      <point x="474" y="53" type="curve" smooth="yes"/>
      <point x="510" y="92"/>
      <point x="529" y="144"/>
      <point x="529" y="202" type="curve" smooth="yes"/>
      <point x="529" y="330"/>
      <point x="439" y="424"/>
      <point x="318" y="424" type="curve" smooth="yes"/>
      <point x="289" y="424"/>
      <point x="255" y="418"/>
      <point x="219" y="407" type="curve"/>
    </contour>
  </outline>
</glyph>
<glyph name="six" format="1">
  <advance width="600"/>
  <unicode hex="0036"/>
  <outline>
    <contour>
      <point x="208" y="324" type="curve"/>
      <point x="231" y="447"/>
      <point x="323" y="535"/>
      <point x="429" y="535" type="curve" smooth="yes"/>
      <point x="438" y="535"/>
      <point x="443" y="534"/>
      <point x="454" y="530" type="curve" smooth="yes"/>
      <point x="470" y="524"/>
      <point x="480" y="522"/>
      <point x="489" y="522" type="curve" smooth="yes"/>
      <point x="517" y="522"/>
      <point x="540" y="545"/>
      <point x="540" y="573" type="curve" smooth="yes"/>
      <point x="540" y="612"/>
      <point x="493" y="638"/>
      <point x="423" y="638" type="curve" smooth="yes"/>
      <point x="331" y="638"/>
      <point x="249" y="596"/>
      <point x="182" y="514" type="curve" smooth="yes"/>
      <point x="131" y="450"/>
      <point x="105" y="374"/>
      <point x="105" y="285" type="curve" smooth="yes"/>
      <point x="105" y="213"/>
      <point x="123" y="135"/>
      <point x="149" y="87" type="curve" smooth="yes"/>
      <point x="187" y="19"/>
      <point x="248" y="-15"/>
      <point x="331" y="-15" type="curve" smooth="yes"/>
      <point x="398" y="-15"/>
      <point x="447" y="4"/>
      <point x="483" y="44" type="curve" smooth="yes"/>
      <point x="517" y="81"/>
      <point x="535" y="132"/>
      <point x="535" y="189" type="curve" smooth="yes"/>
      <point x="535" y="302"/>
      <point x="450" y="394"/>
      <point x="345" y="394" type="curve" smooth="yes"/>
      <point x="294" y="394"/>
      <point x="256" y="375"/>
    </contour>
    <contour>
      <point x="218" y="209" type="curve"/>
      <point x="245" y="258"/>
      <point x="295" y="294"/>
      <point x="338" y="294" type="curve" smooth="yes"/>
      <point x="392" y="294"/>
      <point x="435" y="248"/>
      <point x="435" y="190" type="curve" smooth="yes"/>
      <point x="435" y="125"/>
      <point x="397" y="85"/>
      <point x="334" y="85" type="curve" smooth="yes"/>
      <point x="269" y="85"/>
      <point x="233" y="122"/>
    </contour>
  </outline>
</glyph>
<glyph name="seven" format="1">
  <advance width="600"/>
  <unicode hex="0037"/>
  <outline>
    <contour>
      <point x="403" y="522" type="line"/>
      <point x="253" y="81" type="line" smooth="yes"/>
      <point x="248" y="64"/>
      <point x="246" y="56"/>
      <point x="246" y="47" type="curve" smooth="yes"/>
      <point x="246" y="21"/>
      <point x="270" y="-1"/>
      <point x="297" y="-1" type="curve" smooth="yes"/>
      <point x="323" y="-1"/>
      <point x="336" y="12"/>
      <point x="349" y="48" type="curve" smooth="yes"/>
      <point x="508" y="523" type="line"/>
      <point x="508" y="622" type="line"/>
      <point x="75" y="622" type="line"/>
      <point x="75" y="534" type="line" smooth="yes"/>
      <point x="75" y="510"/>
      <point x="77" y="501"/>
      <point x="82" y="492" type="curve" smooth="yes"/>
      <point x="91" y="477"/>
      <point x="108" y="468"/>
      <point x="125" y="468" type="curve" smooth="yes"/>
      <point x="156" y="468"/>
      <point x="172" y="486"/>
      <point x="175" y="522" type="curve"/>
    </contour>
  </outline>
</glyph>
<glyph name="eight" format="1">
  <advance width="600"/>
  <unicode hex="0038"/>
  <outline>
    <contour>
      <point x="420" y="319" type="curve"/>
      <point x="480" y="359"/>
      <point x="508" y="402"/>
      <point x="508" y="457" type="curve" smooth="yes"/>
      <point x="508" y="557"/>
      <point x="415" y="638"/>
      <point x="300" y="638" type="curve" smooth="yes"/>
      <point x="184" y="638"/>
      <point x="92" y="557"/>
      <point x="92" y="455" type="curve" smooth="yes"/>
      <point x="92" y="402"/>
      <point x="120" y="359"/>
      <point x="180" y="319" type="curve"/>
      <point x="116" y="279"/>
      <point x="83" y="227"/>
      <point x="83" y="165" type="curve" smooth="yes"/>
      <point x="83" y="58"/>
      <point x="171" y="-15"/>
      <point x="299" y="-15" type="curve" smooth="yes"/>
      <point x="429" y="-15"/>
      <point x="517" y="58"/>
      <point x="517" y="165" type="curve" smooth="yes"/>
      <point x="517" y="227"/>
      <point x="484" y="279"/>
    </contour>
    <contour>
      <point x="300" y="538" type="curve" smooth="yes"/>
      <point x="364" y="538"/>
      <point x="408" y="502"/>
      <point x="408" y="450" type="curve" smooth="yes"/>
      <point x="408" y="400"/>
      <point x="363" y="364"/>
      <point x="300" y="364" type="curve" smooth="yes"/>
      <point x="237" y="364"/>
      <point x="192" y="400"/>
      <point x="192" y="451" type="curve" smooth="yes"/>
      <point x="192" y="502"/>
      <point x="236" y="538"/>
    </contour>
    <contour>
      <point x="300" y="263" type="curve" smooth="yes"/>
      <point x="366" y="263"/>
      <point x="417" y="223"/>
      <point x="417" y="172" type="curve" smooth="yes"/>
      <point x="417" y="122"/>
      <point x="368" y="85"/>
      <point x="300" y="85" type="curve" smooth="yes"/>
      <point x="232" y="85"/>
      <point x="183" y="122"/>
      <point x="183" y="173" type="curve" smooth="yes"/>
      <point x="183" y="223"/>
      <point x="236" y="263"/>
    </contour>
  </outline>
</glyph>
<glyph name="nine" format="1">
  <advance width="600"/>
  <unicode hex="0039"/>
  <outline>
    <contour>
      <point x="438" y="299" type="curve"/>
      <point x="415" y="176"/>
      <point x="323" y="88"/>
      <point x="217" y="88" type="curve" smooth="yes"/>
      <point x="208" y="88"/>
      <point x="203" y="89"/>
      <point x="192" y="93" type="curve" smooth="yes"/>
      <point x="176" y="99"/>
      <point x="166" y="101"/>
      <point x="157" y="101" type="curve" smooth="yes"/>
      <point x="129" y="101"/>
      <point x="106" y="78"/>
      <point x="106" y="50" type="curve" smooth="yes"/>
      <point x="106" y="11"/>
      <point x="153" y="-15"/>
      <point x="223" y="-15" type="curve" smooth="yes"/>
      <point x="315" y="-15"/>
      <point x="397" y="27"/>
      <point x="464" y="109" type="curve" smooth="yes"/>
      <point x="515" y="173"/>
      <point x="541" y="250"/>
      <point x="541" y="338" type="curve" smooth="yes"/>
      <point x="541" y="409"/>
      <point x="523" y="489"/>
      <point x="497" y="536" type="curve" smooth="yes"/>
      <point x="459" y="604"/>
      <point x="398" y="638"/>
      <point x="315" y="638" type="curve" smooth="yes"/>
      <point x="248" y="638"/>
      <point x="199" y="619"/>
      <point x="163" y="579" type="curve" smooth="yes"/>
      <point x="129" y="542"/>
      <point x="111" y="491"/>
      <point x="111" y="434" type="curve" smooth="yes"/>
      <point x="111" y="321"/>
      <point x="196" y="229"/>
      <point x="302" y="229" type="curve" smooth="yes"/>
      <point x="352" y="229"/>
      <point x="390" y="248"/>
    </contour>
    <contour>
      <point x="428" y="414" type="curve"/>
      <point x="401" y="365"/>
      <point x="351" y="329"/>
      <point x="308" y="329" type="curve" smooth="yes"/>
      <point x="254" y="329"/>
      <point x="211" y="375"/>
      <point x="211" y="433" type="curve" smooth="yes"/>
      <point x="211" y="498"/>
      <point x="249" y="538"/>
      <point x="312" y="538" type="curve" smooth="yes"/>
      <point x="377" y="538"/>
      <point x="413" y="501"/>
    </contour>
  </outline>
</glyph>
<glyph name="colon" format="1">
  <advance width="600"/>
  <unicode hex="003A"/>
  <outline>
    <contour>
      <point x="309" y="-15" type="line" smooth="yes"/>
      <point x="346" y="-15"/>
      <point x="375" y="14"/>
      <point x="375" y="51" type="curve" smooth="yes"/>
      <point x="375" y="88"/>
      <point x="346" y="117"/>
      <point x="309" y="117" type="curve" smooth="yes"/>
      <point x="291" y="117" type="line" smooth="yes"/>
      <point x="255" y="117"/>
      <point x="225" y="87"/>
      <point x="225" y="51" type="curve" smooth="yes"/>
      <point x="225" y="15"/>
      <point x="255" y="-15"/>
      <point x="291" y="-15" type="curve" smooth="yes"/>
    </contour>
    <contour>
      <point x="309" y="304" type="line" smooth="yes"/>
      <point x="346" y="304"/>
      <point x="375" y="333"/>
      <point x="375" y="370" type="curve" smooth="yes"/>
      <point x="375" y="408"/>
      <point x="346" y="437"/>
      <point x="309" y="437" type="curve" smooth="yes"/>
      <point x="291" y="437" type="line" smooth="yes"/>
      <point x="255" y="437"/>
      <point x="225" y="407"/>
      <point x="225" y="370" type="curve" smooth="yes"/>
      <point x="225" y="334"/>
      <point x="255" y="304"/>
      <point x="291" y="304" type="curve" smooth="yes"/>
    </contour>
  </outline>
</glyph>
<glyph name="semicolon" format="1">
  <advance width="600"/>
  <unicode hex="003B"/>
  <outline>
    <contour>
      <point x="219" y="134" type="line"/>
      <point x="150" y="-111" type="line" smooth="yes"/>
      <point x="147" y="-122"/>
      <point x="147" y="-124"/>
      <point x="147" y="-130" type="curve" smooth="yes"/>
      <point x="147" y="-145"/>
      <point x="161" y="-158"/>
      <point x="178" y="-158" type="curve" smooth="yes"/>
      <point x="190" y="-158"/>
      <point x="202" y="-150"/>
      <point x="210" y="-134" type="curve" smooth="yes"/>
      <point x="351" y="134" type="line"/>
    </contour>
    <contour>
      <point x="276" y="437" type="curve" smooth="yes"/>
      <point x="231" y="437"/>
      <point x="201" y="410"/>
      <point x="201" y="371" type="curve" smooth="yes"/>
      <point x="201" y="331"/>
      <point x="231" y="304"/>
      <point x="276" y="304" type="curve" smooth="yes"/>
      <point x="321" y="304"/>
      <point x="351" y="330"/>
      <point x="351" y="370" type="curve" smooth="yes"/>
      <point x="351" y="411"/>
      <point x="322" y="437"/>
    </contour>
  </outline>
</glyph>
<glyph name="less" format="1">
  <advance width="600"/>
  <unicode hex="003C"/>
  <outline>
    <contour>
      <point x="251" y="279" type="line"/>
      <point x="512" y="412" type="line" smooth="yes"/>
      <point x="535" y="424"/>
      <point x="544" y="436"/>
      <point x="544" y="455" type="curve" smooth="yes"/>
      <point x="544" y="461"/>
      <point x="542" y="468"/>
      <point x="539" y="474" type="curve" smooth="yes"/>
      <point x="538" y="476" type="line"/>
      <point x="532" y="490"/>
      <point x="516" y="501"/>
      <point x="502" y="501" type="curve" smooth="yes"/>
      <point x="494" y="501"/>
      <point x="484" y="498"/>
      <point x="472" y="492" type="curve" smooth="yes"/>
      <point x="42" y="280" type="line"/>
      <point x="472" y="63" type="line" smooth="yes"/>
      <point x="483" y="57"/>
      <point x="494" y="54"/>
      <point x="502" y="54" type="curve" smooth="yes"/>
      <point x="516" y="54"/>
      <point x="532" y="65"/>
      <point x="538" y="79" type="curve"/>
      <point x="539" y="81" type="line"/>
      <point x="542" y="88"/>
      <point x="544" y="95"/>
      <point x="544" y="100" type="curve" smooth="yes"/>
      <point x="544" y="119"/>
      <point x="535" y="131"/>
      <point x="512" y="143" type="curve" smooth="yes"/>
    </contour>
  </outline>
</glyph>
<glyph name="equal" format="1">
  <advance width="600"/>
  <unicode hex="003D"/>
  <outline>
    <contour>
      <point x="108" y="422" type="line" smooth="yes"/>
      <point x="83" y="422"/>
      <point x="75" y="421"/>
      <point x="66" y="415" type="curve" smooth="yes"/>
      <point x="51" y="406"/>
      <point x="42" y="389"/>
      <point x="42" y="372" type="curve" smooth="yes"/>
      <point x="42" y="356"/>
      <point x="50" y="341"/>
      <point x="63" y="332" type="curve"/>
      <point x="72" y="324"/>
      <point x="84" y="322"/>
      <point x="108" y="322" type="curve" smooth="yes"/>
      <point x="492" y="322" type="line" smooth="yes"/>
      <point x="514" y="322"/>
      <point x="526" y="324"/>
      <point x="534" y="329" type="curve" smooth="yes"/>
      <point x="549" y="338"/>
      <point x="558" y="355"/>
      <point x="558" y="372" type="curve" smooth="yes"/>
      <point x="558" y="388"/>
      <point x="550" y="403"/>
      <point x="537" y="413" type="curve" smooth="yes"/>
      <point x="527" y="420"/>
      <point x="519" y="422"/>
      <point x="492" y="422" type="curve" smooth="yes"/>
    </contour>
    <contour>
      <point x="108" y="238" type="line" smooth="yes"/>
      <point x="83" y="238"/>
      <point x="75" y="237"/>
      <point x="66" y="231" type="curve" smooth="yes"/>
      <point x="51" y="222"/>
      <point x="42" y="205"/>
      <point x="42" y="188" type="curve" smooth="yes"/>
      <point x="42" y="172"/>
      <point x="50" y="157"/>
      <point x="63" y="148" type="curve"/>
      <point x="72" y="140"/>
      <point x="84" y="138"/>
      <point x="108" y="138" type="curve" smooth="yes"/>
      <point x="492" y="138" type="line" smooth="yes"/>
      <point x="514" y="138"/>
      <point x="526" y="140"/>
      <point x="534" y="145" type="curve" smooth="yes"/>
      <point x="549" y="154"/>
      <point x="558" y="171"/>
      <point x="558" y="188" type="curve" smooth="yes"/>
      <point x="558" y="204"/>
      <point x="550" y="219"/>
      <point x="537" y="229" type="curve" smooth="yes"/>
      <point x="527" y="236"/>
      <point x="519" y="238"/>
      <point x="492" y="238" type="curve" smooth="yes"/>
    </contour>
  </outline>
</glyph>
<glyph name="greater" format="1">
  <advance width="600"/>
  <unicode hex="003E"/>
  <outline>
    <contour>
      <point x="349" y="275" type="line"/>
      <point x="88" y="142" type="line" smooth="yes"/>
      <point x="65" y="130"/>
      <point x="56" y="118"/>
      <point x="56" y="100" type="curve" smooth="yes"/>
      <point x="56" y="93"/>
      <point x="58" y="87"/>
      <point x="61" y="80" type="curve"/>
      <point x="62" y="78" type="line"/>
      <point x="68" y="64"/>
      <point x="84" y="53"/>
      <point x="98" y="53" type="curve" smooth="yes"/>
      <point x="105" y="53"/>
      <point x="116" y="56"/>
      <point x="128" y="62" type="curve" smooth="yes"/>
      <point x="558" y="274" type="line"/>
      <point x="128" y="491" type="line" smooth="yes"/>
      <point x="117" y="497"/>
      <point x="106" y="500"/>
      <point x="98" y="500" type="curve" smooth="yes"/>
      <point x="84" y="500"/>
      <point x="67" y="488"/>
      <point x="62" y="475" type="curve"/>
      <point x="61" y="473" type="line"/>
      <point x="58" y="466"/>
      <point x="56" y="459"/>
      <point x="56" y="453" type="curve" smooth="yes"/>
      <point x="56" y="435"/>
      <point x="65" y="423"/>
      <point x="88" y="412" type="curve" smooth="yes"/>
    </contour>
  </outline>
</glyph>
<glyph name="question" format="1">
  <advance width="600"/>
  <unicode hex="003F"/>
  <outline>
    <contour>
      <point x="104" y="460" type="line" smooth="yes"/>
      <point x="104" y="437"/>
      <point x="106" y="426"/>
      <point x="111" y="418" type="curve" smooth="yes"/>
      <point x="120" y="404"/>
      <point x="137" y="394"/>
      <point x="154" y="394" type="curve" smooth="yes"/>
      <point x="169" y="394"/>
      <point x="185" y="402"/>
      <point x="195" y="415" type="curve" smooth="yes"/>
      <point x="202" y="424"/>
      <point x="204" y="434"/>
      <point x="204" y="460" type="curve" smooth="yes"/>
      <point x="204" y="474" type="line"/>
      <point x="237" y="490"/>
      <point x="271" y="498"/>
      <point x="309" y="498" type="curve" smooth="yes"/>
      <point x="373" y="498"/>
      <point x="417" y="464"/>
      <point x="417" y="414" type="curve" smooth="yes"/>
      <point x="417" y="371"/>
      <point x="381" y="345"/>
      <point x="253" y="296" type="curve"/>
      <point x="253" y="240" type="line" smooth="yes"/>
      <point x="253" y="217"/>
      <point x="255" y="207"/>
      <point x="260" y="198" type="curve" smooth="yes"/>
      <point x="269" y="183"/>
      <point x="286" y="174"/>
      <point x="303" y="174" type="curve" smooth="yes"/>
      <point x="332" y="174"/>
      <point x="349" y="192"/>
      <point x="353" y="228" type="curve"/>
      <point x="474" y="281"/>
      <point x="517" y="328"/>
      <point x="517" y="409" type="curve" smooth="yes"/>
      <point x="517" y="521"/>
      <point x="432" y="598"/>
      <point x="308" y="598" type="curve" smooth="yes"/>
      <point x="244" y="598"/>
      <point x="200" y="585"/>
      <point x="104" y="539" type="curve"/>
    </contour>
    <contour>
      <point x="311" y="-15" type="line" smooth="yes"/>
      <point x="348" y="-15"/>
      <point x="377" y="14"/>
      <point x="377" y="51" type="curve" smooth="yes"/>
      <point x="377" y="88"/>
      <point x="348" y="117"/>
      <point x="311" y="117" type="curve" smooth="yes"/>
      <point x="294" y="117" type="line" smooth="yes"/>
      <point x="257" y="117"/>
      <point x="227" y="87"/>
      <point x="227" y="51" type="curve" smooth="yes"/>
      <point x="227" y="15"/>
      <point x="257" y="-15"/>
      <point x="294" y="-15" type="curve" smooth="yes"/>
    </contour>
  </outline>
</glyph>
<glyph name="at" format="1">
  <advance width="600"/>
  <unicode hex="0040"/>
  <outline>
    <contour>
      <point x="407" y="397" type="line"/>
      <point x="295" y="389"/>
      <point x="218" y="319"/>
      <point x="218" y="226" type="curve" smooth="yes"/>
      <point x="218" y="143"/>
      <point x="289" y="72"/>
      <point x="374" y="72" type="curve" smooth="yes"/>
      <point x="383" y="72"/>
      <point x="392" y="73"/>
      <point x="407" y="75" type="curve"/>
      <point x="407" y="72" type="line"/>
      <point x="454" y="72" type="line" smooth="yes"/>
      <point x="491" y="72"/>
      <point x="509" y="85"/>
      <point x="509" y="113" type="curve" smooth="yes"/>
      <point x="509" y="130"/>
      <point x="502" y="141"/>
      <point x="486" y="148" type="curve"/>
      <point x="486" y="429" type="line" smooth="yes"/>
      <point x="486" y="540"/>
      <point x="409" y="620"/>
      <point x="301" y="620" type="curve" smooth="yes"/>
      <point x="171" y="620"/>
      <point x="76" y="495"/>
      <point x="76" y="323" type="curve" smooth="yes"/>
      <point x="76" y="154" type="line" smooth="yes"/>
      <point x="76" y="81"/>
      <point x="93" y="9"/>
      <point x="123" y="-45" type="curve" smooth="yes"/>
      <point x="165" y="-119"/>
      <point x="220" y="-152"/>
      <point x="302" y="-152" type="curve" smooth="yes"/>
      <point x="397" y="-152"/>
      <point x="479" y="-113"/>
      <point x="479" y="-66" type="curve" smooth="yes"/>
      <point x="479" y="-43"/>
      <point x="461" y="-25"/>
      <point x="439" y="-25" type="curve" smooth="yes"/>
      <point x="427" y="-25"/>
      <point x="422" y="-28"/>
      <point x="408" y="-42" type="curve" smooth="yes"/>
      <point x="389" y="-62"/>
      <point x="349" y="-74"/>
      <point x="305" y="-74" type="curve" smooth="yes"/>
      <point x="261" y="-74"/>
      <point x="230" y="-59"/>
      <point x="206" y="-24" type="curve" smooth="yes"/>
      <point x="172" y="23"/>
      <point x="155" y="85"/>
      <point x="155" y="161" type="curve" smooth="yes"/>
      <point x="155" y="317" type="line" smooth="yes"/>
      <point x="155" y="445"/>
      <point x="218" y="541"/>
      <point x="302" y="541" type="curve" smooth="yes"/>
      <point x="364" y="541"/>
      <point x="407" y="495"/>
      <point x="407" y="429" type="curve" smooth="yes"/>
    </contour>
    <contour>
      <point x="407" y="155" type="line"/>
      <point x="393" y="153"/>
      <point x="388" y="153"/>
      <point x="381" y="153" type="curve" smooth="yes"/>
      <point x="333" y="153"/>
      <point x="297" y="184"/>
      <point x="297" y="225" type="curve" smooth="yes"/>
      <point x="297" y="274"/>
      <point x="341" y="310"/>
      <point x="407" y="316" type="curve"/>
    </contour>
  </outline>
</glyph>
<glyph name="B" format="1">
  <advance width="600"/>
  <unicode hex="0042"/>
  <outline>
    <contour>
      <point x="94" y="100" type="line"/>
      <point x="79" y="100" type="line" smooth="yes"/>
      <point x="55" y="100"/>
      <point x="46" y="99"/>
      <point x="37" y="93" type="curve" smooth="yes"/>
      <point x="22" y="84"/>
      <point x="13" y="67"/>
      <point x="13" y="50" type="curve" smooth="yes"/>
      <point x="13" y="35"/>
      <point x="21" y="19"/>
      <point x="34" y="10" type="curve"/>
      <point x="42" y="3"/>
      <point x="56" y="0"/>
      <point x="79" y="0" type="curve" smooth="yes"/>
      <point x="374" y="0" type="line" smooth="yes"/>
      <point x="492" y="0"/>
      <point x="571" y="64"/>
      <point x="571" y="160" type="curve" smooth="yes"/>
      <point x="571" y="223"/>
      <point x="537" y="269"/>
      <point x="465" y="305" type="curve"/>
      <point x="509" y="339"/>
      <point x="528" y="372"/>
      <point x="528" y="418" type="curve" smooth="yes"/>
      <point x="528" y="513"/>
      <point x="445" y="583"/>
      <point x="332" y="583" type="curve" smooth="yes"/>
      <point x="79" y="583" type="line" smooth="yes"/>
      <point x="55" y="583"/>
      <point x="46" y="582"/>
      <point x="37" y="576" type="curve" smooth="yes"/>
      <point x="23" y="567"/>
      <point x="13" y="550"/>
      <point x="13" y="533" type="curve" smooth="yes"/>
      <point x="13" y="518"/>
      <point x="21" y="502"/>
      <point x="34" y="492" type="curve" smooth="yes"/>
      <point x="43" y="485"/>
      <point x="54" y="483"/>
      <point x="79" y="483" type="curve" smooth="yes"/>
      <point x="94" y="483" type="line"/>
    </contour>
    <contour>
      <point x="194" y="342" type="line"/>
      <point x="194" y="483" type="line"/>
      <point x="327" y="483" type="line" smooth="yes"/>
      <point x="390" y="483"/>
      <point x="428" y="459"/>
      <point x="428" y="419" type="curve" smooth="yes"/>
      <point x="428" y="373"/>
      <point x="379" y="342"/>
      <point x="307" y="342" type="curve" smooth="yes"/>
    </contour>
    <contour>
      <point x="194" y="100" type="line"/>
      <point x="194" y="242" type="line"/>
      <point x="329" y="242" type="line" smooth="yes"/>
      <point x="371" y="242"/>
      <point x="403" y="235"/>
      <point x="428" y="220" type="curve" smooth="yes"/>
      <point x="454" y="204"/>
      <point x="471" y="178"/>
      <point x="471" y="154" type="curve" smooth="yes"/>
      <point x="471" y="118"/>
      <point x="437" y="100"/>
      <point x="369" y="100" type="curve" smooth="yes"/>
    </contour>
  </outline>
</glyph>
<glyph name="C" format="1">
  <advance width="600"/>
  <unicode hex="0043"/>
  <outline>
    <contour>
      <point x="447" y="563" type="line"/>
      <point x="392" y="589"/>
      <point x="357" y="597"/>
      <point x="305" y="597" type="curve" smooth="yes"/>
      <point x="151" y="597"/>
      <point x="33" y="475"/>
      <point x="33" y="315" type="curve" smooth="yes"/>
      <point x="33" y="249" type="line" smooth="yes"/>
      <point x="33" y="97"/>
      <point x="157" y="-14"/>
      <point x="327" y="-14" type="curve" smooth="yes"/>
      <point x="399" y="-14"/>
      <point x="467" y="4"/>
      <point x="511" y="36" type="curve" smooth="yes"/>
      <point x="545" y="60"/>
      <point x="564" y="86"/>
      <point x="564" y="109" type="curve" smooth="yes"/>
      <point x="564" y="136"/>
      <point x="541" y="159"/>
      <point x="514" y="159" type="curve" smooth="yes"/>
      <point x="501" y="159"/>
      <point x="489" y="154"/>
      <point x="478" y="143" type="curve" smooth="yes"/>
      <point x="451" y="115"/>
      <point x="451" y="115"/>
      <point x="440" y="109" type="curve" smooth="yes"/>
      <point x="415" y="94"/>
      <point x="375" y="86"/>
      <point x="330" y="86" type="curve" smooth="yes"/>
      <point x="210" y="86"/>
      <point x="133" y="151"/>
      <point x="133" y="251" type="curve" smooth="yes"/>
      <point x="133" y="315" type="line" smooth="yes"/>
      <point x="133" y="420"/>
      <point x="207" y="497"/>
      <point x="309" y="497" type="curve" smooth="yes"/>
      <point x="343" y="497"/>
      <point x="379" y="488"/>
      <point x="406" y="473" type="curve" smooth="yes"/>
      <point x="435" y="457"/>
      <point x="445" y="444"/>
      <point x="450" y="420" type="curve" smooth="yes"/>
      <point x="454" y="396"/>
      <point x="456" y="389"/>
      <point x="464" y="381" type="curve" smooth="yes"/>
      <point x="472" y="373"/>
      <point x="486" y="367"/>
      <point x="499" y="367" type="curve" smooth="yes"/>
      <point x="515" y="367"/>
      <point x="530" y="375"/>
      <point x="540" y="388" type="curve" smooth="yes"/>
      <point x="547" y="397"/>
      <point x="549" y="408"/>
      <point x="549" y="433" type="curve" smooth="yes"/>
      <point x="549" y="517" type="line" smooth="yes"/>
      <point x="549" y="542"/>
      <point x="548" y="550"/>
      <point x="542" y="559" type="curve" smooth="yes"/>
      <point x="533" y="574"/>
      <point x="517" y="583"/>
      <point x="499" y="583" type="curve" smooth="yes"/>
      <point x="482" y="583"/>
      <point x="470" y="577"/>
      <point x="457" y="559" type="curve"/>
    </contour>
  </outline>
</glyph>
<glyph name="E" format="1">
  <advance width="600"/>
  <unicode hex="0045"/>
  <outline>
    <contour>
      <point x="194" y="243" type="line"/>
      <point x="279" y="243" type="line"/>
      <point x="279" y="236" type="line" smooth="yes"/>
      <point x="279" y="212"/>
      <point x="281" y="203"/>
      <point x="286" y="194" type="curve" smooth="yes"/>
      <point x="295" y="179"/>
      <point x="312" y="170"/>
      <point x="329" y="170" type="curve" smooth="yes"/>
      <point x="344" y="170"/>
      <point x="359" y="178"/>
      <point x="369" y="191" type="curve" smooth="yes"/>
      <point x="376" y="200"/>
      <point x="378" y="210"/>
      <point x="378" y="236" type="curve" smooth="yes"/>
      <point x="378" y="349" type="line" smooth="yes"/>
      <point x="378" y="358"/>
      <point x="378" y="361"/>
      <point x="377" y="370" type="curve" smooth="yes"/>
      <point x="373" y="398"/>
      <point x="355" y="416"/>
      <point x="328" y="416" type="curve" smooth="yes"/>
      <point x="313" y="416"/>
      <point x="298" y="408"/>
      <point x="288" y="395" type="curve" smooth="yes"/>
      <point x="281" y="385"/>
      <point x="279" y="376"/>
      <point x="279" y="349" type="curve" smooth="yes"/>
      <point x="279" y="342" type="line"/>
      <point x="194" y="342" type="line"/>
      <point x="194" y="483" type="line"/>
      <point x="428" y="483" type="line"/>
      <point x="428" y="433" type="line" smooth="yes"/>
      <point x="428" y="409"/>
      <point x="430" y="399"/>
      <point x="435" y="390" type="curve"/>
      <point x="445" y="375"/>
      <point x="461" y="366"/>
      <point x="478" y="366" type="curve" smooth="yes"/>
      <point x="494" y="366"/>
      <point x="509" y="374"/>
      <point x="519" y="387" type="curve" smooth="yes"/>
      <point x="526" y="397"/>
      <point x="528" y="405"/>
      <point x="528" y="433" type="curve" smooth="yes"/>
      <point x="528" y="583" type="line"/>
      <point x="79" y="583" type="line" smooth="yes"/>
      <point x="53" y="583"/>
      <point x="46" y="582"/>
      <point x="37" y="576" type="curve" smooth="yes"/>
      <point x="22" y="567"/>
      <point x="13" y="550"/>
      <point x="13" y="533" type="curve" smooth="yes"/>
      <point x="13" y="517"/>
      <point x="21" y="502"/>
      <point x="34" y="492" type="curve" smooth="yes"/>
      <point x="43" y="485"/>
      <point x="54" y="483"/>
      <point x="79" y="483" type="curve" smooth="yes"/>
      <point x="94" y="483" type="line"/>
      <point x="94" y="100" type="line"/>
      <point x="79" y="100" type="line" smooth="yes"/>
      <point x="55" y="100"/>
      <point x="46" y="99"/>
      <point x="37" y="93" type="curve" smooth="yes"/>
      <point x="22" y="83"/>
      <point x="13" y="67"/>
      <point x="13" y="50" type="curve" smooth="yes"/>
      <point x="13" y="34"/>
      <point x="21" y="19"/>
      <point x="34" y="10" type="curve"/>
      <point x="42" y="3"/>
      <point x="56" y="0"/>
      <point x="79" y="0" type="curve" smooth="yes"/>
      <point x="550" y="0" type="line"/>
      <point x="550" y="152" type="line" smooth="yes"/>
      <point x="550" y="177"/>
      <point x="548" y="186"/>
      <point x="543" y="195" type="curve"/>
      <point x="533" y="210"/>
      <point x="517" y="219"/>
      <point x="500" y="219" type="curve" smooth="yes"/>
      <point x="484" y="219"/>
      <point x="469" y="212"/>
      <point x="459" y="198" type="curve" smooth="yes"/>
      <point x="452" y="188"/>
      <point x="450" y="180"/>
      <point x="450" y="152" type="curve" smooth="yes"/>
      <point x="450" y="100" type="line"/>
      <point x="194" y="100" type="line"/>
    </contour>
  </outline>
</glyph>
<glyph name="F" format="1">
  <advance width="600"/>
  <unicode hex="0046"/>
  <outline>
    <contour>
      <point x="194" y="243" type="line"/>
      <point x="279" y="243" type="line"/>
      <point x="279" y="236" type="line" smooth="yes"/>
      <point x="279" y="213"/>
      <point x="281" y="202"/>
      <point x="286" y="193" type="curve"/>
      <point x="295" y="179"/>
      <point x="312" y="169"/>
      <point x="329" y="169" type="curve" smooth="yes"/>
      <point x="344" y="169"/>
      <point x="359" y="177"/>
      <point x="369" y="190" type="curve" smooth="yes"/>
      <point x="376" y="200"/>
      <point x="378" y="209"/>
      <point x="378" y="236" type="curve" smooth="yes"/>
      <point x="378" y="349" type="line" smooth="yes"/>
      <point x="378" y="374"/>
      <point x="377" y="381"/>
      <point x="371" y="391" type="curve" smooth="yes"/>
      <point x="362" y="406"/>
      <point x="346" y="415"/>
      <point x="329" y="415" type="curve" smooth="yes"/>
      <point x="313" y="415"/>
      <point x="298" y="407"/>
      <point x="288" y="394" type="curve" smooth="yes"/>
      <point x="281" y="385"/>
      <point x="279" y="374"/>
      <point x="279" y="349" type="curve" smooth="yes"/>
      <point x="279" y="342" type="line"/>
      <point x="194" y="342" type="line"/>
      <point x="194" y="483" type="line"/>
      <point x="450" y="483" type="line"/>
      <point x="450" y="432" type="line" smooth="yes"/>
      <point x="450" y="409"/>
      <point x="452" y="398"/>
      <point x="457" y="390" type="curve" smooth="yes"/>
      <point x="467" y="375"/>
      <point x="483" y="366"/>
      <point x="500" y="366" type="curve" smooth="yes"/>
      <point x="516" y="366"/>
      <point x="531" y="374"/>
      <point x="541" y="387" type="curve" smooth="yes"/>
      <point x="548" y="397"/>
      <point x="550" y="405"/>
      <point x="550" y="432" type="curve" smooth="yes"/>
      <point x="550" y="583" type="line"/>
      <point x="79" y="583" type="line" smooth="yes"/>
      <point x="53" y="583"/>
      <point x="46" y="582"/>
      <point x="37" y="576" type="curve" smooth="yes"/>
      <point x="22" y="567"/>
      <point x="13" y="550"/>
      <point x="13" y="533" type="curve" smooth="yes"/>
      <point x="13" y="517"/>
      <point x="21" y="502"/>
      <point x="34" y="492" type="curve" smooth="yes"/>
      <point x="43" y="485"/>
      <point x="54" y="483"/>
      <point x="79" y="483" type="curve" smooth="yes"/>
      <point x="94" y="483" type="line"/>
      <point x="94" y="100" type="line"/>
      <point x="79" y="100" type="line" smooth="yes"/>
      <point x="55" y="100"/>
      <point x="46" y="99"/>
      <point x="37" y="93" type="curve" smooth="yes"/>
      <point x="22" y="84"/>
      <point x="13" y="67"/>
      <point x="13" y="50" type="curve" smooth="yes"/>
      <point x="13" y="35"/>
      <point x="21" y="19"/>
      <point x="34" y="10" type="curve"/>
      <point x="42" y="3"/>
      <point x="56" y="0"/>
      <point x="79" y="0" type="curve" smooth="yes"/>
      <point x="294" y="0" type="line" smooth="yes"/>
      <point x="314" y="0"/>
      <point x="329" y="3"/>
      <point x="336" y="7" type="curve" smooth="yes"/>
      <point x="351" y="16"/>
      <point x="360" y="33"/>
      <point x="360" y="50" type="curve" smooth="yes"/>
      <point x="360" y="66"/>
      <point x="352" y="81"/>
      <point x="340" y="91" type="curve"/>
      <point x="330" y="98"/>
      <point x="321" y="100"/>
      <point x="294" y="100" type="curve" smooth="yes"/>
      <point x="194" y="100" type="line"/>
    </contour>
  </outline>
</glyph>
<glyph name="H" format="1">
  <advance width="600"/>
  <unicode hex="0048"/>
  <outline>
    <contour>
      <point x="409" y="241" type="line"/>
      <point x="409" y="100" type="line"/>
      <point x="394" y="100" type="line" smooth="yes"/>
      <point x="370" y="100"/>
      <point x="361" y="99"/>
      <point x="352" y="93" type="curve" smooth="yes"/>
      <point x="337" y="84"/>
      <point x="328" y="67"/>
      <point x="328" y="50" type="curve" smooth="yes"/>
      <point x="328" y="35"/>
      <point x="336" y="19"/>
      <point x="349" y="9" type="curve"/>
      <point x="358" y="3"/>
      <point x="370" y="0"/>
      <point x="394" y="0" type="curve" smooth="yes"/>
      <point x="515" y="0" type="line" smooth="yes"/>
      <point x="536" y="0"/>
      <point x="549" y="2"/>
      <point x="557" y="7" type="curve" smooth="yes"/>
      <point x="572" y="16"/>
      <point x="581" y="33"/>
      <point x="581" y="50" type="curve" smooth="yes"/>
      <point x="581" y="66"/>
      <point x="573" y="81"/>
      <point x="560" y="91" type="curve" smooth="yes"/>
      <point x="551" y="98"/>
      <point x="542" y="100"/>
      <point x="515" y="100" type="curve" smooth="yes"/>
      <point x="509" y="100" type="line"/>
      <point x="509" y="483" type="line"/>
      <point x="542" y="486"/>
      <point x="561" y="504"/>
      <point x="561" y="533" type="curve" smooth="yes"/>
      <point x="561" y="549"/>
      <point x="553" y="564"/>
      <point x="541" y="574" type="curve"/>
      <point x="531" y="581"/>
      <point x="522" y="583"/>
      <point x="495" y="583" type="curve" smooth="yes"/>
      <point x="394" y="583" type="line" smooth="yes"/>
      <point x="369" y="583"/>
      <point x="361" y="582"/>
      <point x="352" y="576" type="curve" smooth="yes"/>
      <point x="337" y="567"/>
      <point x="328" y="550"/>
      <point x="328" y="533" type="curve" smooth="yes"/>
      <point x="328" y="517"/>
      <point x="336" y="502"/>
      <point x="349" y="492" type="curve" smooth="yes"/>
      <point x="359" y="485"/>
      <point x="368" y="483"/>
      <point x="394" y="483" type="curve" smooth="yes"/>
      <point x="409" y="483" type="line"/>
      <point x="409" y="341" type="line"/>
      <point x="195" y="341" type="line"/>
      <point x="195" y="483" type="line"/>
      <point x="210" y="483" type="line" smooth="yes"/>
      <point x="234" y="483"/>
      <point x="243" y="485"/>
      <point x="252" y="490" type="curve" smooth="yes"/>
      <point x="267" y="499"/>
      <point x="276" y="516"/>
      <point x="276" y="533" type="curve" smooth="yes"/>
      <point x="276" y="549"/>
      <point x="268" y="564"/>
      <point x="255" y="574" type="curve" smooth="yes"/>
      <point x="246" y="581"/>
      <point x="237" y="583"/>
      <point x="210" y="583" type="curve" smooth="yes"/>
      <point x="109" y="583" type="line" smooth="yes"/>
      <point x="84" y="583"/>
      <point x="76" y="582"/>
      <point x="67" y="576" type="curve" smooth="yes"/>
      <point x="52" y="567"/>
      <point x="43" y="550"/>
      <point x="43" y="533" type="curve" smooth="yes"/>
      <point x="43" y="504"/>
      <point x="62" y="486"/>
      <point x="95" y="483" type="curve"/>
      <point x="95" y="100" type="line"/>
      <point x="89" y="100" type="line" smooth="yes"/>
      <point x="64" y="100"/>
      <point x="56" y="99"/>
      <point x="47" y="93" type="curve" smooth="yes"/>
      <point x="32" y="84"/>
      <point x="23" y="67"/>
      <point x="23" y="50" type="curve" smooth="yes"/>
      <point x="23" y="35"/>
      <point x="31" y="19"/>
      <point x="43" y="9" type="curve"/>
      <point x="52" y="3"/>
      <point x="65" y="0"/>
      <point x="89" y="0" type="curve" smooth="yes"/>
      <point x="210" y="0" type="line" smooth="yes"/>
      <point x="231" y="0"/>
      <point x="244" y="2"/>
      <point x="252" y="7" type="curve" smooth="yes"/>
      <point x="267" y="16"/>
      <point x="276" y="33"/>
      <point x="276" y="50" type="curve" smooth="yes"/>
      <point x="276" y="66"/>
      <point x="268" y="81"/>
      <point x="255" y="91" type="curve" smooth="yes"/>
      <point x="246" y="98"/>
      <point x="236" y="100"/>
      <point x="210" y="100" type="curve" smooth="yes"/>
      <point x="195" y="100" type="line"/>
      <point x="195" y="241" type="line"/>
    </contour>
  </outline>
</glyph>
<glyph name="J" format="1">
  <advance width="600"/>
  <unicode hex="004A"/>
  <outline>
    <contour>
      <point x="490" y="483" type="line"/>
      <point x="547" y="483" type="line" smooth="yes"/>
      <point x="570" y="483"/>
      <point x="581" y="485"/>
      <point x="589" y="490" type="curve" smooth="yes"/>
      <point x="604" y="499"/>
      <point x="613" y="516"/>
      <point x="613" y="533" type="curve" smooth="yes"/>
      <point x="613" y="549"/>
      <point x="605" y="564"/>
      <point x="592" y="574" type="curve" smooth="yes"/>
      <point x="583" y="581"/>
      <point x="574" y="583"/>
      <point x="547" y="583" type="curve" smooth="yes"/>
      <point x="271" y="583" type="line" smooth="yes"/>
      <point x="245" y="583"/>
      <point x="238" y="582"/>
      <point x="229" y="576" type="curve" smooth="yes"/>
      <point x="214" y="567"/>
      <point x="205" y="550"/>
      <point x="205" y="533" type="curve" smooth="yes"/>
      <point x="205" y="517"/>
      <point x="213" y="502"/>
      <point x="226" y="492" type="curve" smooth="yes"/>
      <point x="235" y="485"/>
      <point x="246" y="483"/>
      <point x="271" y="483" type="curve" smooth="yes"/>
      <point x="390" y="483" type="line"/>
      <point x="390" y="198" type="line" smooth="yes"/>
      <point x="390" y="152"/>
      <point x="387" y="143"/>
      <point x="366" y="122" type="curve" smooth="yes"/>
      <point x="343" y="100"/>
      <point x="307" y="86"/>
      <point x="271" y="86" type="curve" smooth="yes"/>
      <point x="237" y="86"/>
      <point x="203" y="95"/>
      <point x="154" y="117" type="curve"/>
      <point x="154" y="213" type="line" smooth="yes"/>
      <point x="154" y="238"/>
      <point x="153" y="247"/>
      <point x="147" y="256" type="curve" smooth="yes"/>
      <point x="138" y="271"/>
      <point x="121" y="280"/>
      <point x="104" y="280" type="curve" smooth="yes"/>
      <point x="88" y="280"/>
      <point x="73" y="272"/>
      <point x="63" y="259" type="curve" smooth="yes"/>
      <point x="56" y="250"/>
      <point x="54" y="239"/>
      <point x="54" y="213" type="curve" smooth="yes"/>
      <point x="54" y="51" type="line"/>
      <point x="145" y="6"/>
      <point x="212" y="-14"/>
      <point x="269" y="-14" type="curve" smooth="yes"/>
      <point x="328" y="-14"/>
      <point x="384" y="6"/>
      <point x="426" y="42" type="curve" smooth="yes"/>
      <point x="473" y="83"/>
      <point x="490" y="121"/>
      <point x="490" y="187" type="curve" smooth="yes"/>
    </contour>
  </outline>
</glyph>
<glyph name="M" format="1">
  <advance width="600"/>
  <unicode hex="004D"/>
  <outline>
    <contour>
      <point x="142" y="389" type="line"/>
      <point x="260" y="138" type="line"/>
      <point x="351" y="138" type="line"/>
      <point x="462" y="389" type="line"/>
      <point x="462" y="100" type="line"/>
      <point x="427" y="100" type="line" smooth="yes"/>
      <point x="401" y="100"/>
      <point x="394" y="99"/>
      <point x="385" y="93" type="curve" smooth="yes"/>
      <point x="370" y="84"/>
      <point x="361" y="67"/>
      <point x="361" y="50" type="curve" smooth="yes"/>
      <point x="361" y="35"/>
      <point x="369" y="19"/>
      <point x="382" y="10" type="curve"/>
      <point x="390" y="3"/>
      <point x="404" y="0"/>
      <point x="427" y="0" type="curve" smooth="yes"/>
      <point x="557" y="0" type="line" smooth="yes"/>
      <point x="577" y="0"/>
      <point x="592" y="3"/>
      <point x="599" y="7" type="curve"/>
      <point x="614" y="17"/>
      <point x="623" y="33"/>
      <point x="623" y="50" type="curve" smooth="yes"/>
      <point x="623" y="82"/>
      <point x="601" y="100"/>
      <point x="562" y="100" type="curve"/>
      <point x="562" y="483" type="line"/>
      <point x="595" y="486"/>
      <point x="614" y="504"/>
      <point x="614" y="533" type="curve" smooth="yes"/>
      <point x="614" y="549"/>
      <point x="606" y="564"/>
      <point x="594" y="574" type="curve"/>
      <point x="584" y="581"/>
      <point x="575" y="583"/>
      <point x="548" y="583" type="curve" smooth="yes"/>
      <point x="438" y="583" type="line"/>
      <point x="303" y="286" type="line"/>
      <point x="165" y="583" type="line"/>
      <point x="56" y="583" type="line"/>
      <point x="55" y="584"/>
      <point x="54" y="584"/>
      <point x="52" y="584" type="curve" smooth="yes"/>
      <point x="40" y="584"/>
      <point x="19" y="580"/>
      <point x="14" y="577" type="curve" smooth="yes"/>
      <point x="-1" y="567"/>
      <point x="-10" y="550"/>
      <point x="-10" y="534" type="curve" smooth="yes"/>
      <point x="-10" y="504"/>
      <point x="9" y="486"/>
      <point x="42" y="483" type="curve"/>
      <point x="42" y="100" type="line"/>
      <point x="3" y="100"/>
      <point x="-19" y="82"/>
      <point x="-19" y="50" type="curve" smooth="yes"/>
      <point x="-19" y="34"/>
      <point x="-11" y="19"/>
      <point x="2" y="10" type="curve"/>
      <point x="11" y="3"/>
      <point x="24" y="0"/>
      <point x="48" y="0" type="curve" smooth="yes"/>
      <point x="177" y="0" type="line" smooth="yes"/>
      <point x="197" y="0"/>
      <point x="212" y="3"/>
      <point x="219" y="7" type="curve"/>
      <point x="234" y="17"/>
      <point x="243" y="33"/>
      <point x="243" y="50" type="curve" smooth="yes"/>
      <point x="243" y="66"/>
      <point x="236" y="81"/>
      <point x="223" y="91" type="curve"/>
      <point x="212" y="98"/>
      <point x="204" y="100"/>
      <point x="177" y="100" type="curve" smooth="yes"/>
      <point x="142" y="100" type="line"/>
    </contour>
  </outline>
</glyph>
<glyph name="O" format="1">
  <advance width="600"/>
  <unicode hex="004F"/>
  <outline>
    <contour>
      <point x="300" y="597" type="curve" smooth="yes"/>
      <point x="146" y="597"/>
      <point x="21" y="460"/>
      <point x="21" y="292" type="curve" smooth="yes"/>
      <point x="21" y="123"/>
      <point x="146" y="-14"/>
      <point x="300" y="-14" type="curve" smooth="yes"/>
      <point x="452" y="-14"/>
      <point x="579" y="123"/>
      <point x="579" y="287" type="curve" smooth="yes"/>
      <point x="579" y="383"/>
      <point x="548" y="460"/>
      <point x="485" y="520" type="curve" smooth="yes"/>
      <point x="432" y="570"/>
      <point x="367" y="597"/>
    </contour>
    <contour>
      <point x="300" y="497" type="curve" smooth="yes"/>
      <point x="399" y="497"/>
      <point x="479" y="404"/>
      <point x="479" y="289" type="curve" smooth="yes"/>
      <point x="479" y="179"/>
      <point x="397" y="86"/>
      <point x="300" y="86" type="curve" smooth="yes"/>
      <point x="202" y="86"/>
      <point x="121" y="179"/>
      <point x="121" y="292" type="curve" smooth="yes"/>
      <point x="121" y="404"/>
      <point x="202" y="497"/>
    </contour>
  </outline>
</glyph>
<glyph name="P" format="1">
  <advance width="600"/>
  <unicode hex="0050"/>
  <outline>
    <contour>
      <point x="194" y="200" type="line"/>
      <point x="292" y="200" type="line" smooth="yes"/>
      <point x="385" y="200"/>
      <point x="435" y="217"/>
      <point x="479" y="266" type="curve" smooth="yes"/>
      <point x="511" y="301"/>
      <point x="529" y="348"/>
      <point x="529" y="394" type="curve" smooth="yes"/>
      <point x="529" y="505"/>
      <point x="439" y="583"/>
      <point x="312" y="583" type="curve" smooth="yes"/>
      <point x="79" y="583" type="line" smooth="yes"/>
      <point x="53" y="583"/>
      <point x="46" y="582"/>
      <point x="37" y="576" type="curve" smooth="yes"/>
      <point x="22" y="567"/>
      <point x="13" y="550"/>
      <point x="13" y="533" type="curve" smooth="yes"/>
      <point x="13" y="518"/>
      <point x="21" y="502"/>
      <point x="34" y="492" type="curve" smooth="yes"/>
      <point x="43" y="485"/>
      <point x="54" y="483"/>
      <point x="79" y="483" type="curve" smooth="yes"/>
      <point x="94" y="483" type="line"/>
      <point x="94" y="100" type="line"/>
      <point x="79" y="100" type="line" smooth="yes"/>
      <point x="55" y="100"/>
      <point x="46" y="99"/>
      <point x="37" y="93" type="curve" smooth="yes"/>
      <point x="22" y="84"/>
      <point x="13" y="67"/>
      <point x="13" y="50" type="curve" smooth="yes"/>
      <point x="13" y="35"/>
      <point x="21" y="19"/>
      <point x="34" y="10" type="curve"/>
      <point x="42" y="3"/>
      <point x="56" y="0"/>
      <point x="79" y="0" type="curve" smooth="yes"/>
      <point x="293" y="0" type="line" smooth="yes"/>
      <point x="313" y="0"/>
      <point x="328" y="3"/>
      <point x="335" y="7" type="curve" smooth="yes"/>
      <point x="350" y="16"/>
      <point x="359" y="33"/>
      <point x="359" y="50" type="curve" smooth="yes"/>
      <point x="359" y="66"/>
      <point x="351" y="81"/>
      <point x="338" y="91" type="curve" smooth="yes"/>
      <point x="328" y="98"/>
      <point x="320" y="100"/>
      <point x="293" y="100" type="curve" smooth="yes"/>
      <point x="194" y="100" type="line"/>
    </contour>
    <contour>
      <point x="194" y="483" type="line"/>
      <point x="312" y="483" type="line" smooth="yes"/>
      <point x="381" y="483"/>
      <point x="423" y="448"/>
      <point x="423" y="391" type="curve" smooth="yes"/>
      <point x="423" y="335"/>
      <point x="381" y="300"/>
      <point x="312" y="300" type="curve" smooth="yes"/>
      <point x="194" y="300" type="line"/>
    </contour>
  </outline>
</glyph>
<glyph name="Q" format="1">
  <advance width="600"/>
  <unicode hex="0051"/>
  <outline>
    <contour>
      <point x="271" y="-6" type="line"/>
      <point x="279" y="-7"/>
      <point x="287" y="-7"/>
      <point x="289" y="-7" type="curve" smooth="yes"/>
      <point x="345" y="-7"/>
      <point x="391" y="4"/>
      <point x="429" y="27" type="curve" smooth="yes"/>
      <point x="524" y="84"/>
      <point x="579" y="183"/>
      <point x="579" y="294" type="curve" smooth="yes"/>
      <point x="579" y="460"/>
      <point x="453" y="597"/>
      <point x="300" y="597" type="curve" smooth="yes"/>
      <point x="146" y="597"/>
      <point x="21" y="460"/>
      <point x="21" y="292" type="curve" smooth="yes"/>
      <point x="21" y="231"/>
      <point x="37" y="173"/>
      <point x="65" y="124" type="curve" smooth="yes"/>
      <point x="93" y="77"/>
      <point x="124" y="50"/>
      <point x="199" y="7" type="curve"/>
      <point x="137" y="-53" type="line" smooth="yes"/>
      <point x="121" y="-68"/>
      <point x="117" y="-76"/>
      <point x="117" y="-91" type="curve" smooth="yes"/>
      <point x="117" y="-119"/>
      <point x="139" y="-143"/>
      <point x="165" y="-143" type="curve" smooth="yes"/>
      <point x="171" y="-143"/>
      <point x="181" y="-141"/>
      <point x="193" y="-138" type="curve" smooth="yes"/>
      <point x="236" y="-127"/>
      <point x="298" y="-117"/>
      <point x="319" y="-117" type="curve" smooth="yes"/>
      <point x="333" y="-117"/>
      <point x="356" y="-121"/>
      <point x="367" y="-125" type="curve" smooth="yes"/>
      <point x="415" y="-144"/>
      <point x="419" y="-145"/>
      <point x="444" y="-145" type="curve" smooth="yes"/>
      <point x="475" y="-145"/>
      <point x="503" y="-136"/>
      <point x="539" y="-114" type="curve" smooth="yes"/>
      <point x="567" y="-98"/>
      <point x="577" y="-84"/>
      <point x="577" y="-63" type="curve" smooth="yes"/>
      <point x="577" y="-35"/>
      <point x="555" y="-13"/>
      <point x="526" y="-13" type="curve" smooth="yes"/>
      <point x="515" y="-13"/>
      <point x="509" y="-15"/>
      <point x="486" y="-30" type="curve" smooth="yes"/>
      <point x="467" y="-42"/>
      <point x="458" y="-45"/>
      <point x="443" y="-45" type="curve" smooth="yes"/>
      <point x="432" y="-45"/>
      <point x="425" y="-44"/>
      <point x="402" y="-38" type="curve" smooth="yes"/>
      <point x="370" y="-29"/>
      <point x="344" y="-25"/>
      <point x="318" y="-25" type="curve" smooth="yes"/>
      <point x="303" y="-25"/>
      <point x="291" y="-26"/>
      <point x="267" y="-30" type="curve"/>
    </contour>
    <contour>
      <point x="300" y="497" type="curve" smooth="yes"/>
      <point x="399" y="497"/>
      <point x="479" y="404"/>
      <point x="479" y="288" type="curve" smooth="yes"/>
      <point x="479" y="178"/>
      <point x="397" y="85"/>
      <point x="300" y="85" type="curve" smooth="yes"/>
      <point x="202" y="85"/>
      <point x="121" y="179"/>
      <point x="121" y="291" type="curve" smooth="yes"/>
      <point x="121" y="404"/>
      <point x="202" y="497"/>
    </contour>
  </outline>
</glyph>
<glyph name="T" format="1">
  <advance width="600"/>
  <unicode hex="0054"/>
  <outline>
    <contour>
      <point x="349" y="483" type="line"/>
      <point x="458" y="483" type="line"/>
      <point x="458" y="390" type="line" smooth="yes"/>
      <point x="458" y="367"/>
      <point x="460" y="357"/>
      <point x="465" y="348" type="curve"/>
      <point x="474" y="334"/>
      <point x="491" y="324"/>
      <point x="508" y="324" type="curve" smooth="yes"/>
      <point x="524" y="324"/>
      <point x="539" y="332"/>
      <point x="549" y="345" type="curve" smooth="yes"/>
      <point x="557" y="355"/>
      <point x="558" y="362"/>
      <point x="558" y="390" type="curve" smooth="yes"/>
      <point x="558" y="583" type="line"/>
      <point x="42" y="583" type="line"/>
      <point x="42" y="390" type="line" smooth="yes"/>
      <point x="42" y="367"/>
      <point x="44" y="357"/>
      <point x="49" y="348" type="curve" smooth="yes"/>
      <point x="58" y="333"/>
      <point x="75" y="324"/>
      <point x="92" y="324" type="curve" smooth="yes"/>
      <point x="108" y="324"/>
      <point x="123" y="332"/>
      <point x="133" y="345" type="curve" smooth="yes"/>
      <point x="140" y="355"/>
      <point x="142" y="363"/>
      <point x="142" y="390" type="curve" smooth="yes"/>
      <point x="142" y="483" type="line"/>
      <point x="249" y="483" type="line"/>
      <point x="249" y="100" type="line"/>
      <point x="184" y="100" type="line" smooth="yes"/>
      <point x="158" y="100"/>
      <point x="151" y="99"/>
      <point x="142" y="93" type="curve" smooth="yes"/>
      <point x="127" y="84"/>
      <point x="118" y="67"/>
      <point x="118" y="50" type="curve" smooth="yes"/>
      <point x="118" y="35"/>
      <point x="126" y="19"/>
      <point x="139" y="10" type="curve"/>
      <point x="148" y="3"/>
      <point x="161" y="0"/>
      <point x="184" y="0" type="curve" smooth="yes"/>
      <point x="415" y="0" type="line" smooth="yes"/>
      <point x="435" y="0"/>
      <point x="450" y="3"/>
      <point x="457" y="7" type="curve" smooth="yes"/>
      <point x="472" y="16"/>
      <point x="481" y="33"/>
      <point x="481" y="50" type="curve" smooth="yes"/>
      <point x="481" y="66"/>
      <point x="473" y="81"/>
      <point x="460" y="91" type="curve" smooth="yes"/>
      <point x="450" y="98"/>
      <point x="442" y="100"/>
      <point x="415" y="100" type="curve" smooth="yes"/>
      <point x="349" y="100" type="line"/>
    </contour>
  </outline>
</glyph>
<glyph name="V" format="1">
  <advance width="600"/>
  <unicode hex="0056"/>
  <outline>
    <contour>
      <point x="303" y="144" type="line"/>
      <point x="159" y="483" type="line"/>
      <point x="178" y="483" type="line" smooth="yes"/>
      <point x="202" y="483"/>
      <point x="211" y="485"/>
      <point x="220" y="490" type="curve" smooth="yes"/>
      <point x="235" y="499"/>
      <point x="244" y="516"/>
      <point x="244" y="533" type="curve" smooth="yes"/>
      <point x="244" y="549"/>
      <point x="236" y="564"/>
      <point x="224" y="574" type="curve"/>
      <point x="214" y="581"/>
      <point x="204" y="583"/>
      <point x="178" y="583" type="curve" smooth="yes"/>
      <point x="45" y="583" type="line" smooth="yes"/>
      <point x="19" y="583"/>
      <point x="12" y="582"/>
      <point x="3" y="576" type="curve" smooth="yes"/>
      <point x="-12" y="567"/>
      <point x="-21" y="550"/>
      <point x="-21" y="533" type="curve" smooth="yes"/>
      <point x="-21" y="513"/>
      <point x="-7" y="493"/>
      <point x="10" y="487" type="curve" smooth="yes"/>
      <point x="19" y="484"/>
      <point x="27" y="483"/>
      <point x="47" y="483" type="curve"/>
      <point x="249" y="0" type="line"/>
      <point x="348" y="0" type="line"/>
      <point x="553" y="483" type="line"/>
      <point x="574" y="483"/>
      <point x="581" y="484"/>
      <point x="590" y="487" type="curve" smooth="yes"/>
      <point x="607" y="493"/>
      <point x="621" y="513"/>
      <point x="621" y="533" type="curve" smooth="yes"/>
      <point x="621" y="549"/>
      <point x="613" y="564"/>
      <point x="600" y="574" type="curve" smooth="yes"/>
      <point x="591" y="581"/>
      <point x="581" y="583"/>
      <point x="555" y="583" type="curve" smooth="yes"/>
      <point x="423" y="583" type="line" smooth="yes"/>
      <point x="397" y="583"/>
      <point x="390" y="582"/>
      <point x="381" y="576" type="curve" smooth="yes"/>
      <point x="366" y="567"/>
      <point x="357" y="550"/>
      <point x="357" y="533" type="curve" smooth="yes"/>
      <point x="357" y="517"/>
      <point x="365" y="502"/>
      <point x="377" y="492" type="curve"/>
      <point x="388" y="485"/>
      <point x="396" y="483"/>
      <point x="423" y="483" type="curve" smooth="yes"/>
      <point x="447" y="483" type="line"/>
    </contour>
  </outline>
</glyph>
<glyph name="W" format="1">
  <advance width="600"/>
  <unicode hex="0057"/>
  <outline>
    <contour>
      <point x="300" y="277" type="line"/>
      <point x="393" y="0" type="line"/>
      <point x="503" y="0" type="line"/>
      <point x="563" y="483" type="line"/>
      <point x="593" y="488"/>
      <point x="610" y="506"/>
      <point x="610" y="533" type="curve" smooth="yes"/>
      <point x="610" y="549"/>
      <point x="602" y="564"/>
      <point x="590" y="574" type="curve"/>
      <point x="580" y="581"/>
      <point x="571" y="583"/>
      <point x="544" y="583" type="curve" smooth="yes"/>
      <point x="413" y="583" type="line" smooth="yes"/>
      <point x="387" y="583"/>
      <point x="380" y="582"/>
      <point x="371" y="576" type="curve" smooth="yes"/>
      <point x="356" y="567"/>
      <point x="347" y="550"/>
      <point x="347" y="533" type="curve" smooth="yes"/>
      <point x="347" y="517"/>
      <point x="355" y="502"/>
      <point x="368" y="492" type="curve" smooth="yes"/>
      <point x="377" y="485"/>
      <point x="388" y="483"/>
      <point x="413" y="483" type="curve" smooth="yes"/>
      <point x="466" y="483" type="line"/>
      <point x="431" y="211" type="line"/>
      <point x="355" y="437" type="line"/>
      <point x="251" y="437" type="line"/>
      <point x="175" y="211" type="line"/>
      <point x="139" y="483" type="line"/>
      <point x="187" y="483" type="line" smooth="yes"/>
      <point x="211" y="483"/>
      <point x="221" y="485"/>
      <point x="230" y="490" type="curve" smooth="yes"/>
      <point x="245" y="499"/>
      <point x="254" y="516"/>
      <point x="254" y="533" type="curve" smooth="yes"/>
      <point x="254" y="549"/>
      <point x="246" y="564"/>
      <point x="233" y="574" type="curve" smooth="yes"/>
      <point x="223" y="581"/>
      <point x="215" y="583"/>
      <point x="187" y="583" type="curve" smooth="yes"/>
      <point x="56" y="583" type="line" smooth="yes"/>
      <point x="30" y="583"/>
      <point x="23" y="582"/>
      <point x="14" y="576" type="curve" smooth="yes"/>
      <point x="-1" y="566"/>
      <point x="-10" y="550"/>
      <point x="-10" y="531" type="curve" smooth="yes"/>
      <point x="-10" y="503"/>
      <point x="6" y="487"/>
      <point x="36" y="483" type="curve"/>
      <point x="98" y="0" type="line"/>
      <point x="209" y="0" type="line"/>
    </contour>
  </outline>
</glyph>
<glyph name="X" format="1">
  <advance width="600"/>
  <unicode hex="0058"/>
  <outline>
    <contour>
      <point x="364" y="297" type="line"/>
      <point x="521" y="483" type="line"/>
      <point x="556" y="484"/>
      <point x="578" y="502"/>
      <point x="578" y="533" type="curve" smooth="yes"/>
      <point x="578" y="549"/>
      <point x="571" y="564"/>
      <point x="557" y="574" type="curve" smooth="yes"/>
      <point x="547" y="581"/>
      <point x="539" y="583"/>
      <point x="512" y="583" type="curve" smooth="yes"/>
      <point x="422" y="583" type="line" smooth="yes"/>
      <point x="400" y="583"/>
      <point x="384" y="580"/>
      <point x="376" y="573" type="curve"/>
      <point x="363" y="564"/>
      <point x="355" y="548"/>
      <point x="355" y="533" type="curve" smooth="yes"/>
      <point x="355" y="511"/>
      <point x="365" y="498"/>
      <point x="393" y="484" type="curve"/>
      <point x="300" y="375" type="line"/>
      <point x="205" y="484" type="line"/>
      <point x="234" y="498"/>
      <point x="243" y="511"/>
      <point x="243" y="533" type="curve" smooth="yes"/>
      <point x="243" y="549"/>
      <point x="235" y="564"/>
      <point x="222" y="574" type="curve" smooth="yes"/>
      <point x="212" y="581"/>
      <point x="204" y="583"/>
      <point x="176" y="583" type="curve" smooth="yes"/>
      <point x="85" y="583" type="line" smooth="yes"/>
      <point x="78" y="583"/>
      <point x="77" y="583"/>
      <point x="65" y="581" type="curve"/>
      <point x="36" y="578"/>
      <point x="19" y="560"/>
      <point x="19" y="533" type="curve" smooth="yes"/>
      <point x="19" y="503"/>
      <point x="40" y="485"/>
      <point x="77" y="483" type="curve"/>
      <point x="235" y="298" type="line"/>
      <point x="69" y="100" type="line"/>
      <point x="32" y="100"/>
      <point x="10" y="81"/>
      <point x="10" y="50" type="curve" smooth="yes"/>
      <point x="10" y="34"/>
      <point x="18" y="19"/>
      <point x="31" y="9" type="curve"/>
      <point x="40" y="3"/>
      <point x="52" y="0"/>
      <point x="76" y="0" type="curve" smooth="yes"/>
      <point x="187" y="0" type="line" smooth="yes"/>
      <point x="208" y="0"/>
      <point x="221" y="2"/>
      <point x="229" y="7" type="curve" smooth="yes"/>
      <point x="244" y="16"/>
      <point x="253" y="33"/>
      <point x="253" y="50" type="curve" smooth="yes"/>
      <point x="253" y="80"/>
      <point x="233" y="98"/>
      <point x="199" y="100" type="curve"/>
      <point x="301" y="220" type="line"/>
      <point x="402" y="100" type="line"/>
      <point x="367" y="98"/>
      <point x="347" y="80"/>
      <point x="347" y="50" type="curve" smooth="yes"/>
      <point x="347" y="17"/>
      <point x="369" y="0"/>
      <point x="413" y="0" type="curve" smooth="yes"/>
      <point x="524" y="0" type="line" smooth="yes"/>
      <point x="545" y="0"/>
      <point x="558" y="2"/>
      <point x="566" y="7" type="curve" smooth="yes"/>
      <point x="581" y="16"/>
      <point x="590" y="33"/>
      <point x="590" y="50" type="curve" smooth="yes"/>
      <point x="590" y="81"/>
      <point x="569" y="99"/>
      <point x="531" y="100" type="curve"/>
    </contour>
  </outline>
</glyph>
<glyph name="Y" format="1">
  <advance width="600"/>
  <unicode hex="0059"/>
  <outline>
    <contour>
      <point x="350" y="245" type="line"/>
      <point x="514" y="483" type="line"/>
      <point x="516" y="483" type="line"/>
      <point x="551" y="479"/>
      <point x="579" y="502"/>
      <point x="579" y="533" type="curve" smooth="yes"/>
      <point x="579" y="549"/>
      <point x="572" y="564"/>
      <point x="558" y="574" type="curve" smooth="yes"/>
      <point x="549" y="581"/>
      <point x="540" y="583"/>
      <point x="513" y="583" type="curve" smooth="yes"/>
      <point x="421" y="583" type="line" smooth="yes"/>
      <point x="396" y="583"/>
      <point x="387" y="582"/>
      <point x="378" y="576" type="curve" smooth="yes"/>
      <point x="363" y="567"/>
      <point x="354" y="550"/>
      <point x="354" y="533" type="curve" smooth="yes"/>
      <point x="354" y="510"/>
      <point x="367" y="494"/>
      <point x="394" y="484" type="curve"/>
      <point x="300" y="348" type="line"/>
      <point x="205" y="484" type="line"/>
      <point x="231" y="495"/>
      <point x="243" y="510"/>
      <point x="243" y="533" type="curve" smooth="yes"/>
      <point x="243" y="549"/>
      <point x="235" y="564"/>
      <point x="223" y="574" type="curve"/>
      <point x="213" y="581"/>
      <point x="204" y="583"/>
      <point x="177" y="583" type="curve" smooth="yes"/>
      <point x="88" y="583" type="line" smooth="yes"/>
      <point x="80" y="583"/>
      <point x="79" y="583"/>
      <point x="67" y="581" type="curve"/>
      <point x="38" y="578"/>
      <point x="21" y="560"/>
      <point x="21" y="533" type="curve" smooth="yes"/>
      <point x="21" y="501"/>
      <point x="44" y="483"/>
      <point x="85" y="483" type="curve"/>
      <point x="250" y="245" type="line"/>
      <point x="250" y="100" type="line"/>
      <point x="185" y="100" type="line" smooth="yes"/>
      <point x="158" y="100"/>
      <point x="151" y="99"/>
      <point x="142" y="93" type="curve" smooth="yes"/>
      <point x="127" y="84"/>
      <point x="118" y="67"/>
      <point x="118" y="50" type="curve" smooth="yes"/>
      <point x="118" y="34"/>
      <point x="126" y="19"/>
      <point x="139" y="10" type="curve"/>
      <point x="148" y="3"/>
      <point x="161" y="0"/>
      <point x="185" y="0" type="curve" smooth="yes"/>
      <point x="415" y="0" type="line" smooth="yes"/>
      <point x="436" y="0"/>
      <point x="451" y="3"/>
      <point x="458" y="7" type="curve" smooth="yes"/>
      <point x="473" y="16"/>
      <point x="482" y="33"/>
      <point x="482" y="50" type="curve" smooth="yes"/>
      <point x="482" y="66"/>
      <point x="474" y="81"/>
      <point x="461" y="91" type="curve" smooth="yes"/>
      <point x="451" y="98"/>
      <point x="443" y="100"/>
      <point x="415" y="100" type="curve" smooth="yes"/>
      <point x="350" y="100" type="line"/>
    </contour>
  </outline>
</glyph>
<glyph name="bracketleft" format="1">
  <advance width="600"/>
  <unicode hex="005B"/>
  <outline>
    <contour>
      <point x="350" y="527" type="line"/>
      <point x="408" y="527" type="line" smooth="yes"/>
      <point x="430" y="527"/>
      <point x="442" y="529"/>
      <point x="450" y="534" type="curve" smooth="yes"/>
      <point x="465" y="543"/>
      <point x="474" y="560"/>
      <point x="474" y="577" type="curve" smooth="yes"/>
      <point x="474" y="593"/>
      <point x="467" y="608"/>
      <point x="454" y="618" type="curve"/>
      <point x="443" y="625"/>
      <point x="435" y="627"/>
      <point x="408" y="627" type="curve" smooth="yes"/>
      <point x="250" y="627" type="line"/>
      <point x="250" y="-148" type="line"/>
      <point x="409" y="-148" type="line" smooth="yes"/>
      <point x="431" y="-148"/>
      <point x="443" y="-146"/>
      <point x="451" y="-141" type="curve" smooth="yes"/>
      <point x="466" y="-131"/>
      <point x="475" y="-115"/>
      <point x="475" y="-98" type="curve" smooth="yes"/>
      <point x="475" y="-82"/>
      <point x="467" y="-67"/>
      <point x="454" y="-57" type="curve" smooth="yes"/>
      <point x="444" y="-50"/>
      <point x="436" y="-48"/>
      <point x="409" y="-48" type="curve" smooth="yes"/>
      <point x="350" y="-48" type="line"/>
    </contour>
  </outline>
</glyph>
<glyph name="backslash" format="1">
  <advance width="600"/>
  <unicode hex="005C"/>
  <outline>
    <contour>
      <point x="184" y="651" type="line" smooth="yes"/>
      <point x="169" y="685"/>
      <point x="156" y="695"/>
      <point x="133" y="695" type="curve" smooth="yes"/>
      <point x="106" y="695"/>
      <point x="83" y="672"/>
      <point x="83" y="647" type="curve" smooth="yes"/>
      <point x="83" y="636"/>
      <point x="85" y="630"/>
      <point x="95" y="610" type="curve" smooth="yes"/>
      <point x="415" y="-69" type="line" smooth="yes"/>
      <point x="431" y="-103"/>
      <point x="443" y="-113"/>
      <point x="467" y="-113" type="curve" smooth="yes"/>
      <point x="493" y="-113"/>
      <point x="517" y="-90"/>
      <point x="517" y="-65" type="curve" smooth="yes"/>
      <point x="517" y="-55"/>
      <point x="514" y="-45"/>
      <point x="505" y="-27" type="curve" smooth="yes"/>
    </contour>
  </outline>
</glyph>
<glyph name="bracketright" format="1">
  <advance width="600"/>
  <unicode hex="005D"/>
  <outline>
    <contour>
      <point x="250" y="-48" type="line"/>
      <point x="192" y="-48" type="line" smooth="yes"/>
      <point x="170" y="-48"/>
      <point x="158" y="-50"/>
      <point x="150" y="-55" type="curve" smooth="yes"/>
      <point x="135" y="-64"/>
      <point x="126" y="-81"/>
      <point x="126" y="-98" type="curve" smooth="yes"/>
      <point x="126" y="-114"/>
      <point x="133" y="-129"/>
      <point x="146" y="-139" type="curve"/>
      <point x="157" y="-146"/>
      <point x="165" y="-148"/>
      <point x="192" y="-148" type="curve" smooth="yes"/>
      <point x="350" y="-148" type="line"/>
      <point x="350" y="627" type="line"/>
      <point x="191" y="627" type="line" smooth="yes"/>
      <point x="169" y="627"/>
      <point x="157" y="625"/>
      <point x="149" y="620" type="curve" smooth="yes"/>
      <point x="134" y="610"/>
      <point x="125" y="594"/>
      <point x="125" y="577" type="curve" smooth="yes"/>
      <point x="125" y="561"/>
      <point x="133" y="546"/>
      <point x="146" y="536" type="curve" smooth="yes"/>
      <point x="156" y="529"/>
      <point x="164" y="527"/>
      <point x="191" y="527" type="curve" smooth="yes"/>
      <point x="250" y="527" type="line"/>
    </contour>
  </outline>
</glyph>
<glyph name="asciicircum" format="1">
  <advance width="600"/>
  <unicode hex="005E"/>
  <outline>
    <contour>
      <point x="299" y="494" type="line"/>
      <point x="418" y="355" type="line" smooth="yes"/>
      <point x="439" y="330"/>
      <point x="448" y="325"/>
      <point x="467" y="325" type="curve" smooth="yes"/>
      <point x="494" y="325"/>
      <point x="517" y="348"/>
      <point x="517" y="375" type="curve" smooth="yes"/>
      <point x="517" y="390"/>
      <point x="513" y="398"/>
      <point x="495" y="419" type="curve" smooth="yes"/>
      <point x="299" y="652" type="line"/>
      <point x="105" y="419" type="line" smooth="yes"/>
      <point x="87" y="398"/>
      <point x="83" y="390"/>
      <point x="83" y="375" type="curve" smooth="yes"/>
      <point x="83" y="348"/>
      <point x="106" y="325"/>
      <point x="133" y="325" type="curve" smooth="yes"/>
      <point x="153" y="325"/>
      <point x="160" y="330"/>
      <point x="182" y="356" type="curve" smooth="yes"/>
    </contour>
  </outline>
</glyph>
<glyph name="grave" format="1">
  <advance width="600"/>
  <unicode hex="0060"/>
  <outline>
    <contour>
      <point x="194" y="680" type="line" smooth="yes"/>
      <point x="178" y="693"/>
      <point x="173" y="696"/>
      <point x="162" y="696" type="curve" smooth="yes"/>
      <point x="141" y="696"/>
      <point x="125" y="680"/>
      <point x="125" y="660" type="curve" smooth="yes"/>
      <point x="125" y="647"/>
      <point x="131" y="637"/>
      <point x="148" y="624" type="curve" smooth="yes"/>
      <point x="281" y="512" type="line" smooth="yes"/>
      <point x="296" y="500"/>
      <point x="303" y="496"/>
      <point x="313" y="496" type="curve" smooth="yes"/>
      <point x="333" y="496"/>
      <point x="350" y="513"/>
      <point x="350" y="532" type="curve" smooth="yes"/>
      <point x="350" y="545"/>
      <point x="343" y="556"/>
      <point x="327" y="569" type="curve" smooth="yes"/>
    </contour>
  </outline>
</glyph>
<glyph name="b" format="1">
  <advance width="600"/>
  <unicode hex="0062"/>
  <outline>
    <contour>
      <point x="174" y="624" type="line"/>
      <point x="58" y="624" type="line" smooth="yes"/>
      <point x="34" y="624"/>
      <point x="25" y="623"/>
      <point x="16" y="617" type="curve" smooth="yes"/>
      <point x="1" y="608"/>
      <point x="-8" y="591"/>
      <point x="-8" y="574" type="curve" smooth="yes"/>
      <point x="-8" y="558"/>
      <point x="0" y="543"/>
      <point x="12" y="533" type="curve"/>
      <point x="22" y="526"/>
      <point x="32" y="524"/>
      <point x="58" y="524" type="curve" smooth="yes"/>
      <point x="74" y="524" type="line"/>
      <point x="74" y="100" type="line"/>
      <point x="58" y="100" type="line" smooth="yes"/>
      <point x="33" y="100"/>
      <point x="25" y="99"/>
      <point x="16" y="93" type="curve" smooth="yes"/>
      <point x="1" y="84"/>
      <point x="-8" y="67"/>
      <point x="-8" y="50" type="curve" smooth="yes"/>
      <point x="-8" y="34"/>
      <point x="0" y="19"/>
      <point x="12" y="9" type="curve"/>
      <point x="21" y="3"/>
      <point x="34" y="0"/>
      <point x="58" y="0" type="curve" smooth="yes"/>
      <point x="174" y="0" type="line"/>
      <point x="174" y="35" type="line"/>
      <point x="226" y="-1"/>
      <point x="266" y="-14"/>
      <point x="325" y="-14" type="curve" smooth="yes"/>
      <point x="399" y="-14"/>
      <point x="455" y="7"/>
      <point x="501" y="51" type="curve" smooth="yes"/>
      <point x="547" y="96"/>
      <point x="571" y="153"/>
      <point x="571" y="218" type="curve" smooth="yes"/>
      <point x="571" y="284"/>
      <point x="547" y="342"/>
      <point x="501" y="386" type="curve" smooth="yes"/>
      <point x="455" y="430"/>
      <point x="399" y="451"/>
      <point x="324" y="451" type="curve" smooth="yes"/>
      <point x="264" y="451"/>
      <point x="217" y="435"/>
      <point x="174" y="401" type="curve"/>
    </contour>
    <contour>
      <point x="323" y="351" type="curve" smooth="yes"/>
      <point x="371" y="351"/>
      <point x="403" y="339"/>
      <point x="432" y="311" type="curve" smooth="yes"/>
      <point x="456" y="286"/>
      <point x="471" y="252"/>
      <point x="471" y="219" type="curve" smooth="yes"/>
      <point x="471" y="185"/>
      <point x="457" y="151"/>
      <point x="432" y="126" type="curve" smooth="yes"/>
      <point x="404" y="99"/>
      <point x="370" y="86"/>
      <point x="323" y="86" type="curve" smooth="yes"/>
      <point x="235" y="86"/>
      <point x="174" y="141"/>
      <point x="174" y="220" type="curve" smooth="yes"/>
      <point x="174" y="253"/>
      <point x="188" y="286"/>
      <point x="213" y="311" type="curve" smooth="yes"/>
      <point x="241" y="339"/>
      <point x="274" y="351"/>
    </contour>
  </outline>
</glyph>
<glyph name="f" format="1">
  <advance width="600"/>
  <unicode hex="0066"/>
  <outline>
    <contour>
      <point x="299" y="337" type="line"/>
      <point x="450" y="337" type="line" smooth="yes"/>
      <point x="472" y="337"/>
      <point x="484" y="339"/>
      <point x="492" y="344" type="curve" smooth="yes"/>
      <point x="507" y="354"/>
      <point x="516" y="370"/>
      <point x="516" y="387" type="curve" smooth="yes"/>
      <point x="516" y="403"/>
      <point x="508" y="418"/>
      <point x="495" y="428" type="curve" smooth="yes"/>
      <point x="485" y="435"/>
      <point x="477" y="437"/>
      <point x="450" y="437" type="curve" smooth="yes"/>
      <point x="299" y="437" type="line"/>
      <point x="299" y="474" type="line" smooth="yes"/>
      <point x="299" y="507"/>
      <point x="326" y="523"/>
      <point x="383" y="523" type="curve" smooth="yes"/>
      <point x="414" y="523"/>
      <point x="462" y="518"/>
      <point x="496" y="512" type="curve" smooth="yes"/>
      <point x="508" y="510"/>
      <point x="518" y="509"/>
      <point x="524" y="509" type="curve" smooth="yes"/>
      <point x="550" y="509"/>
      <point x="571" y="531"/>
      <point x="571" y="560" type="curve" smooth="yes"/>
      <point x="571" y="583"/>
      <point x="556" y="600"/>
      <point x="529" y="607" type="curve" smooth="yes"/>
      <point x="497" y="616"/>
      <point x="434" y="623"/>
      <point x="392" y="623" type="curve" smooth="yes"/>
      <point x="273" y="623"/>
      <point x="199" y="566"/>
      <point x="199" y="474" type="curve" smooth="yes"/>
      <point x="199" y="437" type="line"/>
      <point x="153" y="437" type="line" smooth="yes"/>
      <point x="126" y="437"/>
      <point x="119" y="436"/>
      <point x="110" y="430" type="curve" smooth="yes"/>
      <point x="95" y="421"/>
      <point x="86" y="404"/>
      <point x="86" y="387" type="curve" smooth="yes"/>
      <point x="86" y="371"/>
      <point x="94" y="356"/>
      <point x="107" y="347" type="curve"/>
      <point x="116" y="339"/>
      <point x="128" y="337"/>
      <point x="152" y="337" type="curve" smooth="yes"/>
      <point x="199" y="337" type="line"/>
      <point x="199" y="100" type="line"/>
      <point x="141" y="100" type="line" smooth="yes"/>
      <point x="115" y="100"/>
      <point x="108" y="99"/>
      <point x="99" y="93" type="curve" smooth="yes"/>
      <point x="84" y="84"/>
      <point x="75" y="67"/>
      <point x="75" y="50" type="curve" smooth="yes"/>
      <point x="75" y="35"/>
      <point x="83" y="19"/>
      <point x="95" y="10" type="curve" smooth="yes"/>
      <point x="104" y="3"/>
      <point x="118" y="0"/>
      <point x="141" y="0" type="curve" smooth="yes"/>
      <point x="438" y="0" type="line" smooth="yes"/>
      <point x="458" y="0"/>
      <point x="473" y="3"/>
      <point x="480" y="7" type="curve"/>
      <point x="495" y="17"/>
      <point x="504" y="33"/>
      <point x="504" y="50" type="curve" smooth="yes"/>
      <point x="504" y="66"/>
      <point x="496" y="81"/>
      <point x="484" y="91" type="curve"/>
      <point x="474" y="98"/>
      <point x="465" y="100"/>
      <point x="438" y="100" type="curve" smooth="yes"/>
      <point x="299" y="100" type="line"/>
    </contour>
  </outline>
</glyph>
<glyph name="h" format="1">
  <advance width="600"/>
  <unicode hex="0068"/>
  <outline>
    <contour>
      <point x="195" y="624" type="line"/>
      <point x="79" y="624" type="line" smooth="yes"/>
      <point x="55" y="624"/>
      <point x="46" y="622"/>
      <point x="37" y="617" type="curve" smooth="yes"/>
      <point x="22" y="608"/>
      <point x="13" y="591"/>
      <point x="13" y="574" type="curve" smooth="yes"/>
      <point x="13" y="559"/>
      <point x="21" y="543"/>
      <point x="33" y="533" type="curve"/>
      <point x="43" y="526"/>
      <point x="53" y="524"/>
      <point x="79" y="524" type="curve" smooth="yes"/>
      <point x="95" y="524" type="line"/>
      <point x="95" y="100" type="line"/>
      <point x="89" y="100" type="line" smooth="yes"/>
      <point x="64" y="100"/>
      <point x="56" y="98"/>
      <point x="47" y="93" type="curve" smooth="yes"/>
      <point x="32" y="84"/>
      <point x="23" y="67"/>
      <point x="23" y="50" type="curve" smooth="yes"/>
      <point x="23" y="35"/>
      <point x="31" y="19"/>
      <point x="44" y="9" type="curve"/>
      <point x="53" y="3"/>
      <point x="65" y="0"/>
      <point x="89" y="0" type="curve" smooth="yes"/>
      <point x="201" y="0" type="line" smooth="yes"/>
      <point x="222" y="0"/>
      <point x="236" y="2"/>
      <point x="244" y="7" type="curve" smooth="yes"/>
      <point x="259" y="17"/>
      <point x="268" y="33"/>
      <point x="268" y="50" type="curve" smooth="yes"/>
      <point x="268" y="66"/>
      <point x="260" y="81"/>
      <point x="247" y="91" type="curve" smooth="yes"/>
      <point x="237" y="98"/>
      <point x="229" y="100"/>
      <point x="201" y="100" type="curve" smooth="yes"/>
      <point x="195" y="100" type="line"/>
      <point x="195" y="283" type="line"/>
      <point x="252" y="338"/>
      <point x="274" y="350"/>
      <point x="321" y="350" type="curve" smooth="yes"/>
      <point x="352" y="350"/>
      <point x="371" y="345"/>
      <point x="388" y="331" type="curve" smooth="yes"/>
      <point x="405" y="317"/>
      <point x="409" y="305"/>
      <point x="409" y="271" type="curve" smooth="yes"/>
      <point x="409" y="100" type="line"/>
      <point x="403" y="100" type="line" smooth="yes"/>
      <point x="378" y="100"/>
      <point x="369" y="98"/>
      <point x="360" y="93" type="curve"/>
      <point x="345" y="83"/>
      <point x="336" y="67"/>
      <point x="336" y="50" type="curve" smooth="yes"/>
      <point x="336" y="34"/>
      <point x="344" y="19"/>
      <point x="357" y="9" type="curve"/>
      <point x="366" y="3"/>
      <point x="379" y="0"/>
      <point x="403" y="0" type="curve" smooth="yes"/>
      <point x="515" y="0" type="line" smooth="yes"/>
      <point x="536" y="0"/>
      <point x="549" y="2"/>
      <point x="557" y="7" type="curve" smooth="yes"/>
      <point x="572" y="16"/>
      <point x="581" y="33"/>
      <point x="581" y="50" type="curve" smooth="yes"/>
      <point x="581" y="66"/>
      <point x="573" y="81"/>
      <point x="561" y="91" type="curve"/>
      <point x="551" y="98"/>
      <point x="542" y="100"/>
      <point x="515" y="100" type="curve" smooth="yes"/>
      <point x="509" y="100" type="line"/>
      <point x="509" y="284" type="line" smooth="yes"/>
      <point x="509" y="384"/>
      <point x="438" y="450"/>
      <point x="332" y="450" type="curve" smooth="yes"/>
      <point x="280" y="450"/>
      <point x="235" y="430"/>
      <point x="195" y="389" type="curve"/>
    </contour>
  </outline>
</glyph>
<glyph name="j" format="1">
  <advance width="600"/>
  <unicode hex="006A"/>
  <outline>
    <contour>
      <point x="388" y="337" type="line"/>
      <point x="388" y="-20" type="line" smooth="yes"/>
      <point x="388" y="-72"/>
      <point x="351" y="-105"/>
      <point x="294" y="-105" type="curve" smooth="yes"/>
      <point x="183" y="-105" type="line" smooth="yes"/>
      <point x="158" y="-105"/>
      <point x="150" y="-106"/>
      <point x="141" y="-112" type="curve" smooth="yes"/>
      <point x="127" y="-121"/>
      <point x="117" y="-138"/>
      <point x="117" y="-155" type="curve" smooth="yes"/>
      <point x="117" y="-170"/>
      <point x="125" y="-186"/>
      <point x="138" y="-195" type="curve"/>
      <point x="147" y="-203"/>
      <point x="158" y="-205"/>
      <point x="183" y="-205" type="curve" smooth="yes"/>
      <point x="297" y="-205" type="line" smooth="yes"/>
      <point x="406" y="-205"/>
      <point x="488" y="-125"/>
      <point x="488" y="-20" type="curve" smooth="yes"/>
      <point x="488" y="437" type="line"/>
      <point x="186" y="437" type="line" smooth="yes"/>
      <point x="160" y="437"/>
      <point x="153" y="436"/>
      <point x="144" y="430" type="curve" smooth="yes"/>
      <point x="129" y="421"/>
      <point x="120" y="404"/>
      <point x="120" y="387" type="curve" smooth="yes"/>
      <point x="120" y="372"/>
      <point x="128" y="356"/>
      <point x="141" y="347" type="curve"/>
      <point x="150" y="339"/>
      <point x="161" y="337"/>
      <point x="186" y="337" type="curve" smooth="yes"/>
    </contour>
    <contour>
      <point x="430" y="623" type="line"/>
      <point x="311" y="623" type="line"/>
      <point x="311" y="518" type="line"/>
      <point x="430" y="518" type="line"/>
    </contour>
  </outline>
</glyph>
<glyph name="m" format="1">
  <advance width="600"/>
  <unicode hex="006D"/>
  <outline>
    <contour>
      <point x="141" y="437" type="line"/>
      <point x="48" y="437" type="line" smooth="yes"/>
      <point x="40" y="437"/>
      <point x="38" y="437"/>
      <point x="27" y="435" type="curve"/>
      <point x="-2" y="432"/>
      <point x="-19" y="413"/>
      <point x="-19" y="387" type="curve" smooth="yes"/>
      <point x="-19" y="356"/>
      <point x="3" y="338"/>
      <point x="41" y="337" type="curve"/>
      <point x="41" y="100" type="line"/>
      <point x="3" y="100"/>
      <point x="-19" y="82"/>
      <point x="-19" y="50" type="curve" smooth="yes"/>
      <point x="-19" y="35"/>
      <point x="-11" y="19"/>
      <point x="2" y="10" type="curve"/>
      <point x="11" y="3"/>
      <point x="24" y="0"/>
      <point x="48" y="0" type="curve" smooth="yes"/>
      <point x="136" y="0" type="line" smooth="yes"/>
      <point x="157" y="0"/>
      <point x="170" y="2"/>
      <point x="178" y="7" type="curve" smooth="yes"/>
      <point x="193" y="17"/>
      <point x="202" y="33"/>
      <point x="202" y="50" type="curve" smooth="yes"/>
      <point x="202" y="82"/>
      <point x="180" y="100"/>
      <point x="141" y="100" type="curve"/>
      <point x="141" y="305" type="line"/>
      <point x="171" y="339"/>
      <point x="190" y="350"/>
      <point x="217" y="350" type="curve" smooth="yes"/>
      <point x="242" y="350"/>
      <point x="252" y="339"/>
      <point x="252" y="311" type="curve" smooth="yes"/>
      <point x="252" y="0" type="line"/>
      <point x="346" y="0" type="line" smooth="yes"/>
      <point x="367" y="0"/>
      <point x="380" y="2"/>
      <point x="388" y="7" type="curve" smooth="yes"/>
      <point x="403" y="17"/>
      <point x="412" y="33"/>
      <point x="412" y="50" type="curve" smooth="yes"/>
      <point x="412" y="81"/>
      <point x="390" y="100"/>
      <point x="352" y="100" type="curve"/>
      <point x="352" y="305" type="line"/>
      <point x="386" y="341"/>
      <point x="402" y="350"/>
      <point x="428" y="350" type="curve" smooth="yes"/>
      <point x="454" y="350"/>
      <point x="463" y="340"/>
      <point x="463" y="311" type="curve" smooth="yes"/>
      <point x="463" y="0" type="line"/>
      <point x="557" y="0" type="line" smooth="yes"/>
      <point x="601" y="0"/>
      <point x="623" y="17"/>
      <point x="623" y="50" type="curve" smooth="yes"/>
      <point x="623" y="82"/>
      <point x="601" y="100"/>
      <point x="563" y="100" type="curve"/>
      <point x="563" y="319" type="line" smooth="yes"/>
      <point x="563" y="394"/>
      <point x="507" y="450"/>
      <point x="432" y="450" type="curve" smooth="yes"/>
      <point x="391" y="450"/>
      <point x="359" y="435"/>
      <point x="328" y="401" type="curve"/>
      <point x="298" y="434"/>
      <point x="265" y="450"/>
      <point x="226" y="450" type="curve" smooth="yes"/>
      <point x="196" y="450"/>
      <point x="176" y="441"/>
      <point x="141" y="413" type="curve"/>
    </contour>
  </outline>
</glyph>
<glyph name="n" format="1">
  <advance width="600"/>
  <unicode hex="006E"/>
  <outline>
    <contour>
      <point x="195" y="437" type="line"/>
      <point x="101" y="437" type="line" smooth="yes"/>
      <point x="93" y="437"/>
      <point x="91" y="437"/>
      <point x="80" y="435" type="curve"/>
      <point x="51" y="432"/>
      <point x="34" y="414"/>
      <point x="34" y="387" type="curve" smooth="yes"/>
      <point x="34" y="355"/>
      <point x="56" y="338"/>
      <point x="95" y="337" type="curve"/>
      <point x="95" y="100" type="line"/>
      <point x="89" y="100" type="line" smooth="yes"/>
      <point x="64" y="100"/>
      <point x="56" y="98"/>
      <point x="47" y="93" type="curve" smooth="yes"/>
      <point x="32" y="84"/>
      <point x="23" y="67"/>
      <point x="23" y="50" type="curve" smooth="yes"/>
      <point x="23" y="35"/>
      <point x="31" y="19"/>
      <point x="43" y="10" type="curve" smooth="yes"/>
      <point x="53" y="3"/>
      <point x="65" y="0"/>
      <point x="89" y="0" type="curve" smooth="yes"/>
      <point x="201" y="0" type="line" smooth="yes"/>
      <point x="222" y="0"/>
      <point x="235" y="2"/>
      <point x="243" y="7" type="curve" smooth="yes"/>
      <point x="258" y="17"/>
      <point x="267" y="33"/>
      <point x="267" y="50" type="curve" smooth="yes"/>
      <point x="267" y="66"/>
      <point x="259" y="81"/>
      <point x="246" y="91" type="curve" smooth="yes"/>
      <point x="236" y="98"/>
      <point x="228" y="100"/>
      <point x="201" y="100" type="curve" smooth="yes"/>
      <point x="195" y="100" type="line"/>
      <point x="195" y="282" type="line"/>
      <point x="242" y="333"/>
      <point x="274" y="350"/>
      <point x="320" y="350" type="curve" smooth="yes"/>
      <point x="382" y="350"/>
      <point x="410" y="327"/>
      <point x="410" y="278" type="curve" smooth="yes"/>
      <point x="410" y="100" type="line"/>
      <point x="371" y="100"/>
      <point x="349" y="82"/>
      <point x="349" y="50" type="curve" smooth="yes"/>
      <point x="349" y="17"/>
      <point x="371" y="0"/>
      <point x="416" y="0" type="curve" smooth="yes"/>
      <point x="505" y="0" type="line" smooth="yes"/>
      <point x="526" y="0"/>
      <point x="539" y="2"/>
      <point x="547" y="7" type="curve" smooth="yes"/>
      <point x="562" y="16"/>
      <point x="571" y="33"/>
      <point x="571" y="50" type="curve" smooth="yes"/>
      <point x="571" y="82"/>
      <point x="549" y="100"/>
      <point x="510" y="100" type="curve"/>
      <point x="510" y="282" type="line" smooth="yes"/>
      <point x="510" y="341"/>
      <point x="491" y="383"/>
      <point x="451" y="413" type="curve" smooth="yes"/>
      <point x="418" y="437"/>
      <point x="377" y="450"/>
      <point x="332" y="450" type="curve" smooth="yes"/>
      <point x="277" y="450"/>
      <point x="243" y="435"/>
      <point x="195" y="389" type="curve"/>
    </contour>
  </outline>
</glyph>
<glyph name="o" format="1">
  <advance width="600"/>
  <unicode hex="006F"/>
  <outline>
    <contour>
      <point x="303" y="450" type="curve" smooth="yes"/>
      <point x="155" y="450"/>
      <point x="42" y="349"/>
      <point x="42" y="217" type="curve" smooth="yes"/>
      <point x="42" y="87"/>
      <point x="156" y="-16"/>
      <point x="300" y="-16" type="curve" smooth="yes"/>
      <point x="444" y="-16"/>
      <point x="558" y="87"/>
      <point x="558" y="217" type="curve" smooth="yes"/>
      <point x="558" y="346"/>
      <point x="444" y="450"/>
    </contour>
    <contour>
      <point x="302" y="350" type="curve" smooth="yes"/>
      <point x="389" y="350"/>
      <point x="458" y="291"/>
      <point x="458" y="217" type="curve" smooth="yes"/>
      <point x="458" y="142"/>
      <point x="389" y="84"/>
      <point x="300" y="84" type="curve" smooth="yes"/>
      <point x="211" y="84"/>
      <point x="142" y="142"/>
      <point x="142" y="217" type="curve" smooth="yes"/>
      <point x="142" y="293"/>
      <point x="211" y="350"/>
    </contour>
  </outline>
</glyph>
<glyph name="p" format="1">
  <advance width="600"/>
  <unicode hex="0070"/>
  <outline>
    <contour>
      <point x="174" y="66" type="line"/>
      <point x="226" y="26"/>
      <point x="270" y="10"/>
      <point x="329" y="10" type="curve" smooth="yes"/>
      <point x="468" y="10"/>
      <point x="571" y="101"/>
      <point x="571" y="224" type="curve" smooth="yes"/>
      <point x="571" y="353"/>
      <point x="467" y="450"/>
      <point x="327" y="450" type="curve" smooth="yes"/>
      <point x="265" y="450"/>
      <point x="223" y="434"/>
      <point x="174" y="392" type="curve"/>
      <point x="174" y="437" type="line"/>
      <point x="58" y="437" type="line" smooth="yes"/>
      <point x="34" y="437"/>
      <point x="25" y="435"/>
      <point x="16" y="430" type="curve" smooth="yes"/>
      <point x="1" y="421"/>
      <point x="-8" y="404"/>
      <point x="-8" y="387" type="curve" smooth="yes"/>
      <point x="-8" y="371"/>
      <point x="0" y="356"/>
      <point x="12" y="346" type="curve"/>
      <point x="22" y="339"/>
      <point x="32" y="337"/>
      <point x="58" y="337" type="curve" smooth="yes"/>
      <point x="74" y="337" type="line"/>
      <point x="74" y="-105" type="line"/>
      <point x="58" y="-105" type="line" smooth="yes"/>
      <point x="34" y="-105"/>
      <point x="25" y="-106"/>
      <point x="16" y="-112" type="curve" smooth="yes"/>
      <point x="1" y="-121"/>
      <point x="-8" y="-138"/>
      <point x="-8" y="-155" type="curve" smooth="yes"/>
      <point x="-8" y="-171"/>
      <point x="0" y="-186"/>
      <point x="12" y="-195" type="curve" smooth="yes"/>
      <point x="22" y="-203"/>
      <point x="33" y="-205"/>
      <point x="58" y="-205" type="curve" smooth="yes"/>
      <point x="232" y="-205" type="line" smooth="yes"/>
      <point x="254" y="-205"/>
      <point x="266" y="-203"/>
      <point x="274" y="-198" type="curve" smooth="yes"/>
      <point x="289" y="-188"/>
      <point x="298" y="-172"/>
      <point x="298" y="-155" type="curve" smooth="yes"/>
      <point x="298" y="-139"/>
      <point x="291" y="-124"/>
      <point x="278" y="-114" type="curve" smooth="yes"/>
      <point x="268" y="-107"/>
      <point x="258" y="-105"/>
      <point x="232" y="-105" type="curve" smooth="yes"/>
      <point x="174" y="-105" type="line"/>
    </contour>
    <contour>
      <point x="323" y="350" type="curve" smooth="yes"/>
      <point x="364" y="350"/>
      <point x="397" y="341"/>
      <point x="423" y="321" type="curve" smooth="yes"/>
      <point x="452" y="300"/>
      <point x="471" y="263"/>
      <point x="471" y="230" type="curve" smooth="yes"/>
      <point x="471" y="160"/>
      <point x="409" y="110"/>
      <point x="323" y="110" type="curve" smooth="yes"/>
      <point x="235" y="110"/>
      <point x="174" y="160"/>
      <point x="174" y="231" type="curve" smooth="yes"/>
      <point x="174" y="263"/>
      <point x="193" y="300"/>
      <point x="222" y="321" type="curve" smooth="yes"/>
      <point x="248" y="341"/>
      <point x="281" y="350"/>
    </contour>
  </outline>
</glyph>
<glyph name="q" format="1">
  <advance width="600"/>
  <unicode hex="0071"/>
  <outline>
    <contour>
      <point x="431" y="-105" type="line"/>
      <point x="373" y="-105" type="line" smooth="yes"/>
      <point x="349" y="-105"/>
      <point x="339" y="-107"/>
      <point x="331" y="-112" type="curve" smooth="yes"/>
      <point x="316" y="-121"/>
      <point x="307" y="-138"/>
      <point x="307" y="-155" type="curve" smooth="yes"/>
      <point x="307" y="-171"/>
      <point x="314" y="-185"/>
      <point x="327" y="-195" type="curve" smooth="yes"/>
      <point x="337" y="-203"/>
      <point x="348" y="-205"/>
      <point x="373" y="-205" type="curve" smooth="yes"/>
      <point x="547" y="-205" type="line" smooth="yes"/>
      <point x="569" y="-205"/>
      <point x="581" y="-203"/>
      <point x="589" y="-198" type="curve" smooth="yes"/>
      <point x="604" y="-188"/>
      <point x="613" y="-172"/>
      <point x="613" y="-155" type="curve" smooth="yes"/>
      <point x="613" y="-139"/>
      <point x="605" y="-124"/>
      <point x="593" y="-114" type="curve"/>
      <point x="583" y="-107"/>
      <point x="574" y="-105"/>
      <point x="547" y="-105" type="curve" smooth="yes"/>
      <point x="531" y="-105" type="line"/>
      <point x="531" y="337" type="line"/>
      <point x="547" y="337" type="line" smooth="yes"/>
      <point x="570" y="337"/>
      <point x="581" y="339"/>
      <point x="589" y="344" type="curve" smooth="yes"/>
      <point x="604" y="353"/>
      <point x="613" y="370"/>
      <point x="613" y="387" type="curve" smooth="yes"/>
      <point x="613" y="403"/>
      <point x="605" y="418"/>
      <point x="593" y="428" type="curve"/>
      <point x="583" y="435"/>
      <point x="574" y="437"/>
      <point x="547" y="437" type="curve" smooth="yes"/>
      <point x="431" y="437" type="line"/>
      <point x="431" y="392" type="line"/>
      <point x="382" y="434"/>
      <point x="340" y="450"/>
      <point x="277" y="450" type="curve" smooth="yes"/>
      <point x="137" y="450"/>
      <point x="33" y="354"/>
      <point x="33" y="224" type="curve" smooth="yes"/>
      <point x="33" y="101"/>
      <point x="136" y="10"/>
      <point x="275" y="10" type="curve" smooth="yes"/>
      <point x="334" y="10"/>
      <point x="379" y="26"/>
      <point x="431" y="66" type="curve"/>
    </contour>
    <contour>
      <point x="281" y="350" type="curve" smooth="yes"/>
      <point x="370" y="350"/>
      <point x="431" y="300"/>
      <point x="431" y="229" type="curve" smooth="yes"/>
      <point x="431" y="197"/>
      <point x="412" y="161"/>
      <point x="383" y="139" type="curve" smooth="yes"/>
      <point x="358" y="120"/>
      <point x="324" y="110"/>
      <point x="282" y="110" type="curve" smooth="yes"/>
      <point x="240" y="110"/>
      <point x="206" y="120"/>
      <point x="181" y="139" type="curve" smooth="yes"/>
      <point x="152" y="161"/>
      <point x="133" y="197"/>
      <point x="133" y="230" type="curve" smooth="yes"/>
      <point x="133" y="263"/>
      <point x="152" y="299"/>
      <point x="181" y="321" type="curve" smooth="yes"/>
      <point x="207" y="340"/>
      <point x="240" y="350"/>
    </contour>
  </outline>
</glyph>
<glyph name="v" format="1">
  <advance width="600"/>
  <unicode hex="0076"/>
  <outline>
    <contour>
      <point x="302" y="122" type="line"/>
      <point x="193" y="337" type="line"/>
      <point x="198" y="337" type="line" smooth="yes"/>
      <point x="221" y="337"/>
      <point x="232" y="339"/>
      <point x="240" y="344" type="curve" smooth="yes"/>
      <point x="255" y="353"/>
      <point x="264" y="370"/>
      <point x="264" y="387" type="curve" smooth="yes"/>
      <point x="264" y="403"/>
      <point x="256" y="418"/>
      <point x="244" y="428" type="curve"/>
      <point x="234" y="435"/>
      <point x="224" y="437"/>
      <point x="198" y="437" type="curve" smooth="yes"/>
      <point x="66" y="437" type="line" smooth="yes"/>
      <point x="42" y="437"/>
      <point x="33" y="435"/>
      <point x="24" y="430" type="curve" smooth="yes"/>
      <point x="9" y="421"/>
      <point x="0" y="404"/>
      <point x="0" y="387" type="curve" smooth="yes"/>
      <point x="0" y="371"/>
      <point x="8" y="356"/>
      <point x="21" y="346" type="curve" smooth="yes"/>
      <point x="30" y="339"/>
      <point x="41" y="337"/>
      <point x="66" y="337" type="curve" smooth="yes"/>
      <point x="80" y="337" type="line"/>
      <point x="247" y="0" type="line"/>
      <point x="351" y="0" type="line"/>
      <point x="518" y="337" type="line"/>
      <point x="534" y="337" type="line" smooth="yes"/>
      <point x="557" y="337"/>
      <point x="568" y="339"/>
      <point x="576" y="344" type="curve" smooth="yes"/>
      <point x="591" y="353"/>
      <point x="600" y="370"/>
      <point x="600" y="387" type="curve" smooth="yes"/>
      <point x="600" y="403"/>
      <point x="592" y="418"/>
      <point x="580" y="428" type="curve"/>
      <point x="570" y="435"/>
      <point x="560" y="437"/>
      <point x="534" y="437" type="curve" smooth="yes"/>
      <point x="399" y="437" type="line" smooth="yes"/>
      <point x="375" y="437"/>
      <point x="366" y="435"/>
      <point x="357" y="430" type="curve" smooth="yes"/>
      <point x="342" y="421"/>
      <point x="333" y="404"/>
      <point x="333" y="387" type="curve" smooth="yes"/>
      <point x="333" y="371"/>
      <point x="341" y="356"/>
      <point x="354" y="346" type="curve" smooth="yes"/>
      <point x="363" y="339"/>
      <point x="374" y="337"/>
      <point x="399" y="337" type="curve" smooth="yes"/>
      <point x="409" y="337" type="line"/>
    </contour>
  </outline>
</glyph>
<glyph name="w" format="1">
  <advance width="600"/>
  <unicode hex="0077"/>
  <outline>
    <contour>
      <point x="301" y="181" type="line"/>
      <point x="372" y="0" type="line"/>
      <point x="464" y="0" type="line"/>
      <point x="548" y="338" type="line"/>
      <point x="581" y="340"/>
      <point x="600" y="358"/>
      <point x="600" y="387" type="curve" smooth="yes"/>
      <point x="600" y="403"/>
      <point x="592" y="418"/>
      <point x="579" y="428" type="curve" smooth="yes"/>
      <point x="570" y="435"/>
      <point x="560" y="437"/>
      <point x="534" y="437" type="curve" smooth="yes"/>
      <point x="441" y="437" type="line" smooth="yes"/>
      <point x="420" y="437"/>
      <point x="404" y="434"/>
      <point x="396" y="427" type="curve"/>
      <point x="383" y="418"/>
      <point x="375" y="402"/>
      <point x="375" y="387" type="curve" smooth="yes"/>
      <point x="375" y="372"/>
      <point x="383" y="356"/>
      <point x="396" y="347" type="curve"/>
      <point x="405" y="340"/>
      <point x="415" y="338"/>
      <point x="441" y="338" type="curve" smooth="yes"/>
      <point x="448" y="338" type="line"/>
      <point x="408" y="185" type="line"/>
      <point x="347" y="343" type="line"/>
      <point x="259" y="343" type="line"/>
      <point x="199" y="185" type="line"/>
      <point x="160" y="338" type="line"/>
      <point x="185" y="338"/>
      <point x="193" y="340"/>
      <point x="201" y="345" type="curve" smooth="yes"/>
      <point x="215" y="354"/>
      <point x="224" y="370"/>
      <point x="224" y="387" type="curve" smooth="yes"/>
      <point x="224" y="403"/>
      <point x="216" y="418"/>
      <point x="204" y="428" type="curve"/>
      <point x="194" y="435"/>
      <point x="184" y="437"/>
      <point x="158" y="437" type="curve" smooth="yes"/>
      <point x="66" y="437" type="line" smooth="yes"/>
      <point x="58" y="437"/>
      <point x="57" y="437"/>
      <point x="45" y="435" type="curve"/>
      <point x="17" y="432"/>
      <point x="0" y="414"/>
      <point x="0" y="387" type="curve" smooth="yes"/>
      <point x="0" y="358"/>
      <point x="20" y="340"/>
      <point x="54" y="338" type="curve"/>
      <point x="139" y="0" type="line"/>
      <point x="233" y="0" type="line"/>
    </contour>
  </outline>
</glyph>
<glyph name="x" format="1">
  <advance width="600"/>
  <unicode hex="0078"/>
  <outline>
    <contour>
      <point x="373" y="227" type="line"/>
      <point x="505" y="337" type="line"/>
      <point x="539" y="340"/>
      <point x="558" y="358"/>
      <point x="558" y="387" type="curve" smooth="yes"/>
      <point x="558" y="403"/>
      <point x="550" y="418"/>
      <point x="537" y="428" type="curve" smooth="yes"/>
      <point x="527" y="435"/>
      <point x="517" y="437"/>
      <point x="491" y="437" type="curve" smooth="yes"/>
      <point x="400" y="437" type="line" smooth="yes"/>
      <point x="392" y="437"/>
      <point x="391" y="437"/>
      <point x="379" y="435" type="curve"/>
      <point x="351" y="432"/>
      <point x="334" y="414"/>
      <point x="334" y="386" type="curve" smooth="yes"/>
      <point x="334" y="369"/>
      <point x="341" y="356"/>
      <point x="360" y="343" type="curve"/>
      <point x="299" y="293" type="line"/>
      <point x="238" y="342" type="line"/>
      <point x="255" y="353"/>
      <point x="264" y="370"/>
      <point x="264" y="388" type="curve" smooth="yes"/>
      <point x="264" y="403"/>
      <point x="256" y="418"/>
      <point x="244" y="427" type="curve" smooth="yes"/>
      <point x="234" y="435"/>
      <point x="224" y="437"/>
      <point x="198" y="437" type="curve" smooth="yes"/>
      <point x="106" y="437" type="line" smooth="yes"/>
      <point x="98" y="437"/>
      <point x="97" y="437"/>
      <point x="85" y="435" type="curve"/>
      <point x="57" y="432"/>
      <point x="40" y="414"/>
      <point x="40" y="387" type="curve" smooth="yes"/>
      <point x="40" y="358"/>
      <point x="59" y="340"/>
      <point x="92" y="337" type="curve"/>
      <point x="220" y="228" type="line"/>
      <point x="75" y="100" type="line"/>
      <point x="41" y="98"/>
      <point x="21" y="80"/>
      <point x="21" y="50" type="curve" smooth="yes"/>
      <point x="21" y="17"/>
      <point x="43" y="0"/>
      <point x="87" y="0" type="curve" smooth="yes"/>
      <point x="198" y="0" type="line" smooth="yes"/>
      <point x="242" y="0"/>
      <point x="264" y="17"/>
      <point x="264" y="51" type="curve" smooth="yes"/>
      <point x="264" y="75"/>
      <point x="254" y="88"/>
      <point x="226" y="100" type="curve"/>
      <point x="299" y="161" type="line"/>
      <point x="374" y="100" type="line"/>
      <point x="349" y="93"/>
      <point x="334" y="74"/>
      <point x="334" y="51" type="curve" smooth="yes"/>
      <point x="334" y="34"/>
      <point x="341" y="20"/>
      <point x="354" y="10" type="curve" smooth="yes"/>
      <point x="364" y="3"/>
      <point x="376" y="0"/>
      <point x="401" y="0" type="curve" smooth="yes"/>
      <point x="513" y="0" type="line" smooth="yes"/>
      <point x="534" y="0"/>
      <point x="547" y="2"/>
      <point x="555" y="7" type="curve" smooth="yes"/>
      <point x="569" y="16"/>
      <point x="579" y="33"/>
      <point x="579" y="50" type="curve" smooth="yes"/>
      <point x="579" y="80"/>
      <point x="559" y="98"/>
      <point x="525" y="100" type="curve"/>
    </contour>
  </outline>
</glyph>
<glyph name="y" format="1">
  <advance width="600"/>
  <unicode hex="0079"/>
  <outline>
    <contour>
      <point x="242" y="3" type="line"/>
      <point x="187" y="-105" type="line"/>
      <point x="87" y="-105" type="line" smooth="yes"/>
      <point x="63" y="-105"/>
      <point x="54" y="-107"/>
      <point x="45" y="-112" type="curve" smooth="yes"/>
      <point x="30" y="-121"/>
      <point x="21" y="-138"/>
      <point x="21" y="-155" type="curve" smooth="yes"/>
      <point x="21" y="-171"/>
      <point x="29" y="-186"/>
      <point x="42" y="-195" type="curve"/>
      <point x="51" y="-203"/>
      <point x="62" y="-205"/>
      <point x="87" y="-205" type="curve" smooth="yes"/>
      <point x="302" y="-205" type="line" smooth="yes"/>
      <point x="324" y="-205"/>
      <point x="336" y="-203"/>
      <point x="344" y="-198" type="curve" smooth="yes"/>
      <point x="359" y="-188"/>
      <point x="368" y="-172"/>
      <point x="368" y="-155" type="curve" smooth="yes"/>
      <point x="368" y="-139"/>
      <point x="360" y="-124"/>
      <point x="348" y="-114" type="curve"/>
      <point x="338" y="-107"/>
      <point x="328" y="-105"/>
      <point x="302" y="-105" type="curve" smooth="yes"/>
      <point x="297" y="-105" type="line"/>
      <point x="527" y="337" type="line"/>
      <point x="560" y="340"/>
      <point x="579" y="358"/>
      <point x="579" y="387" type="curve" smooth="yes"/>
      <point x="579" y="403"/>
      <point x="572" y="418"/>
      <point x="558" y="428" type="curve" smooth="yes"/>
      <point x="549" y="435"/>
      <point x="539" y="437"/>
      <point x="513" y="437" type="curve" smooth="yes"/>
      <point x="421" y="437" type="line" smooth="yes"/>
      <point x="413" y="437"/>
      <point x="411" y="437"/>
      <point x="400" y="435" type="curve"/>
      <point x="371" y="432"/>
      <point x="354" y="414"/>
      <point x="354" y="387" type="curve" smooth="yes"/>
      <point x="354" y="355"/>
      <point x="377" y="337"/>
      <point x="418" y="337" type="curve"/>
      <point x="298" y="114" type="line"/>
      <point x="184" y="337" type="line"/>
      <point x="222" y="338"/>
      <point x="243" y="356"/>
      <point x="243" y="387" type="curve" smooth="yes"/>
      <point x="243" y="403"/>
      <point x="235" y="418"/>
      <point x="223" y="428" type="curve"/>
      <point x="213" y="435"/>
      <point x="203" y="437"/>
      <point x="177" y="437" type="curve" smooth="yes"/>
      <point x="87" y="437" type="line" smooth="yes"/>
      <point x="80" y="437"/>
      <point x="78" y="437"/>
      <point x="67" y="435" type="curve"/>
      <point x="38" y="432"/>
      <point x="21" y="414"/>
      <point x="21" y="387" type="curve" smooth="yes"/>
      <point x="21" y="359"/>
      <point x="39" y="341"/>
      <point x="70" y="337" type="curve"/>
    </contour>
  </outline>
</glyph>
<glyph name="z" format="1">
  <advance width="600"/>
  <unicode hex="007A"/>
  <outline>
    <contour>
      <point x="244" y="100" type="line"/>
      <point x="506" y="356" type="line"/>
      <point x="506" y="437" type="line"/>
      <point x="97" y="437" type="line"/>
      <point x="97" y="328" type="line" smooth="yes"/>
      <point x="97" y="305"/>
      <point x="99" y="295"/>
      <point x="104" y="286" type="curve" smooth="yes"/>
      <point x="113" y="271"/>
      <point x="130" y="262"/>
      <point x="147" y="262" type="curve" smooth="yes"/>
      <point x="163" y="262"/>
      <point x="178" y="270"/>
      <point x="188" y="283" type="curve" smooth="yes"/>
      <point x="195" y="293"/>
      <point x="197" y="301"/>
      <point x="197" y="328" type="curve" smooth="yes"/>
      <point x="197" y="337" type="line"/>
      <point x="346" y="337" type="line"/>
      <point x="85" y="83" type="line"/>
      <point x="85" y="0" type="line"/>
      <point x="519" y="0" type="line"/>
      <point x="519" y="88" type="line" smooth="yes"/>
      <point x="519" y="114"/>
      <point x="518" y="121"/>
      <point x="512" y="130" type="curve" smooth="yes"/>
      <point x="503" y="145"/>
      <point x="486" y="154"/>
      <point x="469" y="154" type="curve" smooth="yes"/>
      <point x="439" y="154"/>
      <point x="421" y="135"/>
      <point x="419" y="100" type="curve"/>
    </contour>
  </outline>
</glyph>
<glyph name="braceleft" format="1">
  <advance width="600"/>
  <unicode hex="007B"/>
  <outline>
    <contour>
      <point x="348" y="485" type="line" smooth="yes"/>
      <point x="348" y="512"/>
      <point x="356" y="521"/>
      <point x="384" y="522" type="curve" smooth="yes"/>
      <point x="413" y="524"/>
      <point x="433" y="545"/>
      <point x="433" y="573" type="curve" smooth="yes"/>
      <point x="433" y="603"/>
      <point x="411" y="623"/>
      <point x="377" y="623" type="curve" smooth="yes"/>
      <point x="308" y="623"/>
      <point x="248" y="563"/>
      <point x="248" y="492" type="curve" smooth="yes"/>
      <point x="248" y="328" type="line" smooth="yes"/>
      <point x="248" y="301"/>
      <point x="242" y="293"/>
      <point x="216" y="290" type="curve" smooth="yes"/>
      <point x="184" y="287"/>
      <point x="167" y="269"/>
      <point x="167" y="240" type="curve" smooth="yes"/>
      <point x="167" y="210"/>
      <point x="184" y="193"/>
      <point x="216" y="189" type="curve" smooth="yes"/>
      <point x="242" y="186"/>
      <point x="248" y="179"/>
      <point x="248" y="151" type="curve" smooth="yes"/>
      <point x="248" y="-22" type="line" smooth="yes"/>
      <point x="248" y="-93"/>
      <point x="308" y="-153"/>
      <point x="378" y="-153" type="curve" smooth="yes"/>
      <point x="411" y="-153"/>
      <point x="433" y="-133"/>
      <point x="433" y="-103" type="curve" smooth="yes"/>
      <point x="433" y="-75"/>
      <point x="413" y="-54"/>
      <point x="384" y="-52" type="curve" smooth="yes"/>
      <point x="356" y="-50"/>
      <point x="348" y="-42"/>
      <point x="348" y="-15" type="curve" smooth="yes"/>
      <point x="348" y="142" type="line" smooth="yes"/>
      <point x="348" y="194"/>
      <point x="343" y="211"/>
      <point x="319" y="240" type="curve"/>
      <point x="342" y="268"/>
      <point x="348" y="285"/>
      <point x="348" y="328" type="curve" smooth="yes"/>
    </contour>
  </outline>
</glyph>
<glyph name="bar" format="1">
  <advance width="600"/>
  <unicode hex="007C"/>
  <outline>
    <contour>
      <point x="350" y="556" type="line" smooth="yes"/>
      <point x="350" y="580"/>
      <point x="348" y="589"/>
      <point x="343" y="598" type="curve" smooth="yes"/>
      <point x="334" y="613"/>
      <point x="317" y="622"/>
      <point x="300" y="622" type="curve" smooth="yes"/>
      <point x="284" y="622"/>
      <point x="269" y="614"/>
      <point x="259" y="602" type="curve"/>
      <point x="252" y="592"/>
      <point x="250" y="582"/>
      <point x="250" y="556" type="curve" smooth="yes"/>
      <point x="250" y="-87" type="line" smooth="yes"/>
      <point x="250" y="-110"/>
      <point x="252" y="-121"/>
      <point x="257" y="-129" type="curve" smooth="yes"/>
      <point x="267" y="-144"/>
      <point x="283" y="-153"/>
      <point x="300" y="-153" type="curve" smooth="yes"/>
      <point x="316" y="-153"/>
      <point x="331" y="-145"/>
      <point x="341" y="-132" type="curve" smooth="yes"/>
      <point x="348" y="-122"/>
      <point x="350" y="-112"/>
      <point x="350" y="-87" type="curve" smooth="yes"/>
    </contour>
  </outline>
</glyph>
<glyph name="braceright" format="1">
  <advance width="600"/>
  <unicode hex="007D"/>
  <outline>
    <contour>
      <point x="252" y="-15" type="line" smooth="yes"/>
      <point x="252" y="-42"/>
      <point x="244" y="-51"/>
      <point x="216" y="-52" type="curve" smooth="yes"/>
      <point x="187" y="-54"/>
      <point x="167" y="-75"/>
      <point x="167" y="-103" type="curve" smooth="yes"/>
      <point x="167" y="-133"/>
      <point x="189" y="-153"/>
      <point x="223" y="-153" type="curve" smooth="yes"/>
      <point x="292" y="-153"/>
      <point x="352" y="-93"/>
      <point x="352" y="-22" type="curve" smooth="yes"/>
      <point x="352" y="142" type="line" smooth="yes"/>
      <point x="352" y="169"/>
      <point x="358" y="177"/>
      <point x="384" y="180" type="curve" smooth="yes"/>
      <point x="416" y="183"/>
      <point x="433" y="201"/>
      <point x="433" y="230" type="curve" smooth="yes"/>
      <point x="433" y="260"/>
      <point x="416" y="277"/>
      <point x="384" y="281" type="curve" smooth="yes"/>
      <point x="358" y="284"/>
      <point x="352" y="291"/>
      <point x="352" y="319" type="curve" smooth="yes"/>
      <point x="352" y="492" type="line" smooth="yes"/>
      <point x="352" y="563"/>
      <point x="292" y="623"/>
      <point x="222" y="623" type="curve" smooth="yes"/>
      <point x="189" y="623"/>
      <point x="167" y="603"/>
      <point x="167" y="573" type="curve" smooth="yes"/>
      <point x="167" y="545"/>
      <point x="187" y="524"/>
      <point x="216" y="522" type="curve" smooth="yes"/>
      <point x="244" y="520"/>
      <point x="252" y="512"/>
      <point x="252" y="485" type="curve" smooth="yes"/>
      <point x="252" y="328" type="line" smooth="yes"/>
      <point x="252" y="276"/>
      <point x="257" y="259"/>
      <point x="281" y="230" type="curve"/>
      <point x="258" y="202"/>
      <point x="252" y="185"/>
      <point x="252" y="142" type="curve" smooth="yes"/>
    </contour>
  </outline>
</glyph>
<glyph name="asciitilde" format="1">
  <advance width="600"/>
  <unicode hex="007E"/>
  <outline>
    <contour>
      <point x="488" y="364" type="curve" smooth="yes"/>
      <point x="468" y="364"/>
      <point x="458" y="357"/>
      <point x="438" y="330" type="curve" smooth="yes"/>
      <point x="413" y="297"/>
      <point x="400" y="284"/>
      <point x="389" y="284" type="curve" smooth="yes"/>
      <point x="380" y="284"/>
      <point x="368" y="292"/>
      <point x="350" y="307" type="curve"/>
      <point x="282" y="370"/>
      <point x="255" y="385"/>
      <point x="213" y="385" type="curve" smooth="yes"/>
      <point x="172" y="385"/>
      <point x="140" y="367"/>
      <point x="101" y="322" type="curve" smooth="yes"/>
      <point x="72" y="290"/>
      <point x="62" y="271"/>
      <point x="62" y="252" type="curve" smooth="yes"/>
      <point x="62" y="225"/>
      <point x="86" y="201"/>
      <point x="113" y="201" type="curve" smooth="yes"/>
      <point x="131" y="201"/>
      <point x="139" y="207"/>
      <point x="165" y="239" type="curve" smooth="yes"/>
      <point x="192" y="272"/>
      <point x="202" y="281"/>
      <point x="212" y="281" type="curve" smooth="yes"/>
      <point x="220" y="281"/>
      <point x="233" y="272"/>
      <point x="254" y="254" type="curve" smooth="yes"/>
      <point x="314" y="200"/>
      <point x="352" y="179"/>
      <point x="391" y="179" type="curve" smooth="yes"/>
      <point x="430" y="179"/>
      <point x="460" y="197"/>
      <point x="497" y="241" type="curve" smooth="yes"/>
      <point x="530" y="280"/>
      <point x="538" y="294"/>
      <point x="538" y="314" type="curve" smooth="yes"/>
      <point x="538" y="341"/>
      <point x="515" y="364"/>
    </contour>
  </outline>
</glyph>
<glyph name="exclamdown" format="1">
  <advance width="600"/>
  <unicode hex="00A1"/>
  <outline>
    <contour>
      <point x="222" y="-114" type="line" smooth="yes"/>
      <point x="221" y="-126"/>
      <point x="220" y="-140"/>
      <point x="220" y="-147" type="curve" smooth="yes"/>
      <point x="220" y="-193"/>
      <point x="254" y="-227"/>
      <point x="300" y="-227" type="curve" smooth="yes"/>
      <point x="347" y="-227"/>
      <point x="381" y="-193"/>
      <point x="381" y="-147" type="curve" smooth="yes"/>
      <point x="381" y="-141"/>
      <point x="380" y="-127"/>
      <point x="379" y="-114" type="curve" smooth="yes"/>
      <point x="350" y="183" type="line" smooth="yes"/>
      <point x="347" y="213"/>
      <point x="328" y="232"/>
      <point x="300" y="232" type="curve" smooth="yes"/>
      <point x="272" y="232"/>
      <point x="254" y="214"/>
      <point x="251" y="183" type="curve" smooth="yes"/>
    </contour>
    <contour>
      <point x="292" y="426" type="line" smooth="yes"/>
      <point x="255" y="426"/>
      <point x="225" y="397"/>
      <point x="225" y="360" type="curve" smooth="yes"/>
      <point x="225" y="323"/>
      <point x="255" y="294"/>
      <point x="292" y="294" type="curve" smooth="yes"/>
      <point x="309" y="294" type="line" smooth="yes"/>
      <point x="346" y="294"/>
      <point x="375" y="323"/>
      <point x="375" y="360" type="curve" smooth="yes"/>
      <point x="375" y="397"/>
      <point x="346" y="426"/>
      <point x="309" y="426" type="curve" smooth="yes"/>
    </contour>
  </outline>
</glyph>
<glyph name="cent" format="1">
  <advance width="600"/>
  <unicode hex="00A2"/>
  <outline>
    <contour>
      <point x="351" y="99" type="line"/>
      <point x="439" y="114"/>
      <point x="499" y="152"/>
      <point x="499" y="194" type="curve" smooth="yes"/>
      <point x="499" y="221"/>
      <point x="475" y="245"/>
      <point x="449" y="245" type="curve" smooth="yes"/>
      <point x="437" y="245"/>
      <point x="427" y="241"/>
      <point x="415" y="233" type="curve" smooth="yes"/>
      <point x="381" y="208"/>
      <point x="347" y="197"/>
      <point x="310" y="197" type="curve" smooth="yes"/>
      <point x="238" y="197"/>
      <point x="183" y="247"/>
      <point x="183" y="310" type="curve" smooth="yes"/>
      <point x="183" y="377"/>
      <point x="241" y="427"/>
      <point x="320" y="427" type="curve" smooth="yes"/>
      <point x="365" y="427"/>
      <point x="388" y="414"/>
      <point x="395" y="384" type="curve" smooth="yes"/>
      <point x="403" y="354"/>
      <point x="403" y="354"/>
      <point x="410" y="346" type="curve"/>
      <point x="418" y="339"/>
      <point x="433" y="333"/>
      <point x="445" y="333" type="curve" smooth="yes"/>
      <point x="461" y="333"/>
      <point x="476" y="341"/>
      <point x="486" y="354" type="curve" smooth="yes"/>
      <point x="493" y="364"/>
      <point x="495" y="372"/>
      <point x="495" y="399" type="curve" smooth="yes"/>
      <point x="495" y="441" type="line" smooth="yes"/>
      <point x="495" y="467"/>
      <point x="494" y="474"/>
      <point x="488" y="483" type="curve" smooth="yes"/>
      <point x="478" y="498"/>
      <point x="462" y="507"/>
      <point x="444" y="507" type="curve" smooth="yes"/>
      <point x="438" y="507"/>
      <point x="433" y="506"/>
      <point x="424" y="503" type="curve"/>
      <point x="404" y="515"/>
      <point x="382" y="522"/>
      <point x="351" y="527" type="curve"/>
      <point x="351" y="594" type="line" smooth="yes"/>
      <point x="351" y="620"/>
      <point x="350" y="628"/>
      <point x="344" y="637" type="curve" smooth="yes"/>
      <point x="335" y="652"/>
      <point x="318" y="661"/>
      <point x="301" y="661" type="curve" smooth="yes"/>
      <point x="285" y="661"/>
      <point x="271" y="654"/>
      <point x="261" y="640" type="curve"/>
      <point x="253" y="630"/>
      <point x="251" y="621"/>
      <point x="251" y="594" type="curve" smooth="yes"/>
      <point x="251" y="517" type="line"/>
      <point x="152" y="493"/>
      <point x="83" y="409"/>
      <point x="83" y="312" type="curve" smooth="yes"/>
      <point x="83" y="209"/>
      <point x="148" y="128"/>
      <point x="251" y="103" type="curve"/>
      <point x="251" y="22" type="line" smooth="yes"/>
      <point x="251" y="-1"/>
      <point x="253" y="-12"/>
      <point x="258" y="-20" type="curve" smooth="yes"/>
      <point x="268" y="-35"/>
      <point x="284" y="-44"/>
      <point x="301" y="-44" type="curve" smooth="yes"/>
      <point x="317" y="-44"/>
      <point x="332" y="-36"/>
      <point x="342" y="-23" type="curve" smooth="yes"/>
      <point x="349" y="-13"/>
      <point x="351" y="-5"/>
      <point x="351" y="22" type="curve" smooth="yes"/>
    </contour>
  </outline>
</glyph>
<glyph name="sterling" format="1">
  <advance width="600"/>
  <unicode hex="00A3"/>
  <outline>
    <contour>
      <point x="314" y="243" type="line" smooth="yes"/>
      <point x="338" y="243"/>
      <point x="348" y="245"/>
      <point x="357" y="250" type="curve"/>
      <point x="372" y="260"/>
      <point x="381" y="276"/>
      <point x="381" y="293" type="curve" smooth="yes"/>
      <point x="381" y="309"/>
      <point x="373" y="324"/>
      <point x="360" y="334" type="curve" smooth="yes"/>
      <point x="350" y="341"/>
      <point x="341" y="343"/>
      <point x="314" y="343" type="curve" smooth="yes"/>
      <point x="246" y="343" type="line"/>
      <point x="226" y="414"/>
      <point x="226" y="416"/>
      <point x="226" y="437" type="curve" smooth="yes"/>
      <point x="226" y="472"/>
      <point x="257" y="498"/>
      <point x="298" y="498" type="curve" smooth="yes"/>
      <point x="325" y="498"/>
      <point x="345" y="490"/>
      <point x="361" y="472" type="curve" smooth="yes"/>
      <point x="384" y="447"/>
      <point x="389" y="444"/>
      <point x="408" y="444" type="curve" smooth="yes"/>
      <point x="435" y="444"/>
      <point x="457" y="467"/>
      <point x="457" y="495" type="curve" smooth="yes"/>
      <point x="457" y="546"/>
      <point x="377" y="598"/>
      <point x="299" y="598" type="curve" smooth="yes"/>
      <point x="198" y="598"/>
      <point x="126" y="529"/>
      <point x="126" y="432" type="curve" smooth="yes"/>
      <point x="126" y="403"/>
      <point x="131" y="379"/>
      <point x="143" y="343" type="curve"/>
      <point x="99" y="343" type="line" smooth="yes"/>
      <point x="74" y="343"/>
      <point x="66" y="342"/>
      <point x="57" y="336" type="curve" smooth="yes"/>
      <point x="42" y="327"/>
      <point x="33" y="310"/>
      <point x="33" y="293" type="curve" smooth="yes"/>
      <point x="33" y="277"/>
      <point x="41" y="262"/>
      <point x="54" y="252" type="curve" smooth="yes"/>
      <point x="63" y="245"/>
      <point x="74" y="243"/>
      <point x="99" y="243" type="curve" smooth="yes"/>
      <point x="168" y="243" type="line"/>
      <point x="169" y="235"/>
      <point x="169" y="227"/>
      <point x="169" y="224" type="curve" smooth="yes"/>
      <point x="169" y="188"/>
      <point x="163" y="157"/>
      <point x="150" y="132" type="curve" smooth="yes"/>
      <point x="141" y="113"/>
      <point x="130" y="105"/>
      <point x="105" y="100" type="curve" smooth="yes"/>
      <point x="70" y="93"/>
      <point x="55" y="78"/>
      <point x="55" y="51" type="curve" smooth="yes"/>
      <point x="55" y="35"/>
      <point x="63" y="19"/>
      <point x="76" y="10" type="curve"/>
      <point x="85" y="3"/>
      <point x="98" y="0"/>
      <point x="121" y="0" type="curve" smooth="yes"/>
      <point x="442" y="0" type="line" smooth="yes"/>
      <point x="512" y="0"/>
      <point x="550" y="32"/>
      <point x="550" y="90" type="curve" smooth="yes"/>
      <point x="550" y="124"/>
      <point x="530" y="146"/>
      <point x="499" y="146" type="curve" smooth="yes"/>
      <point x="471" y="146"/>
      <point x="454" y="130"/>
      <point x="450" y="100" type="curve"/>
      <point x="247" y="100" type="line"/>
      <point x="264" y="142"/>
      <point x="270" y="172"/>
      <point x="270" y="216" type="curve" smooth="yes"/>
      <point x="270" y="221"/>
      <point x="270" y="231"/>
      <point x="269" y="243" type="curve"/>
    </contour>
  </outline>
</glyph>
<glyph name="currency" format="1">
  <advance width="600"/>
  <unicode hex="00A4"/>
  <outline>
    <contour>
      <point x="131" y="388" type="line"/>
      <point x="112" y="352"/>
      <point x="106" y="328"/>
      <point x="106" y="292" type="curve" smooth="yes"/>
      <point x="106" y="257"/>
      <point x="112" y="233"/>
      <point x="131" y="196" type="curve"/>
      <point x="99" y="162" type="line" smooth="yes"/>
      <point x="77" y="139"/>
      <point x="73" y="132"/>
      <point x="73" y="115" type="curve" smooth="yes"/>
      <point x="73" y="87"/>
      <point x="96" y="64"/>
      <point x="124" y="64" type="curve" smooth="yes"/>
      <point x="141" y="64"/>
      <point x="148" y="68"/>
      <point x="171" y="91" type="curve" smooth="yes"/>
      <point x="204" y="123" type="line"/>
      <point x="241" y="103"/>
      <point x="264" y="97"/>
      <point x="300" y="97" type="curve" smooth="yes"/>
      <point x="335" y="97"/>
      <point x="359" y="103"/>
      <point x="395" y="122" type="curve"/>
      <point x="429" y="90" type="line" smooth="yes"/>
      <point x="451" y="68"/>
      <point x="458" y="64"/>
      <point x="475" y="64" type="curve" smooth="yes"/>
      <point x="503" y="64"/>
      <point x="527" y="88"/>
      <point x="527" y="116" type="curve" smooth="yes"/>
      <point x="527" y="132"/>
      <point x="522" y="141"/>
      <point x="501" y="162" type="curve" smooth="yes"/>
      <point x="468" y="196" type="line"/>
      <point x="488" y="233"/>
      <point x="494" y="257"/>
      <point x="494" y="292" type="curve" smooth="yes"/>
      <point x="494" y="327"/>
      <point x="488" y="351"/>
      <point x="469" y="388" type="curve"/>
      <point x="500" y="420" type="line" smooth="yes"/>
      <point x="522" y="442"/>
      <point x="526" y="449"/>
      <point x="526" y="466" type="curve" smooth="yes"/>
      <point x="526" y="494"/>
      <point x="503" y="517"/>
      <point x="475" y="517" type="curve" smooth="yes"/>
      <point x="458" y="517"/>
      <point x="450" y="513"/>
      <point x="428" y="491" type="curve" smooth="yes"/>
      <point x="397" y="461" type="line"/>
      <point x="360" y="481"/>
      <point x="336" y="488"/>
      <point x="300" y="488" type="curve" smooth="yes"/>
      <point x="264" y="488"/>
      <point x="240" y="482"/>
      <point x="203" y="462" type="curve"/>
      <point x="171" y="493" type="line" smooth="yes"/>
      <point x="148" y="515"/>
      <point x="141" y="519"/>
      <point x="124" y="519" type="curve" smooth="yes"/>
      <point x="96" y="519"/>
      <point x="73" y="496"/>
      <point x="73" y="469" type="curve" smooth="yes"/>
      <point x="73" y="455"/>
      <point x="83" y="435"/>
      <point x="98" y="420" type="curve" smooth="yes"/>
    </contour>
    <contour>
      <point x="300" y="388" type="curve" smooth="yes"/>
      <point x="353" y="388"/>
      <point x="394" y="346"/>
      <point x="394" y="292" type="curve" smooth="yes"/>
      <point x="394" y="241"/>
      <point x="351" y="197"/>
      <point x="300" y="197" type="curve" smooth="yes"/>
      <point x="249" y="197"/>
      <point x="206" y="241"/>
      <point x="206" y="293" type="curve" smooth="yes"/>
      <point x="206" y="346"/>
      <point x="248" y="388"/>
    </contour>
  </outline>
</glyph>
<glyph name="yen" format="1">
  <advance width="600"/>
  <unicode hex="00A5"/>
  <outline>
    <contour>
      <point x="301" y="348" type="line"/>
      <point x="207" y="482" type="line"/>
      <point x="230" y="486"/>
      <point x="246" y="506"/>
      <point x="246" y="530" type="curve" smooth="yes"/>
      <point x="246" y="546"/>
      <point x="239" y="560"/>
      <point x="226" y="570" type="curve" smooth="yes"/>
      <point x="215" y="578"/>
      <point x="208" y="580"/>
      <point x="179" y="580" type="curve" smooth="yes"/>
      <point x="87" y="580" type="line" smooth="yes"/>
      <point x="61" y="580"/>
      <point x="54" y="579"/>
      <point x="45" y="573" type="curve" smooth="yes"/>
      <point x="30" y="564"/>
      <point x="21" y="547"/>
      <point x="21" y="530" type="curve" smooth="yes"/>
      <point x="21" y="499"/>
      <point x="48" y="477"/>
      <point x="82" y="480" type="curve"/>
      <point x="83" y="480"/>
      <point x="85" y="480"/>
      <point x="87" y="481" type="curve"/>
      <point x="225" y="281" type="line"/>
      <point x="153" y="281" type="line" smooth="yes"/>
      <point x="132" y="281"/>
      <point x="122" y="271"/>
      <point x="122" y="253" type="curve" smooth="yes"/>
      <point x="122" y="235"/>
      <point x="133" y="225"/>
      <point x="153" y="225" type="curve" smooth="yes"/>
      <point x="250" y="225" type="line"/>
      <point x="250" y="191" type="line"/>
      <point x="153" y="191" type="line" smooth="yes"/>
      <point x="133" y="191"/>
      <point x="122" y="181"/>
      <point x="122" y="163" type="curve" smooth="yes"/>
      <point x="122" y="145"/>
      <point x="133" y="135"/>
      <point x="153" y="135" type="curve" smooth="yes"/>
      <point x="250" y="135" type="line"/>
      <point x="250" y="100" type="line"/>
      <point x="204" y="100" type="line" smooth="yes"/>
      <point x="178" y="100"/>
      <point x="170" y="99"/>
      <point x="161" y="93" type="curve" smooth="yes"/>
      <point x="146" y="84"/>
      <point x="137" y="67"/>
      <point x="137" y="50" type="curve" smooth="yes"/>
      <point x="137" y="35"/>
      <point x="145" y="19"/>
      <point x="158" y="10" type="curve"/>
      <point x="166" y="3"/>
      <point x="180" y="0"/>
      <point x="203" y="0" type="curve" smooth="yes"/>
      <point x="397" y="0" type="line" smooth="yes"/>
      <point x="441" y="0"/>
      <point x="463" y="17"/>
      <point x="463" y="50" type="curve" smooth="yes"/>
      <point x="463" y="66"/>
      <point x="456" y="81"/>
      <point x="442" y="91" type="curve" smooth="yes"/>
      <point x="432" y="98"/>
      <point x="424" y="100"/>
      <point x="397" y="100" type="curve" smooth="yes"/>
      <point x="350" y="100" type="line"/>
      <point x="350" y="135" type="line"/>
      <point x="447" y="135" type="line" smooth="yes"/>
      <point x="467" y="135"/>
      <point x="478" y="145"/>
      <point x="478" y="163" type="curve" smooth="yes"/>
      <point x="478" y="181"/>
      <point x="467" y="191"/>
      <point x="447" y="191" type="curve" smooth="yes"/>
      <point x="350" y="191" type="line"/>
      <point x="350" y="225" type="line"/>
      <point x="447" y="225" type="line" smooth="yes"/>
      <point x="467" y="225"/>
      <point x="478" y="235"/>
      <point x="478" y="253" type="curve" smooth="yes"/>
      <point x="478" y="271"/>
      <point x="467" y="281"/>
      <point x="447" y="281" type="curve" smooth="yes"/>
      <point x="375" y="281" type="line"/>
      <point x="514" y="480" type="line"/>
      <point x="515" y="480" type="line"/>
      <point x="521" y="478"/>
      <point x="550" y="484"/>
      <point x="555" y="487" type="curve" smooth="yes"/>
      <point x="570" y="497"/>
      <point x="579" y="513"/>
      <point x="579" y="530" type="curve" smooth="yes"/>
      <point x="579" y="546"/>
      <point x="571" y="561"/>
      <point x="558" y="571" type="curve" smooth="yes"/>
      <point x="548" y="578"/>
      <point x="541" y="580"/>
      <point x="513" y="580" type="curve" smooth="yes"/>
      <point x="422" y="580" type="line" smooth="yes"/>
      <point x="396" y="580"/>
      <point x="388" y="579"/>
      <point x="379" y="573" type="curve" smooth="yes"/>
      <point x="364" y="564"/>
      <point x="355" y="547"/>
      <point x="355" y="530" type="curve" smooth="yes"/>
      <point x="355" y="506"/>
      <point x="370" y="488"/>
      <point x="396" y="481" type="curve"/>
    </contour>
  </outline>
</glyph>
<glyph name="brokenbar" format="1">
  <advance width="600"/>
  <unicode hex="00A6"/>
  <outline>
    <contour>
      <point x="350" y="556" type="line" smooth="yes"/>
      <point x="350" y="564"/>
      <point x="350" y="566"/>
      <point x="349" y="577" type="curve"/>
      <point x="345" y="605"/>
      <point x="327" y="622"/>
      <point x="300" y="622" type="curve" smooth="yes"/>
      <point x="284" y="622"/>
      <point x="269" y="614"/>
      <point x="259" y="601" type="curve" smooth="yes"/>
      <point x="252" y="592"/>
      <point x="250" y="581"/>
      <point x="250" y="556" type="curve" smooth="yes"/>
      <point x="250" y="353" type="line" smooth="yes"/>
      <point x="250" y="330"/>
      <point x="252" y="319"/>
      <point x="257" y="311" type="curve" smooth="yes"/>
      <point x="266" y="296"/>
      <point x="283" y="287"/>
      <point x="300" y="287" type="curve" smooth="yes"/>
      <point x="316" y="287"/>
      <point x="331" y="295"/>
      <point x="341" y="308" type="curve" smooth="yes"/>
      <point x="348" y="318"/>
      <point x="350" y="326"/>
      <point x="350" y="353" type="curve" smooth="yes"/>
    </contour>
    <contour>
      <point x="350" y="116" type="line" smooth="yes"/>
      <point x="350" y="140"/>
      <point x="348" y="149"/>
      <point x="343" y="158" type="curve" smooth="yes"/>
      <point x="334" y="173"/>
      <point x="317" y="182"/>
      <point x="300" y="182" type="curve" smooth="yes"/>
      <point x="284" y="182"/>
      <point x="269" y="174"/>
      <point x="259" y="162" type="curve"/>
      <point x="252" y="152"/>
      <point x="250" y="142"/>
      <point x="250" y="116" type="curve" smooth="yes"/>
      <point x="250" y="-87" type="line" smooth="yes"/>
      <point x="250" y="-110"/>
      <point x="252" y="-121"/>
      <point x="257" y="-129" type="curve" smooth="yes"/>
      <point x="267" y="-144"/>
      <point x="283" y="-153"/>
      <point x="300" y="-153" type="curve" smooth="yes"/>
      <point x="316" y="-153"/>
      <point x="331" y="-145"/>
      <point x="341" y="-132" type="curve" smooth="yes"/>
      <point x="348" y="-122"/>
      <point x="350" y="-112"/>
      <point x="350" y="-87" type="curve" smooth="yes"/>
    </contour>
  </outline>
</glyph>
<glyph name="section" format="1">
  <advance width="600"/>
  <unicode hex="00A7"/>
  <outline>
    <contour>
      <point x="431" y="493" type="line"/>
      <point x="431" y="456" type="line" smooth="yes"/>
      <point x="431" y="437"/>
      <point x="433" y="428"/>
      <point x="437" y="421" type="curve"/>
      <point x="445" y="409"/>
      <point x="460" y="401"/>
      <point x="475" y="401" type="curve" smooth="yes"/>
      <point x="489" y="401"/>
      <point x="503" y="408"/>
      <point x="511" y="419" type="curve"/>
      <point x="518" y="427"/>
      <point x="519" y="433"/>
      <point x="519" y="456" type="curve" smooth="yes"/>
      <point x="519" y="583" type="line"/>
      <point x="294" y="583" type="line" smooth="yes"/>
      <point x="241" y="583"/>
      <point x="205" y="569"/>
      <point x="174" y="535" type="curve" smooth="yes"/>
      <point x="147" y="507"/>
      <point x="132" y="469"/>
      <point x="132" y="432" type="curve" smooth="yes"/>
      <point x="132" y="420"/>
      <point x="133" y="414"/>
      <point x="137" y="402" type="curve"/>
      <point x="72" y="384"/>
      <point x="36" y="342"/>
      <point x="36" y="283" type="curve" smooth="yes"/>
      <point x="36" y="226"/>
      <point x="71" y="187"/>
      <point x="170" y="130" type="curve" smooth="yes"/>
      <point x="276" y="69" type="line" smooth="yes"/>
      <point x="347" y="29"/>
      <point x="381" y="-3"/>
      <point x="381" y="-29" type="curve" smooth="yes"/>
      <point x="381" y="-57"/>
      <point x="350" y="-82"/>
      <point x="314" y="-82" type="curve" smooth="yes"/>
      <point x="169" y="-82" type="line"/>
      <point x="169" y="-43" type="line" smooth="yes"/>
      <point x="169" y="-22"/>
      <point x="168" y="-16"/>
      <point x="163" y="-9" type="curve"/>
      <point x="155" y="4"/>
      <point x="141" y="12"/>
      <point x="125" y="12" type="curve" smooth="yes"/>
      <point x="95" y="12"/>
      <point x="81" y="-6"/>
      <point x="81" y="-43" type="curve" smooth="yes"/>
      <point x="81" y="-170" type="line"/>
      <point x="312" y="-170" type="line" smooth="yes"/>
      <point x="365" y="-170"/>
      <point x="399" y="-156"/>
      <point x="429" y="-123" type="curve" smooth="yes"/>
      <point x="454" y="-94"/>
      <point x="467" y="-63"/>
      <point x="467" y="-28" type="curve" smooth="yes"/>
      <point x="467" y="-16"/>
      <point x="466" y="-7"/>
      <point x="462" y="10" type="curve"/>
      <point x="527" y="25"/>
      <point x="564" y="68"/>
      <point x="564" y="129" type="curve" smooth="yes"/>
      <point x="564" y="191"/>
      <point x="533" y="226"/>
      <point x="416" y="291" type="curve" smooth="yes"/>
      <point x="324" y="342" type="line" smooth="yes"/>
      <point x="252" y="383"/>
      <point x="217" y="415"/>
      <point x="217" y="440" type="curve" smooth="yes"/>
      <point x="217" y="469"/>
      <point x="248" y="493"/>
      <point x="287" y="493" type="curve" smooth="yes"/>
    </contour>
    <contour>
      <point x="371" y="214" type="line" smooth="yes"/>
      <point x="433" y="178"/>
      <point x="468" y="144"/>
      <point x="468" y="121" type="curve" smooth="yes"/>
      <point x="468" y="102"/>
      <point x="449" y="89"/>
      <point x="424" y="88" type="curve" smooth="yes"/>
      <point x="413" y="88" type="line"/>
      <point x="407" y="88" type="line"/>
      <point x="390" y="103"/>
      <point x="374" y="114"/>
      <point x="321" y="147" type="curve" smooth="yes"/>
      <point x="218" y="205" type="line" smooth="yes"/>
      <point x="159" y="239"/>
      <point x="132" y="266"/>
      <point x="132" y="292" type="curve" smooth="yes"/>
      <point x="132" y="314"/>
      <point x="153" y="326"/>
      <point x="192" y="326" type="curve"/>
      <point x="228" y="297"/>
      <point x="238" y="290"/>
      <point x="272" y="271" type="curve" smooth="yes"/>
    </contour>
  </outline>
</glyph>
<glyph name="dieresis" format="1">
  <advance width="600"/>
  <unicode hex="00A8"/>
  <outline>
    <contour>
      <point x="196" y="654" type="curve" smooth="yes"/>
      <point x="163" y="654"/>
      <point x="136" y="627"/>
      <point x="136" y="594" type="curve" smooth="yes"/>
      <point x="136" y="561"/>
      <point x="163" y="534"/>
      <point x="196" y="534" type="curve" smooth="yes"/>
      <point x="229" y="534"/>
      <point x="256" y="561"/>
      <point x="256" y="593" type="curve" smooth="yes"/>
      <point x="256" y="627"/>
      <point x="230" y="654"/>
    </contour>
    <contour>
      <point x="404" y="654" type="curve" smooth="yes"/>
      <point x="371" y="654"/>
      <point x="344" y="627"/>
      <point x="344" y="594" type="curve" smooth="yes"/>
      <point x="344" y="561"/>
      <point x="371" y="534"/>
      <point x="404" y="534" type="curve" smooth="yes"/>
      <point x="437" y="534"/>
      <point x="464" y="561"/>
      <point x="464" y="593" type="curve" smooth="yes"/>
      <point x="464" y="627"/>
      <point x="438" y="654"/>
    </contour>
  </outline>
</glyph>
<glyph name="copyright" format="1">
  <advance width="600"/>
  <unicode hex="00A9"/>
  <outline>
    <contour>
      <point x="135" y="269" type="line" smooth="yes"/>
      <point x="135" y="182"/>
      <point x="206" y="118"/>
      <point x="302" y="118" type="curve" smooth="yes"/>
      <point x="373" y="118"/>
      <point x="439" y="154"/>
      <point x="439" y="193" type="curve" smooth="yes"/>
      <point x="439" y="212"/>
      <point x="422" y="229"/>
      <point x="403" y="229" type="curve" smooth="yes"/>
      <point x="394" y="229"/>
      <point x="385" y="225"/>
      <point x="378" y="218" type="curve" smooth="yes"/>
      <point x="355" y="194"/>
      <point x="342" y="189"/>
      <point x="303" y="189" type="curve" smooth="yes"/>
      <point x="244" y="189"/>
      <point x="206" y="221"/>
      <point x="206" y="270" type="curve" smooth="yes"/>
      <point x="206" y="304" type="line" smooth="yes"/>
      <point x="206" y="357"/>
      <point x="242" y="395"/>
      <point x="293" y="395" type="curve" smooth="yes"/>
      <point x="327" y="395"/>
      <point x="357" y="379"/>
      <point x="360" y="360" type="curve" smooth="yes"/>
      <point x="365" y="335"/>
      <point x="375" y="324"/>
      <point x="396" y="324" type="curve" smooth="yes"/>
      <point x="418" y="324"/>
      <point x="431" y="340"/>
      <point x="431" y="368" type="curve" smooth="yes"/>
      <point x="431" y="422" type="line"/>
      <point x="431" y="428" type="line" smooth="yes"/>
      <point x="431" y="451"/>
      <point x="418" y="466"/>
      <point x="398" y="466" type="curve" smooth="yes"/>
      <point x="384" y="466"/>
      <point x="375" y="459"/>
      <point x="370" y="447" type="curve"/>
      <point x="342" y="461"/>
      <point x="319" y="466"/>
      <point x="291" y="466" type="curve" smooth="yes"/>
      <point x="202" y="466"/>
      <point x="135" y="397"/>
      <point x="135" y="305" type="curve" smooth="yes"/>
    </contour>
    <contour>
      <point x="299" y="598" type="curve" smooth="yes"/>
      <point x="130" y="598"/>
      <point x="-7" y="461"/>
      <point x="-7" y="292" type="curve" smooth="yes"/>
      <point x="-7" y="124"/>
      <point x="131" y="-15"/>
      <point x="296" y="-15" type="curve" smooth="yes"/>
      <point x="469" y="-15"/>
      <point x="606" y="121"/>
      <point x="606" y="292" type="curve" smooth="yes"/>
      <point x="606" y="461"/>
      <point x="469" y="598"/>
    </contour>
    <contour>
      <point x="300" y="525" type="curve" smooth="yes"/>
      <point x="428" y="525"/>
      <point x="533" y="421"/>
      <point x="533" y="292" type="curve" smooth="yes"/>
      <point x="533" y="161"/>
      <point x="429" y="58"/>
      <point x="297" y="58" type="curve" smooth="yes"/>
      <point x="171" y="58"/>
      <point x="66" y="164"/>
      <point x="66" y="292" type="curve" smooth="yes"/>
      <point x="66" y="421"/>
      <point x="170" y="525"/>
    </contour>
  </outline>
</glyph>
<glyph name="ordfeminine" format="1">
  <advance width="600"/>
  <unicode hex="00AA"/>
  <outline>
    <contour>
      <point x="354" y="284" type="line"/>
      <point x="439" y="284" type="line" smooth="yes"/>
      <point x="472" y="284"/>
      <point x="489" y="298"/>
      <point x="489" y="323" type="curve" smooth="yes"/>
      <point x="489" y="350"/>
      <point x="473" y="362"/>
      <point x="438" y="362" type="curve" smooth="yes"/>
      <point x="432" y="362" type="line"/>
      <point x="432" y="490" type="line" smooth="yes"/>
      <point x="432" y="557"/>
      <point x="381" y="595"/>
      <point x="292" y="595" type="curve" smooth="yes"/>
      <point x="257" y="595"/>
      <point x="209" y="587"/>
      <point x="175" y="575" type="curve" smooth="yes"/>
      <point x="160" y="569"/>
      <point x="151" y="557"/>
      <point x="151" y="541" type="curve" smooth="yes"/>
      <point x="151" y="519"/>
      <point x="168" y="501"/>
      <point x="189" y="501" type="curve" smooth="yes"/>
      <point x="195" y="501"/>
      <point x="206" y="503"/>
      <point x="217" y="506" type="curve" smooth="yes"/>
      <point x="249" y="514"/>
      <point x="273" y="517"/>
      <point x="296" y="517" type="curve" smooth="yes"/>
      <point x="337" y="517"/>
      <point x="354" y="509"/>
      <point x="354" y="490" type="curve" smooth="yes"/>
      <point x="354" y="482" type="line"/>
      <point x="325" y="486"/>
      <point x="312" y="487"/>
      <point x="292" y="487" type="curve" smooth="yes"/>
      <point x="225" y="487"/>
      <point x="178" y="470"/>
      <point x="146" y="434" type="curve" smooth="yes"/>
      <point x="129" y="415"/>
      <point x="118" y="390"/>
      <point x="118" y="369" type="curve" smooth="yes"/>
      <point x="118" y="316"/>
      <point x="175" y="273"/>
      <point x="246" y="273" type="curve" smooth="yes"/>
      <point x="285" y="273"/>
      <point x="314" y="279"/>
      <point x="354" y="295" type="curve"/>
    </contour>
    <contour>
      <point x="354" y="383" type="line"/>
      <point x="328" y="365"/>
      <point x="284" y="352"/>
      <point x="252" y="352" type="curve" smooth="yes"/>
      <point x="227" y="352"/>
      <point x="209" y="361"/>
      <point x="209" y="374" type="curve" smooth="yes"/>
      <point x="209" y="397"/>
      <point x="246" y="417"/>
      <point x="288" y="417" type="curve" smooth="yes"/>
      <point x="307" y="417"/>
      <point x="322" y="416"/>
      <point x="354" y="410" type="curve"/>
    </contour>
    <contour>
      <point x="432" y="182" type="line" smooth="yes"/>
      <point x="466" y="182"/>
      <point x="483" y="195"/>
      <point x="483" y="221" type="curve" smooth="yes"/>
      <point x="483" y="247"/>
      <point x="467" y="259"/>
      <point x="431" y="259" type="curve" smooth="yes"/>
      <point x="176" y="259" type="line" smooth="yes"/>
      <point x="135" y="259"/>
      <point x="124" y="252"/>
      <point x="124" y="227" type="curve" smooth="yes"/>
      <point x="124" y="189"/>
      <point x="132" y="182"/>
      <point x="176" y="182" type="curve" smooth="yes"/>
    </contour>
  </outline>
</glyph>
<glyph name="guillemotleft" format="1">
  <advance width="600"/>
  <unicode hex="00AB"/>
  <outline>
    <contour>
      <point x="175" y="218" type="line"/>
      <point x="326" y="358" type="line"/>
      <point x="338" y="368"/>
      <point x="342" y="376"/>
      <point x="342" y="385" type="curve" smooth="yes"/>
      <point x="342" y="401"/>
      <point x="327" y="415"/>
      <point x="310" y="415" type="curve" smooth="yes"/>
      <point x="300" y="415"/>
      <point x="295" y="413"/>
      <point x="281" y="402" type="curve" smooth="yes"/>
      <point x="33" y="218" type="line"/>
      <point x="281" y="33" type="line" smooth="yes"/>
      <point x="295" y="22"/>
      <point x="300" y="20"/>
      <point x="309" y="20" type="curve" smooth="yes"/>
      <point x="327" y="20"/>
      <point x="342" y="34"/>
      <point x="342" y="50" type="curve" smooth="yes"/>
      <point x="342" y="59"/>
      <point x="337" y="67"/>
      <point x="326" y="77" type="curve" smooth="yes"/>
    </contour>
    <contour>
      <point x="404" y="218" type="line"/>
      <point x="555" y="358" type="line"/>
      <point x="567" y="368"/>
      <point x="571" y="376"/>
      <point x="571" y="385" type="curve" smooth="yes"/>
      <point x="571" y="401"/>
      <point x="556" y="415"/>
      <point x="539" y="415" type="curve" smooth="yes"/>
      <point x="529" y="415"/>
      <point x="524" y="413"/>
      <point x="510" y="402" type="curve" smooth="yes"/>
      <point x="262" y="218" type="line"/>
      <point x="510" y="33" type="line" smooth="yes"/>
      <point x="524" y="22"/>
      <point x="529" y="20"/>
      <point x="538" y="20" type="curve" smooth="yes"/>
      <point x="556" y="20"/>
      <point x="571" y="34"/>
      <point x="571" y="50" type="curve" smooth="yes"/>
      <point x="571" y="59"/>
      <point x="566" y="67"/>
      <point x="555" y="77" type="curve" smooth="yes"/>
    </contour>
  </outline>
</glyph>
<glyph name="logicalnot" format="1">
  <advance width="600"/>
  <unicode hex="00AC"/>
  <outline>
    <contour>
      <point x="465" y="445" type="line"/>
      <point x="108" y="445" type="line" smooth="yes"/>
      <point x="82" y="445"/>
      <point x="75" y="444"/>
      <point x="66" y="438" type="curve" smooth="yes"/>
      <point x="51" y="429"/>
      <point x="42" y="412"/>
      <point x="42" y="395" type="curve" smooth="yes"/>
      <point x="42" y="380"/>
      <point x="50" y="364"/>
      <point x="63" y="355" type="curve"/>
      <point x="72" y="347"/>
      <point x="84" y="345"/>
      <point x="108" y="345" type="curve" smooth="yes"/>
      <point x="365" y="345" type="line"/>
      <point x="365" y="181" type="line" smooth="yes"/>
      <point x="365" y="158"/>
      <point x="367" y="148"/>
      <point x="372" y="139" type="curve" smooth="yes"/>
      <point x="381" y="124"/>
      <point x="398" y="115"/>
      <point x="415" y="115" type="curve" smooth="yes"/>
      <point x="431" y="115"/>
      <point x="446" y="123"/>
      <point x="456" y="136" type="curve" smooth="yes"/>
      <point x="463" y="146"/>
      <point x="465" y="154"/>
      <point x="465" y="181" type="curve" smooth="yes"/>
    </contour>
  </outline>
</glyph>
<glyph name="registered" format="1">
  <advance width="600"/>
  <unicode hex="00AE"/>
  <outline>
    <contour>
      <point x="269" y="246" type="line"/>
      <point x="284" y="246" type="line"/>
      <point x="312" y="233"/>
      <point x="351" y="175"/>
      <point x="363" y="126" type="curve"/>
      <point x="403" y="126" type="line" smooth="yes"/>
      <point x="431" y="126"/>
      <point x="447" y="139"/>
      <point x="447" y="162" type="curve" smooth="yes"/>
      <point x="447" y="182"/>
      <point x="434" y="195"/>
      <point x="411" y="197" type="curve"/>
      <point x="389" y="235"/>
      <point x="382" y="244"/>
      <point x="358" y="266" type="curve"/>
      <point x="395" y="283"/>
      <point x="419" y="317"/>
      <point x="419" y="354" type="curve" smooth="yes"/>
      <point x="419" y="415"/>
      <point x="367" y="458"/>
      <point x="292" y="458" type="curve" smooth="yes"/>
      <point x="199" y="458" type="line" smooth="yes"/>
      <point x="170" y="458"/>
      <point x="154" y="446"/>
      <point x="154" y="423" type="curve" smooth="yes"/>
      <point x="154" y="401"/>
      <point x="169" y="388"/>
      <point x="197" y="387" type="curve"/>
      <point x="197" y="197" type="line"/>
      <point x="169" y="197"/>
      <point x="154" y="184"/>
      <point x="154" y="162" type="curve" smooth="yes"/>
      <point x="154" y="139"/>
      <point x="170" y="126"/>
      <point x="199" y="126" type="curve" smooth="yes"/>
      <point x="267" y="126" type="line" smooth="yes"/>
      <point x="295" y="126"/>
      <point x="311" y="139"/>
      <point x="311" y="162" type="curve" smooth="yes"/>
      <point x="311" y="184"/>
      <point x="295" y="197"/>
      <point x="269" y="197" type="curve"/>
    </contour>
    <contour>
      <point x="269" y="316" type="line"/>
      <point x="269" y="387" type="line"/>
      <point x="294" y="387" type="line" smooth="yes"/>
      <point x="327" y="387"/>
      <point x="348" y="374"/>
      <point x="348" y="355" type="curve" smooth="yes"/>
      <point x="348" y="333"/>
      <point x="325" y="316"/>
      <point x="294" y="316" type="curve" smooth="yes"/>
    </contour>
    <contour>
      <point x="300" y="598" type="curve" smooth="yes"/>
      <point x="131" y="598"/>
      <point x="-7" y="460"/>
      <point x="-7" y="292" type="curve" smooth="yes"/>
      <point x="-7" y="124"/>
      <point x="131" y="-15"/>
      <point x="296" y="-15" type="curve" smooth="yes"/>
      <point x="469" y="-15"/>
      <point x="606" y="121"/>
      <point x="606" y="292" type="curve" smooth="yes"/>
      <point x="606" y="461"/>
      <point x="468" y="598"/>
    </contour>
    <contour>
      <point x="300" y="525" type="curve" smooth="yes"/>
      <point x="428" y="525"/>
      <point x="533" y="420"/>
      <point x="533" y="292" type="curve" smooth="yes"/>
      <point x="533" y="161"/>
      <point x="429" y="58"/>
      <point x="297" y="58" type="curve" smooth="yes"/>
      <point x="171" y="58"/>
      <point x="66" y="164"/>
      <point x="66" y="292" type="curve" smooth="yes"/>
      <point x="66" y="420"/>
      <point x="171" y="525"/>
    </contour>
  </outline>
</glyph>
<glyph name="macron" format="1">
  <advance width="600"/>
  <unicode hex="00AF"/>
  <outline>
    <contour>
      <point x="178" y="626" type="line" smooth="yes"/>
      <point x="144" y="626"/>
      <point x="125" y="611"/>
      <point x="125" y="586" type="curve" smooth="yes"/>
      <point x="125" y="578"/>
      <point x="130" y="566"/>
      <point x="136" y="558" type="curve"/>
      <point x="145" y="548"/>
      <point x="153" y="546"/>
      <point x="178" y="546" type="curve" smooth="yes"/>
      <point x="422" y="546" type="line" smooth="yes"/>
      <point x="455" y="546"/>
      <point x="475" y="561"/>
      <point x="475" y="586" type="curve" smooth="yes"/>
      <point x="475" y="594"/>
      <point x="470" y="608"/>
      <point x="464" y="615" type="curve" smooth="yes"/>
      <point x="457" y="623"/>
      <point x="445" y="626"/>
      <point x="422" y="626" type="curve" smooth="yes"/>
    </contour>
  </outline>
</glyph>
<glyph name="degree" format="1">
  <advance width="600"/>
  <unicode hex="00B0"/>
  <outline>
    <contour>
      <point x="300" y="596" type="curve" smooth="yes"/>
      <point x="203" y="596"/>
      <point x="125" y="517"/>
      <point x="125" y="420" type="curve" smooth="yes"/>
      <point x="125" y="323"/>
      <point x="204" y="243"/>
      <point x="298" y="243" type="curve" smooth="yes"/>
      <point x="397" y="243"/>
      <point x="475" y="321"/>
      <point x="475" y="420" type="curve" smooth="yes"/>
      <point x="475" y="517"/>
      <point x="397" y="596"/>
    </contour>
    <contour>
      <point x="300" y="535" type="curve" smooth="yes"/>
      <point x="363" y="535"/>
      <point x="414" y="483"/>
      <point x="414" y="420" type="curve" smooth="yes"/>
      <point x="414" y="356"/>
      <point x="363" y="304"/>
      <point x="299" y="304" type="curve" smooth="yes"/>
      <point x="238" y="304"/>
      <point x="186" y="357"/>
      <point x="186" y="420" type="curve" smooth="yes"/>
      <point x="186" y="483"/>
      <point x="237" y="535"/>
    </contour>
  </outline>
</glyph>
<glyph name="plusminus" format="1">
  <advance width="600"/>
  <unicode hex="00B1"/>
  <outline>
    <contour>
      <point x="350" y="330" type="line"/>
      <point x="491" y="330" type="line" smooth="yes"/>
      <point x="514" y="330"/>
      <point x="526" y="332"/>
      <point x="534" y="337" type="curve" smooth="yes"/>
      <point x="549" y="346"/>
      <point x="558" y="363"/>
      <point x="558" y="380" type="curve" smooth="yes"/>
      <point x="558" y="396"/>
      <point x="550" y="411"/>
      <point x="537" y="421" type="curve" smooth="yes"/>
      <point x="527" y="428"/>
      <point x="519" y="430"/>
      <point x="491" y="430" type="curve" smooth="yes"/>
      <point x="350" y="430" type="line"/>
      <point x="350" y="558" type="line" smooth="yes"/>
      <point x="350" y="584"/>
      <point x="349" y="591"/>
      <point x="343" y="600" type="curve" smooth="yes"/>
      <point x="334" y="615"/>
      <point x="317" y="624"/>
      <point x="300" y="624" type="curve" smooth="yes"/>
      <point x="284" y="624"/>
      <point x="269" y="616"/>
      <point x="260" y="603" type="curve"/>
      <point x="252" y="594"/>
      <point x="250" y="584"/>
      <point x="250" y="558" type="curve" smooth="yes"/>
      <point x="250" y="430" type="line"/>
      <point x="108" y="430" type="line" smooth="yes"/>
      <point x="83" y="430"/>
      <point x="75" y="429"/>
      <point x="66" y="423" type="curve" smooth="yes"/>
      <point x="52" y="414"/>
      <point x="42" y="397"/>
      <point x="42" y="380" type="curve" smooth="yes"/>
      <point x="42" y="365"/>
      <point x="50" y="349"/>
      <point x="63" y="340" type="curve"/>
      <point x="72" y="332"/>
      <point x="84" y="330"/>
      <point x="108" y="330" type="curve" smooth="yes"/>
      <point x="250" y="330" type="line"/>
      <point x="250" y="230" type="line" smooth="yes"/>
      <point x="250" y="207"/>
      <point x="252" y="197"/>
      <point x="257" y="188" type="curve"/>
      <point x="266" y="174"/>
      <point x="283" y="164"/>
      <point x="300" y="164" type="curve" smooth="yes"/>
      <point x="316" y="164"/>
      <point x="331" y="172"/>
      <point x="341" y="185" type="curve" smooth="yes"/>
      <point x="348" y="195"/>
      <point x="350" y="203"/>
      <point x="350" y="230" type="curve" smooth="yes"/>
    </contour>
    <contour>
      <point x="108" y="100" type="line" smooth="yes"/>
      <point x="83" y="100"/>
      <point x="75" y="99"/>
      <point x="66" y="93" type="curve" smooth="yes"/>
      <point x="52" y="84"/>
      <point x="42" y="67"/>
      <point x="42" y="50" type="curve" smooth="yes"/>
      <point x="42" y="35"/>
      <point x="50" y="19"/>
      <point x="63" y="10" type="curve"/>
      <point x="72" y="2"/>
      <point x="84" y="0"/>
      <point x="108" y="0" type="curve" smooth="yes"/>
      <point x="492" y="0" type="line" smooth="yes"/>
      <point x="514" y="0"/>
      <point x="526" y="2"/>
      <point x="534" y="7" type="curve" smooth="yes"/>
      <point x="549" y="16"/>
      <point x="558" y="33"/>
      <point x="558" y="50" type="curve" smooth="yes"/>
      <point x="558" y="66"/>
      <point x="550" y="81"/>
      <point x="537" y="91" type="curve" smooth="yes"/>
      <point x="527" y="98"/>
      <point x="519" y="100"/>
      <point x="492" y="100" type="curve" smooth="yes"/>
    </contour>
  </outline>
</glyph>
<glyph name="acute" format="1">
  <advance width="600"/>
  <unicode hex="00B4"/>
  <outline>
    <contour>
      <point x="452" y="624" type="line" smooth="yes"/>
      <point x="469" y="637"/>
      <point x="475" y="647"/>
      <point x="475" y="659" type="curve" smooth="yes"/>
      <point x="475" y="680"/>
      <point x="459" y="696"/>
      <point x="438" y="696" type="curve" smooth="yes"/>
      <point x="427" y="696"/>
      <point x="422" y="693"/>
      <point x="406" y="680" type="curve" smooth="yes"/>
      <point x="273" y="569" type="line" smooth="yes"/>
      <point x="257" y="556"/>
      <point x="250" y="545"/>
      <point x="250" y="532" type="curve" smooth="yes"/>
      <point x="250" y="513"/>
      <point x="267" y="496"/>
      <point x="287" y="496" type="curve" smooth="yes"/>
      <point x="297" y="496"/>
      <point x="304" y="500"/>
      <point x="319" y="512" type="curve" smooth="yes"/>
    </contour>
  </outline>
</glyph>
